<svg width="13" height="11" viewBox="0 0 13 11" fill="none" xmlns="http://www.w3.org/2000/svg">
<path d="M12.0648 3.33155C12.0648 3.33155 11.7069 3.21273 11.5397 2.97488C11.3725 2.73725 10.7522 2.47559 10.2271 2.47559C9.70208 2.47559 9.08176 2.73702 8.91459 2.97488C8.74767 3.21273 8.38953 3.33155 8.38953 3.33155" stroke="#D97122" stroke-width="0.484848" stroke-miterlimit="10" stroke-linecap="round" stroke-linejoin="round"/>
<path d="M10.795 3.01526C10.795 3.31334 10.5409 3.55516 10.2272 3.55516C9.91375 3.55516 9.65942 3.31357 9.65942 3.01526C9.65942 2.71718 9.9135 2.47559 10.2272 2.47559C10.5409 2.47535 10.795 2.71718 10.795 3.01526Z" stroke="#D97122" stroke-width="0.484848" stroke-miterlimit="10" stroke-linecap="round" stroke-linejoin="round"/>
<path d="M8.21497 2.80251C8.21497 2.80251 8.90867 2.21405 9.22755 2.03572C9.54617 1.85738 10.4316 1.76821 10.7951 1.92881C11.1587 2.0894 11.8337 2.80251 11.8337 2.80251" stroke="#D97122" stroke-width="0.484848" stroke-miterlimit="10" stroke-linecap="round" stroke-linejoin="round"/>
<path d="M7.91538 6.08252C7.91538 6.08252 8.34667 6.43919 8.2529 6.92051C8.15913 7.40183 7.65297 7.34837 7.29654 7.36634C6.94036 7.38408 6.75282 7.81218 6.35908 7.79421C5.96534 7.81195 5.77779 7.38408 5.42161 7.36634C5.06543 7.34837 4.55902 7.40206 4.46524 6.92051C4.37147 6.43896 4.80277 6.08252 4.80277 6.08252" stroke="#D97122" stroke-width="0.484848" stroke-miterlimit="10" stroke-linecap="round" stroke-linejoin="round"/>
<path d="M5.92739 7.04514C5.92739 7.04514 5.55229 6.88457 5.70227 6.24298C5.85226 5.60115 6.05847 5.74376 6.05847 4.72781C6.05847 3.71162 6.05847 2.47559 6.05847 2.47559" stroke="#D97122" stroke-width="0.484848" stroke-miterlimit="10" stroke-linecap="round" stroke-linejoin="round"/>
<path d="M8.47701 9.19259C8.47701 9.19259 8.00888 9.24452 7.70818 9.23119C7.40772 9.21785 7.27491 9.13903 7.04981 9.14791C6.59986 9.16569 6.62073 9.30861 6.35807 9.31773C6.09566 9.30884 6.11653 9.16592 5.66633 9.14791C5.44123 9.13903 5.30842 9.21785 5.00796 9.23119C4.7075 9.24452 4.23914 9.19259 4.23914 9.19259" stroke="#D97122" stroke-width="0.484848" stroke-miterlimit="10" stroke-linecap="round" stroke-linejoin="round"/>
<path d="M7.50241 8.88146C7.50241 8.88146 7.03381 8.64967 6.90248 8.68538C6.77115 8.72109 6.35875 9.00634 6.35875 9.00634C6.35875 9.00634 5.94636 8.72109 5.81503 8.68538C5.6837 8.64967 5.21509 8.88146 5.21509 8.88146" stroke="#D97122" stroke-width="0.484848" stroke-miterlimit="10" stroke-linecap="round" stroke-linejoin="round"/>
<path d="M7.78415 9.4873C7.78415 9.4873 6.94046 10.0223 6.35918 10.0223C5.7779 10.0223 4.9342 9.4873 4.9342 9.4873" stroke="#D97122" stroke-width="0.484848" stroke-miterlimit="10" stroke-linecap="round" stroke-linejoin="round"/>
<path d="M7.78333 0.930509C7.78333 0.930509 9.37718 -0.567128 12.2271 0.930509" stroke="#D97122" stroke-width="0.484848" stroke-miterlimit="10" stroke-linecap="round" stroke-linejoin="round"/>
<path d="M0.933472 3.33155C0.933472 3.33155 1.29138 3.21273 1.45855 2.97488C1.62547 2.73725 2.24603 2.47559 2.77109 2.47559C3.29616 2.47559 3.91647 2.73702 4.08364 2.97488C4.25081 3.21273 4.60872 3.33155 4.60872 3.33155" stroke="#D97122" stroke-width="0.484848" stroke-miterlimit="10" stroke-linecap="round" stroke-linejoin="round"/>
<path d="M2.2041 3.01526C2.2041 3.31334 2.45816 3.55516 2.77188 3.55516C3.08535 3.55516 3.33966 3.31357 3.33966 3.01526C3.33966 2.71718 3.0856 2.47559 2.77188 2.47559C2.45841 2.47535 2.2041 2.71718 2.2041 3.01526Z" stroke="#D97122" stroke-width="0.484848" stroke-miterlimit="10" stroke-linecap="round" stroke-linejoin="round"/>
<path d="M4.78369 2.80251C4.78369 2.80251 4.08998 2.21405 3.77111 2.03572C3.45224 1.85738 2.56707 1.76821 2.20352 1.92881C1.83997 2.0894 1.16492 2.80251 1.16492 2.80251" stroke="#D97122" stroke-width="0.484848" stroke-miterlimit="10" stroke-linecap="round" stroke-linejoin="round"/>
<path d="M5.21445 0.930509C5.21445 0.930509 3.62083 -0.567128 0.77063 0.930509" stroke="#D97122" stroke-width="0.484848" stroke-miterlimit="10" stroke-linecap="round" stroke-linejoin="round"/>
</svg>
