<svg width="45" height="43" viewBox="0 0 45 43" fill="none" xmlns="http://www.w3.org/2000/svg">
<path d="M23.7784 12.7802C23.6412 9.47652 23.3167 6.18944 22.8059 2.94531L22.4995 1L22.1932 2.94531C21.6823 6.18944 21.3578 9.47628 21.2206 12.7802C21.6389 12.7251 22.0653 12.6945 22.4995 12.6945C22.9337 12.6945 23.3601 12.7251 23.7784 12.7802Z" stroke="#D97122" stroke-width="0.484848" stroke-miterlimit="10" stroke-linecap="round" stroke-linejoin="round"/>
<path d="M21.2218 30.22C21.359 33.5236 21.6835 36.8107 22.1944 40.0548L22.5007 42.0001L22.8071 40.0548C23.3179 36.8107 23.6424 33.5238 23.7796 30.22C23.3613 30.2751 22.935 30.3056 22.5007 30.3056C22.0665 30.3056 21.6401 30.2751 21.2218 30.22Z" stroke="#D97122" stroke-width="0.484848" stroke-miterlimit="10" stroke-linecap="round" stroke-linejoin="round"/>
<path d="M31.6713 22.7157C35.1459 22.5855 38.6032 22.2769 42.0153 21.7909L44.0613 21.4996L42.0153 21.2083C38.6032 20.7225 35.1462 20.4139 31.6713 20.2834C31.7292 20.6812 31.7614 21.0867 31.7614 21.4996C31.7614 21.9125 31.729 22.318 31.6713 22.7157Z" stroke="#D97122" stroke-width="0.484848" stroke-miterlimit="10" stroke-linecap="round" stroke-linejoin="round"/>
<path d="M13.3282 20.2852C9.85347 20.4156 6.39647 20.7242 2.98414 21.21L0.93811 21.5013L2.98414 21.7926C6.39623 22.2783 9.85323 22.5869 13.3282 22.7174C13.2702 22.3197 13.2381 21.9142 13.2381 21.5013C13.2383 21.0886 13.2705 20.6829 13.3282 20.2852Z" stroke="#D97122" stroke-width="0.484848" stroke-miterlimit="10" stroke-linecap="round" stroke-linejoin="round"/>
<path d="M18.7728 10.1269C17.4549 9.52642 16.1919 8.18699 15.9077 6.89027C15.6234 5.59355 15.2054 3.70215 13.3304 3.76213C13.3304 3.76213 14.929 4.75288 14.8737 6.43469C14.8354 7.60538 14.2974 9.04587 15.2763 10.0366C16.255 11.0274 17.1667 11.953 17.1667 13.0387C17.1667 13.9993 16.773 14.5817 16.773 14.5817L16.7801 14.5789C18.0386 13.6367 19.5593 12.9986 21.2222 12.7799C21.2219 12.7803 20.4416 10.8873 18.7728 10.1269Z" stroke="#D97122" stroke-width="0.484848" stroke-miterlimit="10" stroke-linecap="round" stroke-linejoin="round"/>
<path d="M26.2284 10.1269C27.5463 9.52642 28.8093 8.18699 29.0936 6.89027C29.3778 5.59355 29.7961 3.70215 31.6708 3.76213C31.6708 3.76213 30.0723 4.75288 30.1275 6.43469C30.1658 7.60538 30.7039 9.04587 29.7252 10.0366C28.7462 11.0274 27.8348 11.953 27.8348 13.0387C27.8348 13.9993 28.2285 14.5817 28.2285 14.5817L28.2214 14.5789C26.9628 13.6367 25.4421 12.9986 23.7793 12.7799C23.7793 12.7803 24.5597 10.8873 26.2284 10.1269Z" stroke="#D97122" stroke-width="0.484848" stroke-miterlimit="10" stroke-linecap="round" stroke-linejoin="round"/>
<path d="M26.228 32.859C27.546 33.4595 28.8089 34.799 29.0932 36.0957C29.3774 37.3924 29.7957 39.2838 31.6707 39.2238C31.6707 39.2238 30.0721 38.2331 30.1274 36.5513C30.1657 35.3806 30.7037 33.9399 29.7248 32.9493C28.7458 31.9586 27.8344 31.033 27.8344 29.9472C27.8344 28.9866 28.2281 28.4043 28.2281 28.4043L28.221 28.4071C26.9625 29.3493 25.4418 29.9874 23.7789 30.2061C23.7787 30.2056 24.559 32.0986 26.228 32.859Z" stroke="#D97122" stroke-width="0.484848" stroke-miterlimit="10" stroke-linecap="round" stroke-linejoin="round"/>
<path d="M18.7716 32.859C17.4537 33.4595 16.1905 34.799 15.9065 36.0957C15.6222 37.3924 15.2039 39.2838 13.3292 39.2238C13.3292 39.2238 14.9278 38.2331 14.8725 36.5513C14.8342 35.3806 14.2961 33.9399 15.2751 32.9493C16.254 31.9586 17.1655 31.033 17.1655 29.9472C17.1655 28.9866 16.7718 28.4043 16.7718 28.4043L16.7789 28.4071C18.0374 29.3493 19.5581 29.9874 21.221 30.2061C21.2207 30.2056 20.4404 32.0986 18.7716 32.859Z" stroke="#D97122" stroke-width="0.484848" stroke-miterlimit="10" stroke-linecap="round" stroke-linejoin="round"/>
<path d="M16.9181 14.4748C14.3642 12.2307 11.6902 10.1248 8.91614 8.1744L7.25281 7.00488L8.48289 8.58657C10.5343 11.2241 12.7495 13.7664 15.1095 16.1946C15.3643 15.8744 15.6431 15.5661 15.9502 15.2744C16.2573 14.9822 16.5816 14.717 16.9181 14.4748Z" stroke="#D97122" stroke-width="0.484848" stroke-miterlimit="10" stroke-linecap="round" stroke-linejoin="round"/>
<path d="M28.0802 28.525C30.6341 30.7689 33.3081 32.875 36.0822 34.8254L37.7455 35.9952L36.5154 34.4135C34.464 31.7759 32.2488 29.2336 29.8888 26.8054C29.634 27.1256 29.3552 27.4339 29.0481 27.7257C28.741 28.0176 28.4167 28.2828 28.0802 28.525Z" stroke="#D97122" stroke-width="0.484848" stroke-miterlimit="10" stroke-linecap="round" stroke-linejoin="round"/>
<path d="M29.888 16.1934C32.2482 13.7652 34.4631 11.2229 36.5146 8.58536L37.7446 7.00391L36.0813 8.17343C33.3072 10.1239 30.6333 12.23 28.0793 14.4738C28.4161 14.7161 28.7404 14.9812 29.0473 15.2732C29.3544 15.5649 29.633 15.8735 29.888 16.1934Z" stroke="#D97122" stroke-width="0.484848" stroke-miterlimit="10" stroke-linecap="round" stroke-linejoin="round"/>
<path d="M15.1107 26.8064C12.7504 29.2346 10.5355 31.7769 8.48409 34.4145L7.25403 35.9959L8.9176 34.8264C11.6917 32.876 14.3657 30.7698 16.9196 28.526C16.5828 28.2838 16.2585 28.0186 15.9517 27.7267C15.6443 27.4349 15.3655 27.1266 15.1107 26.8064Z" stroke="#D97122" stroke-width="0.484848" stroke-miterlimit="10" stroke-linecap="round" stroke-linejoin="round"/>
<path d="M34.4551 17.9484C35.0867 16.6953 36.4955 15.4946 37.8594 15.2243C39.2232 14.954 41.2125 14.5563 41.1494 12.7737C41.1494 12.7737 40.1074 14.2935 38.3385 14.241C37.1072 14.2046 35.5922 13.693 34.5501 14.6238C33.5081 15.5543 32.5345 16.4211 31.3923 16.4211C30.382 16.4211 29.7695 16.0468 29.7695 16.0468L29.7725 16.0535C30.7634 17.2501 31.4346 18.696 31.6646 20.277C31.6643 20.277 33.6554 19.5352 34.4551 17.9484Z" stroke="#D97122" stroke-width="0.484848" stroke-miterlimit="10" stroke-linecap="round" stroke-linejoin="round"/>
<path d="M34.4552 25.0378C35.0869 26.2908 36.4956 27.4916 37.8595 27.7619C39.2233 28.0322 41.2126 28.4299 41.1496 30.2123C41.1496 30.2123 40.1075 28.6924 38.3386 28.7449C37.1073 28.7814 35.5923 29.2929 34.5503 28.3624C33.5082 27.4317 32.5347 26.5651 31.3925 26.5651C30.3821 26.5651 29.7697 26.9394 29.7697 26.9394L29.7726 26.9327C30.7636 25.7363 31.4347 24.2902 31.6647 22.7092C31.6645 22.709 33.6555 23.4509 34.4552 25.0378Z" stroke="#D97122" stroke-width="0.484848" stroke-miterlimit="10" stroke-linecap="round" stroke-linejoin="round"/>
<path d="M10.5462 25.037C9.91464 26.2901 8.50587 27.4909 7.14202 27.7612C5.77816 28.0314 3.78884 28.4291 3.85193 30.2115C3.85193 30.2115 4.89396 28.6917 6.66285 28.7442C7.89414 28.7806 9.4092 29.2922 10.4512 28.3617C11.4933 27.4309 12.4668 26.5643 13.609 26.5643C14.6194 26.5643 15.2319 26.9387 15.2319 26.9387L15.2289 26.9319C14.2379 25.7353 13.5668 24.2895 13.3368 22.7085C13.3368 22.7085 11.3458 23.4502 10.5462 25.037Z" stroke="#D97122" stroke-width="0.484848" stroke-miterlimit="10" stroke-linecap="round" stroke-linejoin="round"/>
<path d="M10.5462 17.9477C9.91464 16.6946 8.50587 15.4938 7.14202 15.2236C5.77816 14.9533 3.78884 14.5556 3.85193 12.7729C3.85193 12.7729 4.89396 14.2928 6.66285 14.2403C7.89414 14.2039 9.4092 13.6923 10.4512 14.623C11.4933 15.5538 12.4668 16.4204 13.609 16.4204C14.6194 16.4204 15.2319 16.046 15.2319 16.046L15.2289 16.0528C14.2379 17.2494 13.5668 18.6952 13.3368 20.2762C13.3368 20.2765 11.3458 19.5345 10.5462 17.9477Z" stroke="#D97122" stroke-width="0.484848" stroke-miterlimit="10" stroke-linecap="round" stroke-linejoin="round"/>
</svg>
