<svg width="206" height="66" viewBox="0 0 206 66" fill="none" xmlns="http://www.w3.org/2000/svg">
<g filter="url(#filter0_d_1_22633)">
<g filter="url(#filter1_b_1_22633)">
<rect width="195.563" height="57.1645" rx="8.27381" transform="matrix(-1 0 0 1 200.125 4.32892)" fill="#FCFCFC"/>
<rect x="-0.5" y="0.5" width="194.563" height="56.1645" rx="7.77381" transform="matrix(-1 0 0 1 199.125 4.32892)" stroke="#A95210"/>
</g>
<path d="M145.349 61.846L192.736 61.846C197.305 61.846 201.01 58.1417 201.01 53.5722V12.9553C201.01 8.38582 197.305 4.68152 192.736 4.68152L145.349 4.68152V61.846Z" fill="#A95210"/>
<path d="M29.405 25.3365H31.114C31.0593 25.9882 30.877 26.5692 30.5671 27.0797C30.2572 27.5855 29.822 27.9843 29.2615 28.2759C28.7009 28.5676 28.0196 28.7134 27.2175 28.7134C26.6023 28.7134 26.0486 28.6041 25.5564 28.3853C25.0642 28.162 24.6427 27.8476 24.2917 27.442C23.9408 27.0318 23.672 26.5373 23.4851 25.9586C23.3028 25.3798 23.2117 24.7326 23.2117 24.0172V23.19C23.2117 22.4745 23.3051 21.8274 23.4919 21.2486C23.6833 20.6698 23.9568 20.1754 24.3123 19.7652C24.6677 19.3505 25.0938 19.0338 25.5906 18.815C26.0919 18.5963 26.6547 18.4869 27.2791 18.4869C28.072 18.4869 28.7419 18.6327 29.2888 18.9244C29.8357 19.216 30.2595 19.6194 30.5603 20.1343C30.8656 20.6493 31.0525 21.2395 31.1208 21.9048H29.4119C29.3663 21.4765 29.266 21.1096 29.1111 20.8043C28.9607 20.4989 28.7374 20.2665 28.4412 20.107C28.1449 19.9429 27.7576 19.8609 27.2791 19.8609C26.8871 19.8609 26.5453 19.9338 26.2537 20.0797C25.962 20.2255 25.7182 20.4397 25.5222 20.7222C25.3263 21.0048 25.1781 21.3534 25.0779 21.7681C24.9822 22.1783 24.9343 22.6477 24.9343 23.1763V24.0172C24.9343 24.5185 24.9776 24.9742 25.0642 25.3843C25.1554 25.7899 25.2921 26.1386 25.4744 26.4302C25.6612 26.7219 25.8982 26.9475 26.1853 27.107C26.4724 27.2665 26.8165 27.3463 27.2175 27.3463C27.7052 27.3463 28.0994 27.2688 28.4001 27.1138C28.7055 26.9589 28.9356 26.7333 29.0906 26.4371C29.2501 26.1363 29.3549 25.7694 29.405 25.3365ZM35.3255 18.0767V28.5767H33.6849V18.0767H35.3255ZM35.0384 24.605L34.5052 24.5982C34.5097 24.0878 34.5804 23.6161 34.7171 23.1832C34.8584 22.7502 35.0543 22.3742 35.305 22.0552C35.5602 21.7317 35.8655 21.4833 36.221 21.3101C36.5765 21.1324 36.9707 21.0435 37.4036 21.0435C37.7682 21.0435 38.0963 21.0936 38.388 21.1939C38.6842 21.2942 38.9394 21.456 39.1536 21.6793C39.3678 21.898 39.5296 22.1851 39.639 22.5406C39.7529 22.8915 39.8099 23.3199 39.8099 23.8257V28.5767H38.1556V23.8121C38.1556 23.4566 38.1032 23.1741 37.9984 22.9644C37.8981 22.7548 37.75 22.6044 37.554 22.5132C37.3581 22.4175 37.1188 22.3697 36.8362 22.3697C36.54 22.3697 36.278 22.4289 36.0501 22.5474C35.8268 22.6659 35.64 22.8277 35.4896 23.0328C35.3392 23.2379 35.2252 23.4748 35.1478 23.7437C35.0748 24.0126 35.0384 24.2997 35.0384 24.605ZM44.4315 21.1802V28.5767H42.7772V21.1802H44.4315ZM42.6678 19.2388C42.6678 18.9882 42.7499 18.7808 42.9139 18.6168C43.0826 18.4481 43.315 18.3638 43.6112 18.3638C43.9029 18.3638 44.133 18.4481 44.3016 18.6168C44.4703 18.7808 44.5546 18.9882 44.5546 19.2388C44.5546 19.4849 44.4703 19.69 44.3016 19.8541C44.133 20.0181 43.9029 20.1002 43.6112 20.1002C43.315 20.1002 43.0826 20.0181 42.9139 19.8541C42.7499 19.69 42.6678 19.4849 42.6678 19.2388ZM49.1899 18.0767V28.5767H47.5356V18.0767H49.1899ZM56.6963 27.0455V18.0767H58.3506V28.5767H56.8535L56.6963 27.0455ZM51.8838 24.9605V24.817C51.8838 24.2564 51.9499 23.746 52.082 23.2857C52.2142 22.8209 52.4056 22.4221 52.6562 22.0894C52.9069 21.7522 53.2122 21.4947 53.5723 21.317C53.9323 21.1347 54.3379 21.0435 54.7891 21.0435C55.2357 21.0435 55.6276 21.1301 55.9648 21.3033C56.3021 21.4765 56.5892 21.7248 56.8262 22.0484C57.0631 22.3674 57.2523 22.7502 57.3935 23.1968C57.5348 23.6389 57.6351 24.1311 57.6943 24.6734V25.1314C57.6351 25.6601 57.5348 26.1431 57.3935 26.5806C57.2523 27.0181 57.0631 27.3964 56.8262 27.7154C56.5892 28.0344 56.2998 28.2805 55.958 28.4537C55.6208 28.6269 55.2266 28.7134 54.7754 28.7134C54.3288 28.7134 53.9254 28.62 53.5654 28.4332C53.21 28.2463 52.9069 27.9843 52.6562 27.647C52.4056 27.3098 52.2142 26.9133 52.082 26.4576C51.9499 25.9973 51.8838 25.4983 51.8838 24.9605ZM53.5312 24.817V24.9605C53.5312 25.2977 53.5609 25.6122 53.6201 25.9039C53.6839 26.1955 53.7819 26.453 53.9141 26.6763C54.0462 26.8951 54.2171 27.0683 54.4267 27.1959C54.6409 27.3189 54.8961 27.3804 55.1924 27.3804C55.5661 27.3804 55.8737 27.2984 56.1152 27.1343C56.3568 26.9703 56.5459 26.7492 56.6826 26.4713C56.8239 26.1887 56.9196 25.8742 56.9697 25.5279V24.2906C56.9424 24.0217 56.8854 23.7711 56.7988 23.5386C56.7168 23.3062 56.6051 23.1034 56.4639 22.9302C56.3226 22.7525 56.1471 22.6158 55.9375 22.5201C55.7324 22.4198 55.4886 22.3697 55.206 22.3697C54.9053 22.3697 54.6501 22.4335 54.4404 22.5611C54.2308 22.6887 54.0576 22.8642 53.9209 23.0875C53.7887 23.3108 53.6907 23.5705 53.6269 23.8668C53.5631 24.163 53.5312 24.4797 53.5312 24.817ZM69.836 24.0787H67.2999L67.2862 22.8277H69.5011C69.8748 22.8277 70.1915 22.773 70.4513 22.6636C70.7156 22.5497 70.9161 22.3879 71.0528 22.1783C71.1896 21.9641 71.2579 21.7066 71.2579 21.4058C71.2579 21.0731 71.1941 20.802 71.0665 20.5923C70.9389 20.3827 70.7429 20.23 70.4786 20.1343C70.2189 20.0386 69.8862 19.9908 69.4806 19.9908H67.8194V28.5767H66.1036V18.6236H69.4806C70.0275 18.6236 70.5151 18.676 70.9435 18.7808C71.3764 18.8856 71.7433 19.0497 72.0441 19.273C72.3494 19.4918 72.5795 19.7698 72.7345 20.107C72.894 20.4442 72.9737 20.8453 72.9737 21.3101C72.9737 21.7203 72.8758 22.0963 72.6798 22.438C72.4838 22.7753 72.1944 23.051 71.8116 23.2652C71.4288 23.4794 70.9526 23.607 70.3829 23.648L69.836 24.0787ZM69.7608 28.5767H66.7599L67.5323 27.2164H69.7608C70.1482 27.2164 70.4718 27.1526 70.7316 27.025C70.9913 26.8928 71.185 26.7128 71.3126 26.4849C71.4448 26.2525 71.5108 25.9813 71.5108 25.6714C71.5108 25.3479 71.4539 25.0676 71.34 24.8306C71.226 24.5891 71.046 24.4045 70.7999 24.2769C70.5538 24.1448 70.2325 24.0787 69.836 24.0787H67.9083L67.922 22.8277H70.4308L70.8204 23.2994C71.3673 23.3176 71.8162 23.4384 72.1671 23.6617C72.5226 23.885 72.7869 24.1744 72.9601 24.5298C73.1332 24.8853 73.2198 25.2681 73.2198 25.6783C73.2198 26.3117 73.0808 26.8427 72.8028 27.2711C72.5294 27.6994 72.1352 28.0253 71.6202 28.2486C71.1053 28.4673 70.4855 28.5767 69.7608 28.5767ZM77.7389 21.1802V28.5767H76.0846V21.1802H77.7389ZM75.9753 19.2388C75.9753 18.9882 76.0573 18.7808 76.2214 18.6168C76.39 18.4481 76.6224 18.3638 76.9186 18.3638C77.2103 18.3638 77.4404 18.4481 77.6091 18.6168C77.7777 18.7808 77.862 18.9882 77.862 19.2388C77.862 19.4849 77.7777 19.69 77.6091 19.8541C77.4404 20.0181 77.2103 20.1002 76.9186 20.1002C76.6224 20.1002 76.39 20.0181 76.2214 19.8541C76.0573 19.69 75.9753 19.4849 75.9753 19.2388ZM82.3879 22.5884V28.5767H80.7405V21.1802H82.3127L82.3879 22.5884ZM84.6506 21.1324L84.6369 22.6636C84.5367 22.6454 84.4273 22.6317 84.3088 22.6226C84.1949 22.6135 84.081 22.6089 83.967 22.6089C83.6845 22.6089 83.4361 22.65 83.2219 22.732C83.0077 22.8095 82.8277 22.9234 82.6819 23.0738C82.5406 23.2196 82.4312 23.3974 82.3537 23.607C82.2763 23.8166 82.2307 24.0513 82.217 24.3111L81.841 24.3384C81.841 23.8736 81.8866 23.4429 81.9778 23.0464C82.0689 22.65 82.2056 22.3013 82.3879 22.0005C82.5748 21.6998 82.8072 21.4651 83.0852 21.2964C83.3677 21.1278 83.6936 21.0435 84.0627 21.0435C84.163 21.0435 84.2701 21.0526 84.384 21.0709C84.5025 21.0891 84.5914 21.1096 84.6506 21.1324ZM90.6053 21.1802V22.3834H86.4353V21.1802H90.6053ZM87.6385 19.3687H89.2859V26.5328C89.2859 26.7606 89.3178 26.9361 89.3816 27.0591C89.45 27.1776 89.5434 27.2574 89.6619 27.2984C89.7804 27.3394 89.9194 27.3599 90.0789 27.3599C90.1928 27.3599 90.3022 27.3531 90.407 27.3394C90.5118 27.3257 90.5961 27.3121 90.66 27.2984L90.6668 28.5562C90.5301 28.5972 90.3706 28.6337 90.1883 28.6656C90.0105 28.6975 89.8055 28.7134 89.573 28.7134C89.1948 28.7134 88.8598 28.6474 88.5682 28.5152C88.2765 28.3785 88.0486 28.1575 87.8846 27.8521C87.7205 27.5468 87.6385 27.1412 87.6385 26.6353V19.3687ZM94.6937 18.0767V28.5767H93.0531V18.0767H94.6937ZM94.4066 24.605L93.8734 24.5982C93.8779 24.0878 93.9486 23.6161 94.0853 23.1832C94.2266 22.7502 94.4225 22.3742 94.6732 22.0552C94.9284 21.7317 95.2337 21.4833 95.5892 21.3101C95.9447 21.1324 96.3389 21.0435 96.7718 21.0435C97.1364 21.0435 97.4645 21.0936 97.7562 21.1939C98.0524 21.2942 98.3076 21.456 98.5218 21.6793C98.736 21.898 98.8978 22.1851 99.0072 22.5406C99.1211 22.8915 99.1781 23.3199 99.1781 23.8257V28.5767H97.5238V23.8121C97.5238 23.4566 97.4714 23.1741 97.3666 22.9644C97.2663 22.7548 97.1182 22.6044 96.9222 22.5132C96.7263 22.4175 96.487 22.3697 96.2044 22.3697C95.9082 22.3697 95.6462 22.4289 95.4183 22.5474C95.195 22.6659 95.0082 22.8277 94.8578 23.0328C94.7074 23.2379 94.5934 23.4748 94.516 23.7437C94.4431 24.0126 94.4066 24.2997 94.4066 24.605ZM25.3582 38.6236V48.5767H23.6423V38.6236H25.3582ZM32.6663 46.5738C32.6663 46.4097 32.6253 46.2616 32.5433 46.1295C32.4612 45.9927 32.304 45.8697 32.0716 45.7603C31.8437 45.6509 31.5065 45.5507 31.0599 45.4595C30.6679 45.3729 30.3079 45.2704 29.9798 45.1519C29.6562 45.0289 29.3782 44.8808 29.1458 44.7076C28.9134 44.5344 28.7334 44.3293 28.6058 44.0923C28.4782 43.8554 28.4144 43.5819 28.4144 43.272C28.4144 42.9713 28.4804 42.6864 28.6126 42.4175C28.7448 42.1487 28.9339 41.9117 29.18 41.7066C29.4261 41.5015 29.7246 41.3397 30.0755 41.2213C30.431 41.1028 30.8275 41.0435 31.265 41.0435C31.8847 41.0435 32.4157 41.1483 32.8577 41.358C33.3043 41.563 33.6461 41.8433 33.8831 42.1988C34.1201 42.5497 34.2386 42.9462 34.2386 43.3882H32.5911C32.5911 43.1923 32.541 43.01 32.4407 42.8414C32.345 42.6682 32.1992 42.5292 32.0032 42.4244C31.8073 42.315 31.5612 42.2603 31.265 42.2603C30.9824 42.2603 30.7477 42.3059 30.5608 42.397C30.3786 42.4836 30.2418 42.5976 30.1507 42.7388C30.0641 42.8801 30.0208 43.0351 30.0208 43.2037C30.0208 43.3267 30.0436 43.4384 30.0892 43.5386C30.1393 43.6343 30.2213 43.7232 30.3353 43.8052C30.4492 43.8827 30.6041 43.9556 30.8001 44.024C31.0006 44.0923 31.2513 44.1584 31.5521 44.2222C32.1172 44.3407 32.6025 44.4934 33.0081 44.6802C33.4183 44.8625 33.7327 45.0995 33.9515 45.3912C34.1702 45.6783 34.2796 46.0429 34.2796 46.4849C34.2796 46.813 34.209 47.1138 34.0677 47.3873C33.931 47.6561 33.7304 47.8908 33.4661 48.0914C33.2018 48.2873 32.8851 48.44 32.5159 48.5494C32.1513 48.6588 31.7412 48.7134 31.2855 48.7134C30.6155 48.7134 30.0482 48.595 29.5833 48.358C29.1185 48.1164 28.7653 47.8088 28.5237 47.4351C28.2868 47.0569 28.1683 46.6649 28.1683 46.2593H29.761C29.7793 46.5647 29.8636 46.8085 30.014 46.9908C30.1689 47.1685 30.3603 47.2984 30.5882 47.3804C30.8206 47.4579 31.0599 47.4966 31.306 47.4966C31.6022 47.4966 31.8506 47.4579 32.0511 47.3804C32.2516 47.2984 32.4043 47.189 32.5091 47.0523C32.6139 46.911 32.6663 46.7515 32.6663 46.5738ZM41.0614 46.5738C41.0614 46.4097 41.0204 46.2616 40.9383 46.1295C40.8563 45.9927 40.6991 45.8697 40.4667 45.7603C40.2388 45.6509 39.9016 45.5507 39.455 45.4595C39.063 45.3729 38.703 45.2704 38.3749 45.1519C38.0513 45.0289 37.7733 44.8808 37.5409 44.7076C37.3085 44.5344 37.1285 44.3293 37.0008 44.0923C36.8732 43.8554 36.8094 43.5819 36.8094 43.272C36.8094 42.9713 36.8755 42.6864 37.0077 42.4175C37.1398 42.1487 37.329 41.9117 37.5751 41.7066C37.8212 41.5015 38.1197 41.3397 38.4706 41.2213C38.826 41.1028 39.2225 41.0435 39.66 41.0435C40.2798 41.0435 40.8107 41.1483 41.2528 41.358C41.6994 41.563 42.0412 41.8433 42.2782 42.1988C42.5152 42.5497 42.6337 42.9462 42.6337 43.3882H40.9862C40.9862 43.1923 40.9361 43.01 40.8358 42.8414C40.7401 42.6682 40.5943 42.5292 40.3983 42.4244C40.2023 42.315 39.9563 42.2603 39.66 42.2603C39.3775 42.2603 39.1428 42.3059 38.9559 42.397C38.7736 42.4836 38.6369 42.5976 38.5458 42.7388C38.4592 42.8801 38.4159 43.0351 38.4159 43.2037C38.4159 43.3267 38.4387 43.4384 38.4842 43.5386C38.5344 43.6343 38.6164 43.7232 38.7303 43.8052C38.8443 43.8827 38.9992 43.9556 39.1952 44.024C39.3957 44.0923 39.6464 44.1584 39.9471 44.2222C40.5122 44.3407 40.9976 44.4934 41.4032 44.6802C41.8133 44.8625 42.1278 45.0995 42.3466 45.3912C42.5653 45.6783 42.6747 46.0429 42.6747 46.4849C42.6747 46.813 42.604 47.1138 42.4628 47.3873C42.326 47.6561 42.1255 47.8908 41.8612 48.0914C41.5969 48.2873 41.2801 48.44 40.911 48.5494C40.5464 48.6588 40.1363 48.7134 39.6805 48.7134C39.0106 48.7134 38.4432 48.595 37.9784 48.358C37.5135 48.1164 37.1604 47.8088 36.9188 47.4351C36.6818 47.0569 36.5633 46.6649 36.5633 46.2593H38.1561C38.1744 46.5647 38.2587 46.8085 38.4091 46.9908C38.564 47.1685 38.7554 47.2984 38.9833 47.3804C39.2157 47.4579 39.455 47.4966 39.701 47.4966C39.9973 47.4966 40.2456 47.4579 40.4462 47.3804C40.6467 47.2984 40.7994 47.189 40.9042 47.0523C41.009 46.911 41.0614 46.7515 41.0614 46.5738ZM49.7573 46.8336V41.1802H51.4116V48.5767H49.853L49.7573 46.8336ZM49.9897 45.2955L50.5434 45.2818C50.5434 45.7785 50.4887 46.2366 50.3793 46.6558C50.27 47.0705 50.1013 47.4328 49.8735 47.7427C49.6456 48.0481 49.3539 48.2873 48.9985 48.4605C48.643 48.6291 48.2169 48.7134 47.7201 48.7134C47.3601 48.7134 47.0297 48.661 46.7289 48.5562C46.4282 48.4514 46.1684 48.2896 45.9496 48.0709C45.7354 47.8521 45.5691 47.5673 45.4506 47.2164C45.3321 46.8655 45.2729 46.4462 45.2729 45.9586V41.1802H46.9203V45.9722C46.9203 46.2411 46.9522 46.4667 47.016 46.649C47.0798 46.8267 47.1664 46.9703 47.2758 47.0797C47.3852 47.189 47.5128 47.2665 47.6586 47.3121C47.8045 47.3576 47.9594 47.3804 48.1235 47.3804C48.5929 47.3804 48.962 47.2893 49.2309 47.107C49.5043 46.9201 49.698 46.6695 49.8119 46.355C49.9304 46.0406 49.9897 45.6874 49.9897 45.2955ZM57.5508 48.7134C57.0039 48.7134 56.5094 48.6246 56.0674 48.4468C55.6299 48.2645 55.2562 48.0116 54.9463 47.688C54.6409 47.3645 54.4062 46.9839 54.2422 46.5464C54.0781 46.1089 53.9961 45.6373 53.9961 45.1314V44.858C53.9961 44.2792 54.0804 43.7551 54.249 43.2857C54.4176 42.8163 54.6523 42.4153 54.9531 42.0826C55.2539 41.7453 55.6094 41.4879 56.0195 41.3101C56.4297 41.1324 56.874 41.0435 57.3525 41.0435C57.8812 41.0435 58.3437 41.1324 58.7402 41.3101C59.1367 41.4879 59.4648 41.7385 59.7246 42.0621C59.9889 42.3811 60.1849 42.7616 60.3125 43.2037C60.4447 43.6457 60.5107 44.1334 60.5107 44.6666V45.3707H54.7959V44.188H58.8838V44.0582C58.8747 43.7619 58.8154 43.4839 58.706 43.2242C58.6012 42.9644 58.4394 42.7548 58.2207 42.5953C58.0019 42.4358 57.7103 42.356 57.3457 42.356C57.0723 42.356 56.8284 42.4153 56.6142 42.5338C56.4046 42.6477 56.2292 42.814 56.0879 43.0328C55.9466 43.2515 55.8372 43.5158 55.7598 43.8257C55.6868 44.1311 55.6504 44.4752 55.6504 44.858V45.1314C55.6504 45.455 55.6937 45.7558 55.7803 46.0338C55.8714 46.3072 56.0036 46.5464 56.1767 46.7515C56.3499 46.9566 56.5596 47.1184 56.8057 47.2369C57.0517 47.3508 57.332 47.4078 57.6465 47.4078C58.043 47.4078 58.3961 47.328 58.706 47.1685C59.0159 47.009 59.2848 46.7834 59.5127 46.4918L60.3808 47.3326C60.2213 47.565 60.014 47.7883 59.7588 48.0025C59.5036 48.2121 59.1914 48.383 58.8223 48.5152C58.4577 48.6474 58.0338 48.7134 57.5508 48.7134ZM67.1353 46.5738C67.1353 46.4097 67.0943 46.2616 67.0123 46.1295C66.9302 45.9927 66.773 45.8697 66.5406 45.7603C66.3127 45.6509 65.9755 45.5507 65.5289 45.4595C65.1369 45.3729 64.7769 45.2704 64.4488 45.1519C64.1252 45.0289 63.8472 44.8808 63.6148 44.7076C63.3824 44.5344 63.2024 44.3293 63.0748 44.0923C62.9472 43.8554 62.8834 43.5819 62.8834 43.272C62.8834 42.9713 62.9494 42.6864 63.0816 42.4175C63.2138 42.1487 63.4029 41.9117 63.649 41.7066C63.8951 41.5015 64.1936 41.3397 64.5445 41.2213C64.9 41.1028 65.2964 41.0435 65.7339 41.0435C66.3537 41.0435 66.8847 41.1483 67.3267 41.358C67.7733 41.563 68.1151 41.8433 68.3521 42.1988C68.5891 42.5497 68.7076 42.9462 68.7076 43.3882H67.0601C67.0601 43.1923 67.01 43.01 66.9097 42.8414C66.814 42.6682 66.6682 42.5292 66.4722 42.4244C66.2763 42.315 66.0302 42.2603 65.7339 42.2603C65.4514 42.2603 65.2167 42.3059 65.0298 42.397C64.8475 42.4836 64.7108 42.5976 64.6197 42.7388C64.5331 42.8801 64.4898 43.0351 64.4898 43.2037C64.4898 43.3267 64.5126 43.4384 64.5582 43.5386C64.6083 43.6343 64.6903 43.7232 64.8042 43.8052C64.9182 43.8827 65.0731 43.9556 65.2691 44.024C65.4696 44.0923 65.7203 44.1584 66.021 44.2222C66.5861 44.3407 67.0715 44.4934 67.4771 44.6802C67.8873 44.8625 68.2017 45.0995 68.4205 45.3912C68.6392 45.6783 68.7486 46.0429 68.7486 46.4849C68.7486 46.813 68.6779 47.1138 68.5367 47.3873C68.4 47.6561 68.1994 47.8908 67.9351 48.0914C67.6708 48.2873 67.3541 48.44 66.9849 48.5494C66.6203 48.6588 66.2102 48.7134 65.7544 48.7134C65.0845 48.7134 64.5171 48.595 64.0523 48.358C63.5875 48.1164 63.2343 47.8088 62.9927 47.4351C62.7557 47.0569 62.6373 46.6649 62.6373 46.2593H64.23C64.2483 46.5647 64.3326 46.8085 64.483 46.9908C64.6379 47.1685 64.8293 47.2984 65.0572 47.3804C65.2896 47.4579 65.5289 47.4966 65.775 47.4966C66.0712 47.4966 66.3195 47.4579 66.5201 47.3804C66.7206 47.2984 66.8733 47.189 66.9781 47.0523C67.0829 46.911 67.1353 46.7515 67.1353 46.5738Z" fill="#6B6B6B"/>
<path d="M164.53 25.7965H165.535C165.994 27.4205 166.971 28.8503 168.317 29.8686C169.662 30.8869 171.304 31.4379 172.991 31.4379C174.679 31.4379 176.321 30.8869 177.666 29.8686C179.012 28.8503 179.989 27.4205 180.448 25.7965H181.453C182.014 25.7965 182.552 25.5736 182.949 25.1769C183.346 24.7801 183.569 24.2421 183.569 23.681C183.569 23.1199 183.346 22.5819 182.949 22.1851C182.552 21.7884 182.014 21.5655 181.453 21.5655H180.448C179.989 19.9415 179.012 18.5117 177.666 17.4934C176.321 16.4751 174.679 15.9241 172.991 15.9241C171.304 15.9241 169.662 16.4751 168.317 17.4934C166.971 18.5117 165.994 19.9415 165.535 21.5655H164.53C163.969 21.5655 163.431 21.7884 163.034 22.1851C162.637 22.5819 162.414 23.1199 162.414 23.681C162.414 24.2421 162.637 24.7801 163.034 25.1769C163.431 25.5736 163.969 25.7965 164.53 25.7965ZM181.453 22.9758C181.64 22.9758 181.82 23.0501 181.952 23.1824C182.084 23.3146 182.158 23.494 182.158 23.681C182.158 23.868 182.084 24.0474 181.952 24.1796C181.82 24.3119 181.64 24.3862 181.453 24.3862H180.712C180.733 24.1535 180.748 23.9193 180.748 23.681C180.748 23.4427 180.733 23.2085 180.712 22.9758H181.453ZM172.991 17.3346C173.227 17.3353 173.463 17.3492 173.697 17.3762V18.7449C173.697 18.9319 173.622 19.1113 173.49 19.2435C173.358 19.3758 173.179 19.4501 172.991 19.4501C172.804 19.4501 172.625 19.3758 172.493 19.2435C172.361 19.1113 172.286 18.9319 172.286 18.7449H170.876C170.876 19.306 171.099 19.8441 171.496 20.2408C171.892 20.6375 172.43 20.8604 172.991 20.8604C173.553 20.8604 174.091 20.6375 174.487 20.2408C174.884 19.8441 175.107 19.306 175.107 18.7449V17.7048C176.599 18.2391 177.837 19.3139 178.575 20.7169C179.313 22.1198 179.498 23.7486 179.093 25.2811C178.687 26.8137 177.722 28.1383 176.387 28.9931C175.052 29.8479 173.445 30.1706 171.883 29.8974C170.322 29.6241 168.92 28.7748 167.954 27.5174C166.989 26.2601 166.531 24.6862 166.67 23.1072C166.809 21.5281 167.536 20.0588 168.707 18.9899C169.877 17.9209 171.406 17.3303 172.991 17.3346ZM164.53 22.9758H165.271C165.25 23.2085 165.235 23.4427 165.235 23.681C165.235 23.9193 165.25 24.1535 165.271 24.3862H164.53C164.343 24.3862 164.163 24.3119 164.031 24.1796C163.899 24.0474 163.824 23.868 163.824 23.681C163.824 23.494 163.899 23.3146 164.031 23.1824C164.163 23.0501 164.343 22.9758 164.53 22.9758Z" fill="#FCFCFC"/>
<path d="M169.466 23.2686C169.656 23.087 169.908 22.9857 170.171 22.9857C170.434 22.9857 170.686 23.087 170.876 23.2686L171.083 23.4752L172.08 22.4781L171.873 22.2708C171.414 21.8336 170.805 21.5898 170.171 21.5898C169.537 21.5898 168.927 21.8336 168.469 22.2708L168.262 22.4774L169.259 23.4745L169.466 23.2686ZM175.107 23.2686C175.297 23.087 175.549 22.9857 175.812 22.9857C176.075 22.9857 176.327 23.087 176.517 23.2686L176.724 23.4752L177.721 22.4781L177.514 22.2708C177.055 21.8336 176.446 21.5898 175.812 21.5898C175.178 21.5898 174.569 21.8336 174.11 22.2708L173.903 22.4774L174.9 23.4745L175.107 23.2686ZM171.581 26.3367L171.507 26.1872L170.245 26.8169L170.32 26.9664C170.568 27.4624 170.949 27.8796 171.421 28.1712C171.893 28.4627 172.436 28.6172 172.991 28.6172C173.546 28.6172 174.089 28.4627 174.561 28.1712C175.033 27.8796 175.414 27.4624 175.663 26.9664L175.737 26.8176L174.475 26.1872L174.405 26.336C174.274 26.5979 174.072 26.8182 173.823 26.9721C173.574 27.1261 173.287 27.2077 172.994 27.2077C172.701 27.2077 172.414 27.1261 172.165 26.9721C171.916 26.8182 171.715 26.5979 171.584 26.336L171.581 26.3367Z" fill="#FCFCFC"/>
<path d="M186.389 23.5618C186.39 22.1883 186.119 20.8283 185.594 19.5593C185.068 18.2903 184.298 17.1373 183.326 16.1662C182.355 15.195 181.202 14.4247 179.933 13.8992C178.664 13.3737 177.304 13.1034 175.931 13.1037H170.052C168.678 13.1036 167.318 13.3741 166.049 13.8996C164.78 14.4251 163.628 15.1955 162.656 16.1666C161.685 17.1378 160.915 18.2907 160.389 19.5596C159.864 20.8285 159.593 22.1884 159.594 23.5618V43.4253C159.594 46.9787 161.005 50.3865 163.518 52.8991C166.03 55.4117 169.438 56.8232 172.991 56.8232C176.545 56.8232 179.953 55.4117 182.465 52.8991C184.978 50.3865 186.389 46.9787 186.389 43.4253V23.5618ZM162.294 18.9078C163.101 17.5711 164.239 16.4648 165.597 15.6952C166.956 14.9257 168.49 14.5189 170.052 14.514H175.931C177.119 14.5137 178.296 14.7476 179.393 15.2022C180.491 15.6567 181.489 16.3232 182.329 17.1634C183.169 18.0036 183.836 19.0011 184.291 20.099C184.745 21.1969 184.979 22.3735 184.979 23.5618V28.2377L173.062 33.831L161.004 28.1023V23.5618C161.004 21.9219 161.45 20.3129 162.293 18.9064L162.294 18.9078ZM184.979 29.7954V39.4892L174.716 34.6144L184.979 29.7954ZM172.991 55.4129C169.813 55.4094 166.766 54.1453 164.519 51.8979C162.271 49.6506 161.007 46.6035 161.004 43.4253V29.6635L184.979 41.0504V43.4253C184.975 46.6035 183.711 49.6504 181.464 51.8977C179.217 54.145 176.17 55.4092 172.991 55.4129Z" fill="#FCFCFC"/>
</g>
<defs>
<filter id="filter0_d_1_22633" x="0.5625" y="0.328918" width="204.447" height="65.5171" filterUnits="userSpaceOnUse" color-interpolation-filters="sRGB">
<feFlood flood-opacity="0" result="BackgroundImageFix"/>
<feColorMatrix in="SourceAlpha" type="matrix" values="0 0 0 0 0 0 0 0 0 0 0 0 0 0 0 0 0 0 127 0" result="hardAlpha"/>
<feOffset/>
<feGaussianBlur stdDeviation="2"/>
<feComposite in2="hardAlpha" operator="out"/>
<feColorMatrix type="matrix" values="0 0 0 0 0.662745 0 0 0 0 0.321569 0 0 0 0 0.0627451 0 0 0 0.3 0"/>
<feBlend mode="normal" in2="BackgroundImageFix" result="effect1_dropShadow_1_22633"/>
<feBlend mode="normal" in="SourceGraphic" in2="effect1_dropShadow_1_22633" result="shape"/>
</filter>
<filter id="filter1_b_1_22633" x="1.55384" y="1.32026" width="201.58" height="63.1818" filterUnits="userSpaceOnUse" color-interpolation-filters="sRGB">
<feFlood flood-opacity="0" result="BackgroundImageFix"/>
<feGaussianBlur in="BackgroundImageFix" stdDeviation="1.50433"/>
<feComposite in2="SourceAlpha" operator="in" result="effect1_backgroundBlur_1_22633"/>
<feBlend mode="normal" in="SourceGraphic" in2="effect1_backgroundBlur_1_22633" result="shape"/>
</filter>
</defs>
</svg>
