<svg width="204" height="66" viewBox="0 0 204 66" fill="none" xmlns="http://www.w3.org/2000/svg">
<g filter="url(#filter0_d_1_22609)">
<g filter="url(#filter1_b_1_22609)">
<rect width="195.563" height="57.1645" rx="8.27381" transform="matrix(-1 0 0 1 199.563 4.7406)" fill="#FCFCFC"/>
<rect x="-0.5" y="0.5" width="194.563" height="56.1645" rx="7.77381" transform="matrix(-1 0 0 1 198.563 4.7406)" stroke="#A95210"/>
</g>
<path d="M84.9534 28.1584V29.5188H79.6692V28.1584H84.9534ZM80.1545 19.5657V29.5188H78.4387V19.5657H80.1545ZM84.2629 23.7219V25.0618H79.6692V23.7219H84.2629ZM84.9192 19.5657V20.9329H79.6692V19.5657H84.9192ZM91.7557 27.9875V19.0188H93.41V29.5188H91.9129L91.7557 27.9875ZM86.9432 25.9026V25.759C86.9432 25.1985 87.0093 24.6881 87.1414 24.2278C87.2736 23.7629 87.465 23.3642 87.7156 23.0315C87.9663 22.6943 88.2716 22.4368 88.6317 22.259C88.9917 22.0767 89.3973 21.9856 89.8484 21.9856C90.2951 21.9856 90.687 22.0722 91.0242 22.2454C91.3615 22.4185 91.6486 22.6669 91.8856 22.9905C92.1225 23.3095 92.3117 23.6923 92.4529 24.1389C92.5942 24.581 92.6945 25.0732 92.7537 25.6155V26.0735C92.6945 26.6021 92.5942 27.0852 92.4529 27.5227C92.3117 27.9602 92.1225 28.3385 91.8856 28.6575C91.6486 28.9765 91.3592 29.2226 91.0174 29.3958C90.6802 29.5689 90.2859 29.6555 89.8348 29.6555C89.3882 29.6555 88.9848 29.5621 88.6248 29.3752C88.2693 29.1884 87.9663 28.9264 87.7156 28.5891C87.465 28.2519 87.2736 27.8554 87.1414 27.3997C87.0093 26.9394 86.9432 26.4403 86.9432 25.9026ZM88.5906 25.759V25.9026C88.5906 26.2398 88.6203 26.5543 88.6795 26.8459C88.7433 27.1376 88.8413 27.3951 88.9734 27.6184C89.1056 27.8372 89.2765 28.0103 89.4861 28.1379C89.7003 28.261 89.9555 28.3225 90.2518 28.3225C90.6255 28.3225 90.9331 28.2405 91.1746 28.0764C91.4162 27.9124 91.6053 27.6913 91.742 27.4133C91.8833 27.1308 91.979 26.8163 92.0291 26.47V25.2327C92.0018 24.9638 91.9448 24.7131 91.8582 24.4807C91.7762 24.2483 91.6645 24.0455 91.5233 23.8723C91.382 23.6946 91.2065 23.5579 90.9969 23.4622C90.7918 23.3619 90.548 23.3118 90.2654 23.3118C89.9647 23.3118 89.7095 23.3756 89.4998 23.5032C89.2902 23.6308 89.117 23.8062 88.9803 24.0295C88.8481 24.2528 88.7501 24.5126 88.6863 24.8088C88.6225 25.1051 88.5906 25.4218 88.5906 25.759ZM100.773 27.7756V22.1223H102.427V29.5188H100.869L100.773 27.7756ZM101.005 26.2375L101.559 26.2239C101.559 26.7206 101.504 27.1786 101.395 27.5979C101.286 28.0126 101.117 28.3749 100.889 28.6848C100.661 28.9902 100.37 29.2294 100.014 29.4026C99.6586 29.5712 99.2325 29.6555 98.7357 29.6555C98.3757 29.6555 98.0453 29.6031 97.7445 29.4983C97.4437 29.3935 97.184 29.2317 96.9652 29.0129C96.751 28.7942 96.5847 28.5094 96.4662 28.1584C96.3477 27.8075 96.2884 27.3883 96.2884 26.9006V22.1223H97.9359V26.9143C97.9359 27.1832 97.9678 27.4088 98.0316 27.5911C98.0954 27.7688 98.182 27.9124 98.2914 28.0217C98.4008 28.1311 98.5284 28.2086 98.6742 28.2542C98.82 28.2997 98.975 28.3225 99.139 28.3225C99.6084 28.3225 99.9776 28.2314 100.246 28.0491C100.52 27.8622 100.714 27.6116 100.828 27.2971C100.946 26.9827 101.005 26.6295 101.005 26.2375ZM108.327 28.343C108.596 28.343 108.837 28.2906 109.052 28.1858C109.27 28.0764 109.446 27.926 109.578 27.7346C109.715 27.5432 109.79 27.3222 109.804 27.0715H111.355C111.346 27.55 111.205 27.9853 110.932 28.3772C110.658 28.7691 110.296 29.0813 109.845 29.3137C109.393 29.5416 108.894 29.6555 108.348 29.6555C107.782 29.6555 107.29 29.5598 106.871 29.3684C106.452 29.1724 106.103 28.9036 105.825 28.5618C105.547 28.22 105.337 27.8258 105.196 27.3792C105.06 26.9325 104.991 26.454 104.991 25.9436V25.7043C104.991 25.1939 105.06 24.7154 105.196 24.2688C105.337 23.8176 105.547 23.4211 105.825 23.0793C106.103 22.7375 106.452 22.4709 106.871 22.2795C107.29 22.0836 107.78 21.9856 108.341 21.9856C108.933 21.9856 109.453 22.1041 109.899 22.3411C110.346 22.5735 110.697 22.8993 110.952 23.3186C111.212 23.7333 111.346 24.2164 111.355 24.7678H109.804C109.79 24.4944 109.722 24.2483 109.599 24.0295C109.48 23.8062 109.311 23.6285 109.093 23.4963C108.879 23.3642 108.621 23.2981 108.32 23.2981C107.988 23.2981 107.712 23.3665 107.493 23.5032C107.274 23.6353 107.103 23.8176 106.98 24.05C106.857 24.2779 106.768 24.5354 106.714 24.8225C106.664 25.1051 106.639 25.399 106.639 25.7043V25.9436C106.639 26.2489 106.664 26.5452 106.714 26.8323C106.764 27.1194 106.851 27.3769 106.974 27.6047C107.101 27.828 107.274 28.0081 107.493 28.1448C107.712 28.2769 107.99 28.343 108.327 28.343ZM117.98 28.0354V24.5081C117.98 24.2437 117.932 24.0159 117.836 23.8245C117.741 23.6331 117.595 23.4849 117.399 23.3801C117.208 23.2753 116.966 23.2229 116.674 23.2229C116.405 23.2229 116.173 23.2685 115.977 23.3596C115.781 23.4508 115.628 23.5738 115.519 23.7288C115.41 23.8837 115.355 24.0592 115.355 24.2551H113.714C113.714 23.9635 113.785 23.6809 113.926 23.4075C114.068 23.134 114.273 22.8902 114.541 22.676C114.81 22.4618 115.132 22.2932 115.505 22.1702C115.879 22.0471 116.298 21.9856 116.763 21.9856C117.319 21.9856 117.811 22.079 118.24 22.2659C118.673 22.4527 119.012 22.7353 119.258 23.1135C119.509 23.4872 119.634 23.9566 119.634 24.5217V27.8098C119.634 28.1471 119.657 28.4501 119.703 28.719C119.753 28.9833 119.823 29.2135 119.915 29.4094V29.5188H118.226C118.149 29.3411 118.087 29.1155 118.041 28.842C118 28.564 117.98 28.2952 117.98 28.0354ZM118.219 25.0208L118.233 26.0393H117.05C116.745 26.0393 116.476 26.0689 116.244 26.1282C116.011 26.1829 115.818 26.2649 115.663 26.3743C115.508 26.4836 115.391 26.6158 115.314 26.7708C115.236 26.9257 115.198 27.1012 115.198 27.2971C115.198 27.4931 115.243 27.6731 115.334 27.8372C115.426 27.9967 115.558 28.122 115.731 28.2131C115.909 28.3043 116.123 28.3499 116.374 28.3499C116.711 28.3499 117.005 28.2815 117.255 28.1448C117.511 28.0035 117.711 27.8326 117.857 27.6321C118.003 27.427 118.08 27.2333 118.089 27.051L118.623 27.7825C118.568 27.9693 118.474 28.1698 118.342 28.384C118.21 28.5982 118.037 28.8033 117.823 28.9993C117.613 29.1907 117.36 29.3479 117.064 29.4709C116.772 29.594 116.435 29.6555 116.052 29.6555C115.569 29.6555 115.139 29.5598 114.76 29.3684C114.382 29.1724 114.086 28.9104 113.872 28.5823C113.657 28.2496 113.55 27.8736 113.55 27.4543C113.55 27.0624 113.623 26.7161 113.769 26.4153C113.919 26.1099 114.138 25.8547 114.425 25.6497C114.717 25.4446 115.072 25.2896 115.492 25.1848C115.911 25.0754 116.389 25.0208 116.927 25.0208H118.219ZM125.938 22.1223V23.3254H121.768V22.1223H125.938ZM122.971 20.3108H124.618V27.4749C124.618 27.7027 124.65 27.8782 124.714 28.0012C124.782 28.1197 124.876 28.1995 124.994 28.2405C125.113 28.2815 125.252 28.302 125.411 28.302C125.525 28.302 125.634 28.2952 125.739 28.2815C125.844 28.2678 125.928 28.2542 125.992 28.2405L125.999 29.4983C125.862 29.5393 125.703 29.5758 125.521 29.6077C125.343 29.6396 125.138 29.6555 124.905 29.6555C124.527 29.6555 124.192 29.5894 123.9 29.4573C123.609 29.3206 123.381 29.0995 123.217 28.7942C123.053 28.4889 122.971 28.0833 122.971 27.5774V20.3108ZM130.163 22.1223V29.5188H128.508V22.1223H130.163ZM128.399 20.1809C128.399 19.9303 128.481 19.7229 128.645 19.5588C128.814 19.3902 129.046 19.3059 129.342 19.3059C129.634 19.3059 129.864 19.3902 130.033 19.5588C130.201 19.7229 130.286 19.9303 130.286 20.1809C130.286 20.427 130.201 20.6321 130.033 20.7961C129.864 20.9602 129.634 21.0422 129.342 21.0422C129.046 21.0422 128.814 20.9602 128.645 20.7961C128.481 20.6321 128.399 20.427 128.399 20.1809ZM132.843 25.9026V25.7454C132.843 25.2122 132.92 24.7177 133.075 24.262C133.23 23.8017 133.454 23.4029 133.745 23.0657C134.042 22.7239 134.402 22.4596 134.825 22.2727C135.254 22.0813 135.737 21.9856 136.275 21.9856C136.817 21.9856 137.3 22.0813 137.724 22.2727C138.152 22.4596 138.514 22.7239 138.811 23.0657C139.107 23.4029 139.333 23.8017 139.487 24.262C139.642 24.7177 139.72 25.2122 139.72 25.7454V25.9026C139.72 26.4358 139.642 26.9303 139.487 27.386C139.333 27.8417 139.107 28.2405 138.811 28.5823C138.514 28.9195 138.154 29.1838 137.731 29.3752C137.307 29.5621 136.826 29.6555 136.288 29.6555C135.746 29.6555 135.261 29.5621 134.832 29.3752C134.408 29.1838 134.048 28.9195 133.752 28.5823C133.456 28.2405 133.23 27.8417 133.075 27.386C132.92 26.9303 132.843 26.4358 132.843 25.9026ZM134.49 25.7454V25.9026C134.49 26.2353 134.525 26.5497 134.593 26.8459C134.661 27.1422 134.768 27.4019 134.914 27.6252C135.06 27.8486 135.247 28.024 135.475 28.1516C135.703 28.2792 135.974 28.343 136.288 28.343C136.594 28.343 136.858 28.2792 137.081 28.1516C137.309 28.024 137.496 27.8486 137.642 27.6252C137.788 27.4019 137.895 27.1422 137.963 26.8459C138.036 26.5497 138.072 26.2353 138.072 25.9026V25.7454C138.072 25.4172 138.036 25.1073 137.963 24.8157C137.895 24.5194 137.785 24.2574 137.635 24.0295C137.489 23.8017 137.302 23.6239 137.074 23.4963C136.851 23.3642 136.584 23.2981 136.275 23.2981C135.965 23.2981 135.696 23.3642 135.468 23.4963C135.245 23.6239 135.06 23.8017 134.914 24.0295C134.768 24.2574 134.661 24.5194 134.593 24.8157C134.525 25.1073 134.49 25.4172 134.49 25.7454ZM143.925 23.7014V29.5188H142.277V22.1223H143.829L143.925 23.7014ZM143.631 25.5471L143.097 25.5403C143.102 25.0162 143.175 24.5354 143.316 24.0979C143.462 23.6604 143.663 23.2844 143.918 22.97C144.177 22.6555 144.487 22.414 144.847 22.2454C145.207 22.0722 145.608 21.9856 146.051 21.9856C146.406 21.9856 146.727 22.0357 147.014 22.136C147.306 22.2317 147.554 22.3889 147.76 22.6077C147.969 22.8264 148.129 23.1112 148.238 23.4622C148.347 23.8085 148.402 24.2346 148.402 24.7405V29.5188H146.748V24.7336C146.748 24.3782 146.695 24.0979 146.591 23.8928C146.49 23.6832 146.342 23.5351 146.146 23.4485C145.955 23.3573 145.716 23.3118 145.428 23.3118C145.146 23.3118 144.893 23.371 144.67 23.4895C144.446 23.608 144.257 23.7698 144.102 23.9749C143.952 24.1799 143.836 24.4169 143.754 24.6858C143.672 24.9547 143.631 25.2418 143.631 25.5471ZM82.219 45.8069H79.6282V44.4465H82.219C82.6702 44.4465 83.0347 44.3736 83.3127 44.2278C83.5907 44.0819 83.7935 43.8814 83.9211 43.6262C84.0533 43.3665 84.1194 43.0702 84.1194 42.7375C84.1194 42.4231 84.0533 42.1292 83.9211 41.8557C83.7935 41.5777 83.5907 41.3544 83.3127 41.1858C83.0347 41.0172 82.6702 40.9329 82.219 40.9329H80.1545V49.5188H78.4387V39.5657H82.219C82.9892 39.5657 83.6431 39.7024 84.1809 39.9758C84.7232 40.2447 85.1357 40.6184 85.4182 41.0969C85.7008 41.5709 85.842 42.1132 85.842 42.7239C85.842 43.3665 85.7008 43.9179 85.4182 44.3782C85.1357 44.8385 84.7232 45.1917 84.1809 45.4377C83.6431 45.6838 82.9892 45.8069 82.219 45.8069ZM90.0604 43.5305V49.5188H88.4129V42.1223H89.9852L90.0604 43.5305ZM92.3231 42.0745L92.3094 43.6057C92.2091 43.5875 92.0997 43.5738 91.9813 43.5647C91.8673 43.5556 91.7534 43.551 91.6395 43.551C91.3569 43.551 91.1085 43.592 90.8943 43.6741C90.6802 43.7515 90.5001 43.8655 90.3543 44.0159C90.213 44.1617 90.1037 44.3394 90.0262 44.5491C89.9487 44.7587 89.9031 44.9934 89.8895 45.2532L89.5135 45.2805C89.5135 44.8157 89.5591 44.385 89.6502 43.9885C89.7414 43.592 89.8781 43.2434 90.0604 42.9426C90.2472 42.6418 90.4796 42.4071 90.7576 42.2385C91.0402 42.0699 91.366 41.9856 91.7352 41.9856C91.8354 41.9856 91.9425 41.9947 92.0565 42.0129C92.1749 42.0312 92.2638 42.0517 92.3231 42.0745ZM94.0531 45.9026V45.7454C94.0531 45.2122 94.1306 44.7177 94.2855 44.262C94.4405 43.8017 94.6638 43.4029 94.9554 43.0657C95.2517 42.7239 95.6117 42.4596 96.0355 42.2727C96.4639 42.0813 96.947 41.9856 97.4847 41.9856C98.0271 41.9856 98.5101 42.0813 98.934 42.2727C99.3623 42.4596 99.7246 42.7239 100.021 43.0657C100.317 43.4029 100.543 43.8017 100.698 44.262C100.853 44.7177 100.93 45.2122 100.93 45.7454V45.9026C100.93 46.4358 100.853 46.9303 100.698 47.386C100.543 47.8417 100.317 48.2405 100.021 48.5823C99.7246 48.9195 99.3646 49.1838 98.9408 49.3752C98.517 49.5621 98.0362 49.6555 97.4984 49.6555C96.9561 49.6555 96.4707 49.5621 96.0424 49.3752C95.6185 49.1838 95.2585 48.9195 94.9623 48.5823C94.6661 48.2405 94.4405 47.8417 94.2855 47.386C94.1306 46.9303 94.0531 46.4358 94.0531 45.9026ZM95.7006 45.7454V45.9026C95.7006 46.2353 95.7347 46.5497 95.8031 46.8459C95.8715 47.1422 95.9786 47.4019 96.1244 47.6252C96.2702 47.8486 96.4571 48.024 96.6849 48.1516C96.9128 48.2792 97.184 48.343 97.4984 48.343C97.8037 48.343 98.0681 48.2792 98.2914 48.1516C98.5192 48.024 98.7061 47.8486 98.8519 47.6252C98.9978 47.4019 99.1049 47.1422 99.1732 46.8459C99.2461 46.5497 99.2826 46.2353 99.2826 45.9026V45.7454C99.2826 45.4172 99.2461 45.1073 99.1732 44.8157C99.1049 44.5194 98.9955 44.2574 98.8451 44.0295C98.6993 43.8017 98.5124 43.6239 98.2845 43.4963C98.0612 43.3642 97.7946 43.2981 97.4847 43.2981C97.1748 43.2981 96.906 43.3642 96.6781 43.4963C96.4548 43.6239 96.2702 43.8017 96.1244 44.0295C95.9786 44.2574 95.8715 44.5194 95.8031 44.8157C95.7347 45.1073 95.7006 45.4172 95.7006 45.7454ZM103.508 39.0188H105.155V47.9397L104.998 49.5188H103.508V39.0188ZM109.981 45.7522V45.8958C109.981 46.4426 109.92 46.9462 109.797 47.4065C109.678 47.8622 109.496 48.2587 109.25 48.5959C109.008 48.9332 108.708 49.1952 108.348 49.3821C107.992 49.5644 107.58 49.6555 107.11 49.6555C106.65 49.6555 106.249 49.5689 105.907 49.3958C105.565 49.2226 105.278 48.9765 105.046 48.6575C104.818 48.3385 104.633 47.9579 104.492 47.5159C104.351 47.0738 104.251 46.5862 104.191 46.053V45.595C104.251 45.0572 104.351 44.5696 104.492 44.1321C104.633 43.69 104.818 43.3095 105.046 42.9905C105.278 42.6669 105.563 42.4185 105.9 42.2454C106.242 42.0722 106.641 41.9856 107.097 41.9856C107.571 41.9856 107.988 42.0767 108.348 42.259C108.712 42.4413 109.015 42.7011 109.257 43.0383C109.498 43.371 109.678 43.7675 109.797 44.2278C109.92 44.6881 109.981 45.1962 109.981 45.7522ZM108.334 45.8958V45.7522C108.334 45.4195 108.307 45.1073 108.252 44.8157C108.197 44.5194 108.106 44.2597 107.978 44.0364C107.855 43.8131 107.687 43.6376 107.473 43.51C107.263 43.3778 107.001 43.3118 106.686 43.3118C106.395 43.3118 106.144 43.3619 105.935 43.4622C105.725 43.5624 105.549 43.6991 105.408 43.8723C105.267 44.0455 105.155 44.246 105.073 44.4739C104.996 44.7017 104.943 44.9478 104.916 45.2122V46.4495C104.957 46.7913 105.044 47.1057 105.176 47.3928C105.312 47.6754 105.504 47.9032 105.75 48.0764C105.996 48.245 106.313 48.3293 106.7 48.3293C107.005 48.3293 107.263 48.2678 107.473 48.1448C107.682 48.0217 107.849 47.8508 107.972 47.6321C108.099 47.4088 108.19 47.149 108.245 46.8528C108.304 46.5566 108.334 46.2375 108.334 45.8958ZM114.33 39.0188V49.5188H112.675V39.0188H114.33ZM120.585 49.6555C120.038 49.6555 119.544 49.5667 119.102 49.3889C118.664 49.2066 118.29 48.9537 117.981 48.6301C117.675 48.3066 117.44 47.926 117.276 47.4885C117.112 47.051 117.03 46.5793 117.03 46.0735V45.8C117.03 45.2213 117.115 44.6972 117.283 44.2278C117.452 43.7584 117.687 43.3573 117.987 43.0247C118.288 42.6874 118.644 42.4299 119.054 42.2522C119.464 42.0745 119.908 41.9856 120.387 41.9856C120.915 41.9856 121.378 42.0745 121.774 42.2522C122.171 42.4299 122.499 42.6806 122.759 43.0042C123.023 43.3232 123.219 43.7037 123.347 44.1458C123.479 44.5878 123.545 45.0754 123.545 45.6086V46.3127H117.83V45.1301H121.918V45.0002C121.909 44.704 121.85 44.426 121.74 44.1663C121.635 43.9065 121.474 43.6969 121.255 43.5374C121.036 43.3778 120.745 43.2981 120.38 43.2981C120.106 43.2981 119.863 43.3573 119.648 43.4758C119.439 43.5898 119.263 43.7561 119.122 43.9749C118.981 44.1936 118.871 44.4579 118.794 44.7678C118.721 45.0732 118.685 45.4172 118.685 45.8V46.0735C118.685 46.3971 118.728 46.6978 118.815 46.9758C118.906 47.2493 119.038 47.4885 119.211 47.6936C119.384 47.8987 119.594 48.0605 119.84 48.179C120.086 48.2929 120.366 48.3499 120.681 48.3499C121.077 48.3499 121.43 48.2701 121.74 48.1106C122.05 47.9511 122.319 47.7255 122.547 47.4338L123.415 48.2747C123.256 48.5071 123.048 48.7304 122.793 48.9446C122.538 49.1542 122.226 49.3251 121.856 49.4573C121.492 49.5894 121.068 49.6555 120.585 49.6555ZM127.668 43.6262V49.5188H126.02V42.1223H127.572L127.668 43.6262ZM127.401 45.5471L126.84 45.5403C126.84 45.0299 126.904 44.5582 127.032 44.1252C127.159 43.6923 127.346 43.3163 127.592 42.9973C127.838 42.6737 128.144 42.4254 128.508 42.2522C128.878 42.0745 129.304 41.9856 129.787 41.9856C130.124 41.9856 130.432 42.0357 130.71 42.136C130.992 42.2317 131.236 42.3844 131.441 42.594C131.651 42.8036 131.81 43.0725 131.92 43.4006C132.033 43.7288 132.09 44.1252 132.09 44.5901V49.5188H130.443V44.7336C130.443 44.3736 130.388 44.0911 130.279 43.886C130.174 43.6809 130.021 43.5351 129.821 43.4485C129.625 43.3573 129.39 43.3118 129.117 43.3118C128.807 43.3118 128.543 43.371 128.324 43.4895C128.11 43.608 127.934 43.7698 127.797 43.9749C127.661 44.1799 127.56 44.4169 127.497 44.6858C127.433 44.9547 127.401 45.2418 127.401 45.5471ZM131.988 45.1096L131.215 45.2805C131.215 44.8339 131.277 44.4124 131.4 44.0159C131.528 43.6148 131.712 43.2639 131.954 42.9631C132.2 42.6578 132.503 42.4185 132.863 42.2454C133.223 42.0722 133.635 41.9856 134.1 41.9856C134.478 41.9856 134.816 42.038 135.112 42.1428C135.413 42.2431 135.668 42.4026 135.878 42.6213C136.087 42.8401 136.247 43.1249 136.356 43.4758C136.465 43.8222 136.52 44.2415 136.52 44.7336V49.5188H134.866V44.7268C134.866 44.3531 134.811 44.0637 134.702 43.8586C134.597 43.6536 134.447 43.5123 134.251 43.4348C134.055 43.3528 133.82 43.3118 133.546 43.3118C133.291 43.3118 133.066 43.3596 132.87 43.4553C132.678 43.5465 132.517 43.6764 132.384 43.845C132.252 44.009 132.152 44.1982 132.084 44.4124C132.02 44.6265 131.988 44.859 131.988 45.1096ZM143.555 47.5159C143.555 47.3518 143.514 47.2037 143.432 47.0715C143.35 46.9348 143.193 46.8118 142.96 46.7024C142.732 46.593 142.395 46.4928 141.948 46.4016C141.556 46.315 141.196 46.2125 140.868 46.094C140.545 45.9709 140.267 45.8228 140.034 45.6497C139.802 45.4765 139.622 45.2714 139.494 45.0344C139.367 44.7974 139.303 44.524 139.303 44.2141C139.303 43.9133 139.369 43.6285 139.501 43.3596C139.633 43.0907 139.822 42.8538 140.069 42.6487C140.315 42.4436 140.613 42.2818 140.964 42.1633C141.32 42.0448 141.716 41.9856 142.153 41.9856C142.773 41.9856 143.304 42.0904 143.746 42.3C144.193 42.5051 144.535 42.7854 144.772 43.1409C145.009 43.4918 145.127 43.8883 145.127 44.3303H143.48C143.48 44.1344 143.43 43.9521 143.329 43.7834C143.234 43.6103 143.088 43.4713 142.892 43.3665C142.696 43.2571 142.45 43.2024 142.153 43.2024C141.871 43.2024 141.636 43.248 141.449 43.3391C141.267 43.4257 141.13 43.5396 141.039 43.6809C140.953 43.8222 140.909 43.9771 140.909 44.1458C140.909 44.2688 140.932 44.3805 140.978 44.4807C141.028 44.5764 141.11 44.6653 141.224 44.7473C141.338 44.8248 141.493 44.8977 141.689 44.9661C141.889 45.0344 142.14 45.1005 142.441 45.1643C143.006 45.2828 143.491 45.4355 143.897 45.6223C144.307 45.8046 144.621 46.0416 144.84 46.3333C145.059 46.6204 145.168 46.9849 145.168 47.427C145.168 47.7551 145.097 48.0559 144.956 48.3293C144.82 48.5982 144.619 48.8329 144.355 49.0334C144.09 49.2294 143.774 49.3821 143.404 49.4915C143.04 49.6008 142.63 49.6555 142.174 49.6555C141.504 49.6555 140.937 49.537 140.472 49.3C140.007 49.0585 139.654 48.7509 139.412 48.3772C139.175 47.9989 139.057 47.607 139.057 47.2014H140.65C140.668 47.5068 140.752 47.7506 140.903 47.9329C141.057 48.1106 141.249 48.2405 141.477 48.3225C141.709 48.4 141.948 48.4387 142.195 48.4387C142.491 48.4387 142.739 48.4 142.94 48.3225C143.14 48.2405 143.293 48.1311 143.398 47.9944C143.502 47.8531 143.555 47.6936 143.555 47.5159Z" fill="#6B6B6B"/>
<path d="M59.6602 4.7406H12.2738C7.70431 4.7406 4 8.44491 4 13.0144V53.6313C4 58.2008 7.70431 61.9051 12.2738 61.9051H59.6602V4.7406Z" fill="#A95210"/>
<g clip-path="url(#clip0_1_22609)">
<path d="M42.6076 22.8955L46.8734 21.791L31.8587 17.9034L16.7869 21.7913L22.3051 23.2145V30.2118L22.736 30.3717C21.2349 32.3048 20.3376 34.7442 20.3376 37.393C20.3376 43.6509 25.3437 48.7422 31.4971 48.7422C37.6506 48.7422 42.6568 43.6509 42.6568 37.393C42.6568 34.7261 41.747 32.2717 40.2273 30.3324L40.5522 30.2037V23.4277L41.927 23.0692V25.5618L41.3021 26.7995V29.6131H43.3642V26.7545L42.6238 25.548L42.6076 22.8955ZM31.8582 18.9526L42.8209 21.791L31.8582 24.6294L20.8538 21.7912L31.8582 18.9526ZM25.6743 31.4622C25.0248 31.3687 24.3542 31.2584 23.6743 31.1315L23.3622 31.0732L23.563 30.8233C23.593 30.7859 23.6244 30.7497 23.655 30.7128L25.6743 31.4622ZM21.2843 36.7196C21.3891 35.0676 21.8886 33.4464 22.7287 32.0303L22.7964 31.9165L22.925 31.942C23.8458 32.1239 24.746 32.2773 25.6005 32.3979L25.8081 32.4272L25.7564 32.6338C25.4354 33.9175 25.2507 35.2976 25.2076 36.7377L25.202 36.9216H21.2714L21.2843 36.7196ZM22.7957 42.8683L22.728 42.7542C21.8883 41.3383 21.3891 39.7232 21.2843 38.0716L21.2714 37.8748H25.202L25.2076 38.0535C25.2507 39.4933 25.4353 40.8711 25.7562 42.1546L25.8079 42.3596L25.6003 42.3881C24.7423 42.5091 23.8419 42.662 22.9244 42.8433L22.7957 42.8683ZM27.6679 47.0438C26.0725 46.3846 24.6533 45.3194 23.5637 43.9634L23.3628 43.7133L23.6752 43.6552C24.4494 43.5113 25.2068 43.3885 25.9264 43.2904L26.0782 43.2697L26.1284 43.4168C26.5811 44.7431 27.1715 45.8632 27.8834 46.7463L28.3506 47.3259L27.6679 47.0438ZM31.0537 47.7719L30.8118 47.7127C29.3312 47.3367 27.9793 45.7599 27.1106 43.3867L27.0238 43.1557L27.2637 43.1305C28.4561 43.0061 29.6699 42.9332 30.8547 42.9137L31.0537 42.9105V47.7719H31.0537ZM31.0537 41.9709L30.8601 41.9738C29.5607 41.9946 28.2271 42.0794 26.9054 42.226L26.7433 42.2437L26.7006 42.0856C26.3698 40.8271 26.1782 39.4787 26.1321 38.0656L26.1251 37.8748H31.0537V41.9709ZM26.1251 36.9216L26.1315 36.7256C26.1776 35.3125 26.3687 33.9583 26.6994 32.6997L26.741 32.5419L26.9008 32.5597C27.6445 32.6421 28.3916 32.7041 29.1355 32.7468L31.0537 33.4587V36.9216H26.1251V36.9216ZM34.1818 32.7274C34.8181 32.6858 35.4567 32.6301 36.0936 32.5595L36.2534 32.5418L36.295 32.6998C36.6258 33.9582 36.817 35.312 36.8632 36.7256L36.8697 36.9216H31.9286V33.62L34.1818 32.7274ZM31.9286 37.8748H36.8697L36.8632 38.0656C36.817 39.4791 36.6259 40.8307 36.2951 42.089L36.2535 42.2454L36.0936 42.227C34.7714 42.0804 33.4272 41.995 32.1282 41.9742L31.9286 41.9709V37.8748H31.9286ZM32.1765 47.7128L31.9286 47.7719V42.9105L32.1342 42.9137C33.3185 42.9332 34.5314 43.0061 35.7243 43.1306L35.9692 43.1558L35.879 43.3868C35.0102 45.76 33.6571 47.3368 32.1765 47.7128ZM39.4306 43.9635C38.3411 45.3193 36.9221 46.3843 35.3268 47.0435L34.644 47.3257L35.1113 46.746C35.8232 45.863 36.4136 44.7429 36.8662 43.417L36.9164 43.2698L37.0682 43.2906C37.7887 43.3888 38.5461 43.5116 39.3191 43.6553L39.6315 43.7134L39.4306 43.9635ZM41.71 38.0716C41.6052 39.7232 41.1059 41.3415 40.2662 42.7573L40.1986 42.8699L40.0699 42.8437C39.1527 42.6625 38.2525 42.5089 37.3943 42.3878L37.1867 42.3583L37.2384 42.1517C37.5594 40.8684 37.744 39.4937 37.7871 38.0535L37.7926 37.8748H41.7228L41.71 38.0716ZM41.71 36.7196L41.7228 36.9216H37.7926L37.7871 36.7377C37.744 35.2975 37.5594 33.9171 37.2384 32.6339L37.1867 32.4275L37.3943 32.3985C38.2524 32.2775 39.1526 32.1243 40.0699 31.9431L40.1985 31.9176L40.2662 32.0317C41.1059 33.4476 41.6052 35.068 41.71 36.7196ZM39.4311 30.8231L39.6317 31.0729L39.3198 31.1313C38.6472 31.2573 38.015 31.3632 37.3972 31.4536L39.3212 30.6914C39.3578 30.7353 39.3952 30.7785 39.4311 30.8231ZM39.5524 29.5089L31.7041 32.6176L23.305 29.5008V23.4724L31.8587 25.6785L39.5524 23.6865V29.5089Z" fill="#FCFCFC"/>
</g>
</g>
<defs>
<filter id="filter0_d_1_22609" x="0" y="0.740601" width="203.563" height="65.1644" filterUnits="userSpaceOnUse" color-interpolation-filters="sRGB">
<feFlood flood-opacity="0" result="BackgroundImageFix"/>
<feColorMatrix in="SourceAlpha" type="matrix" values="0 0 0 0 0 0 0 0 0 0 0 0 0 0 0 0 0 0 127 0" result="hardAlpha"/>
<feOffset/>
<feGaussianBlur stdDeviation="2"/>
<feComposite in2="hardAlpha" operator="out"/>
<feColorMatrix type="matrix" values="0 0 0 0 0.662745 0 0 0 0 0.321569 0 0 0 0 0.0627451 0 0 0 0.3 0"/>
<feBlend mode="normal" in2="BackgroundImageFix" result="effect1_dropShadow_1_22609"/>
<feBlend mode="normal" in="SourceGraphic" in2="effect1_dropShadow_1_22609" result="shape"/>
</filter>
<filter id="filter1_b_1_22609" x="0.991343" y="1.73194" width="201.58" height="63.1817" filterUnits="userSpaceOnUse" color-interpolation-filters="sRGB">
<feFlood flood-opacity="0" result="BackgroundImageFix"/>
<feGaussianBlur in="BackgroundImageFix" stdDeviation="1.50433"/>
<feComposite in2="SourceAlpha" operator="in" result="effect1_backgroundBlur_1_22609"/>
<feBlend mode="normal" in="SourceGraphic" in2="effect1_backgroundBlur_1_22609" result="shape"/>
</filter>
<clipPath id="clip0_1_22609">
<rect width="30.0866" height="30.8387" fill="white" transform="translate(16.7869 17.9034)"/>
</clipPath>
</defs>
</svg>
