<svg width="205" height="66" viewBox="0 0 205 66" fill="none" xmlns="http://www.w3.org/2000/svg">
<g filter="url(#filter0_d_1_22623)">
<g filter="url(#filter1_b_1_22623)">
<rect width="195.563" height="57.1645" rx="8.27381" transform="matrix(-1 0 0 1 200.125 4.16461)" fill="#FCFCFC"/>
<rect x="-0.5" y="0.5" width="194.563" height="56.1645" rx="7.77381" transform="matrix(-1 0 0 1 199.125 4.16461)" stroke="#A95210"/>
</g>
<path d="M144.465 61.3291L191.851 61.3291C196.421 61.3291 200.125 57.6248 200.125 53.0553V12.4384C200.125 7.86891 196.421 4.16461 191.851 4.16461L144.465 4.16461V61.3291Z" fill="#A95210"/>
<path d="M31.1689 33.2589V37.0596C31.0277 37.2465 30.8066 37.4516 30.5059 37.6749C30.2096 37.8936 29.8154 38.0827 29.3232 38.2422C28.8311 38.4018 28.2181 38.4815 27.4844 38.4815C26.86 38.4815 26.2881 38.3767 25.7686 38.1671C25.249 37.9529 24.8001 37.6407 24.4219 37.2305C24.0482 36.8204 23.7588 36.3214 23.5537 35.7335C23.3486 35.141 23.2461 34.4665 23.2461 33.71V33.0196C23.2461 32.2676 23.3395 31.5977 23.5264 31.0098C23.7178 30.4174 23.9912 29.9161 24.3467 29.5059C24.7021 29.0958 25.1305 28.7859 25.6318 28.5762C26.1377 28.362 26.7096 28.2549 27.3477 28.2549C28.1634 28.2549 28.8379 28.3917 29.3711 28.6651C29.9089 28.934 30.3236 29.3077 30.6152 29.7862C30.9069 30.2647 31.0915 30.8116 31.1689 31.4268H29.4873C29.4326 31.0805 29.3255 30.7706 29.166 30.4971C29.0111 30.2237 28.7878 30.0095 28.4961 29.8546C28.209 29.695 27.8353 29.6153 27.375 29.6153C26.9785 29.6153 26.6299 29.6905 26.3291 29.8409C26.0283 29.9913 25.7777 30.2123 25.5771 30.504C25.3812 30.7956 25.2331 31.1511 25.1328 31.5704C25.0326 31.9896 24.9824 32.4682 24.9824 33.0059V33.71C24.9824 34.2569 25.0394 34.7422 25.1533 35.1661C25.2718 35.5899 25.4404 35.9477 25.6592 36.2393C25.8825 36.531 26.1536 36.752 26.4727 36.9024C26.7917 37.0482 27.1517 37.1212 27.5527 37.1212C27.9447 37.1212 28.266 37.0893 28.5166 37.0255C28.7673 36.9571 28.9655 36.8773 29.1113 36.7862C29.2617 36.6905 29.3779 36.5993 29.46 36.5128V34.5372H27.3887V33.2589H31.1689ZM35.7496 32.3565V38.3448H34.1021V30.9483H35.6744L35.7496 32.3565ZM38.0123 30.9005L37.9986 32.4317C37.8983 32.4135 37.789 32.3998 37.6705 32.3907C37.5565 32.3816 37.4426 32.377 37.3287 32.377C37.0461 32.377 36.7977 32.418 36.5836 32.5001C36.3694 32.5775 36.1893 32.6915 36.0435 32.8419C35.9022 32.9877 35.7929 33.1654 35.7154 33.3751C35.6379 33.5847 35.5923 33.8194 35.5787 34.0792L35.2027 34.1065C35.2027 33.6417 35.2483 33.211 35.3394 32.8145C35.4306 32.418 35.5673 32.0694 35.7496 31.7686C35.9364 31.4678 36.1688 31.2331 36.4468 31.0645C36.7294 30.8959 37.0552 30.8116 37.4244 30.8116C37.5246 30.8116 37.6317 30.8207 37.7457 30.8389C37.8642 30.8572 37.953 30.8777 38.0123 30.9005ZM44.1583 36.8614V33.334C44.1583 33.0697 44.1105 32.8419 44.0148 32.6505C43.9191 32.459 43.7732 32.3109 43.5773 32.2061C43.3859 32.1013 43.1443 32.0489 42.8527 32.0489C42.5838 32.0489 42.3514 32.0945 42.1554 32.1856C41.9594 32.2768 41.8068 32.3998 41.6974 32.5547C41.588 32.7097 41.5333 32.8852 41.5333 33.0811H39.8927C39.8927 32.7894 39.9633 32.5069 40.1046 32.2335C40.2459 31.96 40.451 31.7162 40.7198 31.502C40.9887 31.2878 41.31 31.1192 41.6837 30.9962C42.0574 30.8731 42.4767 30.8116 42.9415 30.8116C43.4975 30.8116 43.9897 30.905 44.4181 31.0919C44.851 31.2787 45.1905 31.5613 45.4366 31.9395C45.6873 32.3132 45.8126 32.7826 45.8126 33.3477V36.6358C45.8126 36.973 45.8354 37.2761 45.881 37.545C45.9311 37.8093 46.0017 38.0394 46.0929 38.2354V38.3448H44.4044C44.3269 38.1671 44.2654 37.9415 44.2198 37.668C44.1788 37.39 44.1583 37.1212 44.1583 36.8614ZM44.3976 33.8467L44.4113 34.8653H43.2286C42.9233 34.8653 42.6544 34.8949 42.422 34.9542C42.1896 35.0089 41.9959 35.0909 41.8409 35.2003C41.686 35.3096 41.5698 35.4418 41.4923 35.5967C41.4148 35.7517 41.3761 35.9271 41.3761 36.1231C41.3761 36.3191 41.4217 36.4991 41.5128 36.6631C41.604 36.8227 41.7361 36.948 41.9093 37.0391C42.087 37.1303 42.3012 37.1758 42.5519 37.1758C42.8891 37.1758 43.1831 37.1075 43.4337 36.9708C43.6889 36.8295 43.8894 36.6586 44.0353 36.4581C44.1811 36.253 44.2586 36.0593 44.2677 35.877L44.8009 36.6085C44.7462 36.7953 44.6528 36.9958 44.5206 37.21C44.3885 37.4242 44.2153 37.6293 44.0011 37.8253C43.7915 38.0167 43.5385 38.1739 43.2423 38.2969C42.9506 38.42 42.6134 38.4815 42.2306 38.4815C41.7475 38.4815 41.3169 38.3858 40.9386 38.1944C40.5603 37.9984 40.2641 37.7364 40.0499 37.4083C39.8357 37.0756 39.7286 36.6996 39.7286 36.2803C39.7286 35.8884 39.8016 35.5421 39.9474 35.2413C40.0978 34.9359 40.3165 34.6807 40.6036 34.4756C40.8953 34.2706 41.2508 34.1156 41.67 34.0108C42.0893 33.9014 42.5678 33.8467 43.1056 33.8467H44.3976ZM50.3522 27.8448V38.3448H48.7116V27.8448H50.3522ZM50.0651 34.3731L49.5319 34.3663C49.5365 33.8559 49.6071 33.3842 49.7438 32.9512C49.8851 32.5183 50.0811 32.1423 50.3317 31.8233C50.5869 31.4997 50.8923 31.2514 51.2477 31.0782C51.6032 30.9005 51.9974 30.8116 52.4304 30.8116C52.7949 30.8116 53.1231 30.8617 53.4147 30.962C53.711 31.0622 53.9662 31.224 54.1804 31.4473C54.3945 31.6661 54.5563 31.9532 54.6657 32.3087C54.7796 32.6596 54.8366 33.088 54.8366 33.5938V38.3448H53.1823V33.5801C53.1823 33.2247 53.1299 32.9421 53.0251 32.7325C52.9248 32.5228 52.7767 32.3725 52.5807 32.2813C52.3848 32.1856 52.1455 32.1378 51.863 32.1378C51.5667 32.1378 51.3047 32.197 51.0768 32.3155C50.8535 32.434 50.6667 32.5958 50.5163 32.8008C50.3659 33.0059 50.252 33.2429 50.1745 33.5118C50.1016 33.7807 50.0651 34.0678 50.0651 34.3731ZM67.7713 35.7813C67.7713 35.5762 67.7394 35.3939 67.6756 35.2344C67.6163 35.0749 67.5092 34.9291 67.3543 34.7969C67.1993 34.6648 66.9806 34.5372 66.698 34.4141C66.4201 34.2865 66.0646 34.1566 65.6316 34.0245C65.1577 33.8786 64.7202 33.7169 64.3191 33.5391C63.9227 33.3568 63.5763 33.1472 63.2801 32.9102C62.9839 32.6687 62.7537 32.393 62.5896 32.0831C62.4256 31.7686 62.3436 31.4063 62.3436 30.9962C62.3436 30.5906 62.4279 30.2214 62.5965 29.8887C62.7697 29.5561 63.0135 29.2689 63.3279 29.0274C63.6469 28.7813 64.0229 28.5922 64.4559 28.46C64.8888 28.3233 65.3673 28.2549 65.8914 28.2549C66.6297 28.2549 67.2654 28.3917 67.7986 28.6651C68.3364 28.9385 68.7488 29.3054 69.0359 29.7657C69.3276 30.226 69.4734 30.7341 69.4734 31.2901H67.7713C67.7713 30.962 67.7007 30.6726 67.5594 30.4219C67.4227 30.1667 67.213 29.9662 66.9305 29.8204C66.6525 29.6745 66.2993 29.6016 65.8709 29.6016C65.4653 29.6016 65.1281 29.6631 64.8592 29.7862C64.5903 29.9092 64.3898 30.0756 64.2576 30.2852C64.1255 30.4949 64.0594 30.7318 64.0594 30.9962C64.0594 31.183 64.1027 31.3539 64.1893 31.5089C64.2758 31.6592 64.408 31.8005 64.5857 31.9327C64.7635 32.0603 64.9868 32.1811 65.2557 32.295C65.5245 32.4089 65.8413 32.5183 66.2059 32.6231C66.7573 32.7872 67.2381 32.9695 67.6482 33.17C68.0584 33.3659 68.4002 33.5893 68.6736 33.8399C68.9471 34.0906 69.1521 34.3754 69.2889 34.6944C69.4256 35.0089 69.4939 35.3666 69.4939 35.7676C69.4939 36.1869 69.4096 36.5652 69.241 36.9024C69.0724 37.2351 68.8309 37.5199 68.5164 37.7569C68.2065 37.9893 67.8328 38.1693 67.3953 38.2969C66.9624 38.42 66.4793 38.4815 65.9461 38.4815C65.4676 38.4815 64.9959 38.4177 64.5311 38.2901C64.0708 38.1625 63.6515 37.9688 63.2732 37.709C62.895 37.4447 62.5942 37.1166 62.3709 36.7247C62.1476 36.3282 62.0359 35.8656 62.0359 35.337H63.7518C63.7518 35.6605 63.8064 35.9363 63.9158 36.1641C64.0298 36.392 64.187 36.5788 64.3875 36.7247C64.588 36.8659 64.8204 36.9708 65.0848 37.0391C65.3536 37.1075 65.6408 37.1417 65.9461 37.1417C66.3471 37.1417 66.6821 37.0847 66.951 36.9708C67.2244 36.8568 67.4295 36.6973 67.5662 36.4922C67.7029 36.2872 67.7713 36.0502 67.7713 35.7813ZM73.6644 27.8448V38.3448H72.0238V27.8448H73.6644ZM73.3773 34.3731L72.8441 34.3663C72.8487 33.8559 72.9193 33.3842 73.056 32.9512C73.1973 32.5183 73.3933 32.1423 73.6439 31.8233C73.8991 31.4997 74.2045 31.2514 74.5599 31.0782C74.9154 30.9005 75.3096 30.8116 75.7425 30.8116C76.1071 30.8116 76.4352 30.8617 76.7269 30.962C77.0231 31.0622 77.2783 31.224 77.4925 31.4473C77.7067 31.6661 77.8685 31.9532 77.9779 32.3087C78.0918 32.6596 78.1488 33.088 78.1488 33.5938V38.3448H76.4945V33.5801C76.4945 33.2247 76.4421 32.9421 76.3373 32.7325C76.237 32.5228 76.0889 32.3725 75.8929 32.2813C75.697 32.1856 75.4577 32.1378 75.1752 32.1378C74.8789 32.1378 74.6169 32.197 74.389 32.3155C74.1657 32.434 73.9789 32.5958 73.8285 32.8008C73.6781 33.0059 73.5642 33.2429 73.4867 33.5118C73.4138 33.7807 73.3773 34.0678 73.3773 34.3731ZM85.1767 36.8614V33.334C85.1767 33.0697 85.1288 32.8419 85.0331 32.6505C84.9374 32.459 84.7916 32.3109 84.5956 32.2061C84.4042 32.1013 84.1627 32.0489 83.871 32.0489C83.6021 32.0489 83.3697 32.0945 83.1738 32.1856C82.9778 32.2768 82.8251 32.3998 82.7157 32.5547C82.6064 32.7097 82.5517 32.8852 82.5517 33.0811H80.9111C80.9111 32.7894 80.9817 32.5069 81.123 32.2335C81.2642 31.96 81.4693 31.7162 81.7382 31.502C82.0071 31.2878 82.3284 31.1192 82.7021 30.9962C83.0758 30.8731 83.495 30.8116 83.9599 30.8116C84.5159 30.8116 85.0081 30.905 85.4364 31.0919C85.8694 31.2787 86.2089 31.5613 86.455 31.9395C86.7057 32.3132 86.831 32.7826 86.831 33.3477V36.6358C86.831 36.973 86.8538 37.2761 86.8993 37.545C86.9495 37.8093 87.0201 38.0394 87.1113 38.2354V38.3448H85.4228C85.3453 38.1671 85.2838 37.9415 85.2382 37.668C85.1972 37.39 85.1767 37.1212 85.1767 36.8614ZM85.4159 33.8467L85.4296 34.8653H84.247C83.9417 34.8653 83.6728 34.8949 83.4404 34.9542C83.2079 35.0089 83.0142 35.0909 82.8593 35.2003C82.7044 35.3096 82.5881 35.4418 82.5107 35.5967C82.4332 35.7517 82.3945 35.9271 82.3945 36.1231C82.3945 36.3191 82.44 36.4991 82.5312 36.6631C82.6223 36.8227 82.7545 36.948 82.9277 37.0391C83.1054 37.1303 83.3196 37.1758 83.5702 37.1758C83.9075 37.1758 84.2014 37.1075 84.4521 36.9708C84.7073 36.8295 84.9078 36.6586 85.0536 36.4581C85.1995 36.253 85.2769 36.0593 85.2861 35.877L85.8193 36.6085C85.7646 36.7953 85.6711 36.9958 85.539 37.21C85.4068 37.4242 85.2336 37.6293 85.0195 37.8253C84.8098 38.0167 84.5569 38.1739 84.2607 38.2969C83.969 38.42 83.6318 38.4815 83.2489 38.4815C82.7659 38.4815 82.3352 38.3858 81.957 38.1944C81.5787 37.9984 81.2825 37.7364 81.0683 37.4083C80.8541 37.0756 80.747 36.6996 80.747 36.2803C80.747 35.8884 80.8199 35.5421 80.9657 35.2413C81.1161 34.9359 81.3349 34.6807 81.622 34.4756C81.9137 34.2706 82.2691 34.1156 82.6884 34.0108C83.1077 33.9014 83.5862 33.8467 84.1239 33.8467H85.4159ZM91.3774 32.5274V38.3448H89.73V30.9483H91.2817L91.3774 32.5274ZM91.0835 34.3731L90.5503 34.3663C90.5548 33.8422 90.6278 33.3614 90.769 32.9239C90.9149 32.4864 91.1154 32.1104 91.3706 31.796C91.6304 31.4815 91.9403 31.24 92.3003 31.0714C92.6603 30.8982 93.0613 30.8116 93.5034 30.8116C93.8589 30.8116 94.1802 30.8617 94.4673 30.962C94.7589 31.0577 95.0073 31.2149 95.2124 31.4337C95.422 31.6524 95.5815 31.9372 95.6909 32.2881C95.8003 32.6345 95.855 33.0606 95.855 33.5665V38.3448H94.2007V33.5596C94.2007 33.2042 94.1483 32.9239 94.0434 32.7188C93.9432 32.5092 93.7951 32.3611 93.5991 32.2745C93.4077 32.1833 93.1684 32.1378 92.8813 32.1378C92.5988 32.1378 92.3459 32.197 92.1225 32.3155C91.8992 32.434 91.7101 32.5958 91.5552 32.8008C91.4048 33.0059 91.2886 33.2429 91.2065 33.5118C91.1245 33.7807 91.0835 34.0678 91.0835 34.3731ZM102.117 30.9483V32.1514H97.9473V30.9483H102.117ZM99.1504 29.1368H100.798V36.3008C100.798 36.5287 100.83 36.7042 100.894 36.8272C100.962 36.9457 101.055 37.0255 101.174 37.0665C101.292 37.1075 101.431 37.128 101.591 37.128C101.705 37.128 101.814 37.1212 101.919 37.1075C102.024 37.0938 102.108 37.0801 102.172 37.0665L102.179 38.3243C102.042 38.3653 101.883 38.4018 101.7 38.4337C101.522 38.4656 101.317 38.4815 101.085 38.4815C100.707 38.4815 100.372 38.4154 100.08 38.2833C99.7884 38.1465 99.5606 37.9255 99.3965 37.6202C99.2325 37.3148 99.1504 36.9092 99.1504 36.4034V29.1368ZM106.342 30.9483V38.3448H104.688V30.9483H106.342ZM104.579 29.0069C104.579 28.7562 104.661 28.5489 104.825 28.3848C104.993 28.2162 105.226 28.1319 105.522 28.1319C105.814 28.1319 106.044 28.2162 106.213 28.3848C106.381 28.5489 106.465 28.7562 106.465 29.0069C106.465 29.253 106.381 29.4581 106.213 29.6221C106.044 29.7862 105.814 29.8682 105.522 29.8682C105.226 29.8682 104.993 29.7862 104.825 29.6221C104.661 29.4581 104.579 29.253 104.579 29.0069Z" fill="#6B6B6B"/>
<g clip-path="url(#clip0_1_22623)">
<path d="M172.295 11.8719C166.037 11.8719 160.154 14.8914 156.477 19.9583C156.233 19.8594 155.967 19.8021 155.688 19.8021C154.522 19.8021 153.574 20.75 153.574 21.9151C153.574 22.5934 153.901 23.1913 154.399 23.5782C153.309 26.0486 152.751 28.6826 152.751 31.4159C152.751 42.1927 161.518 50.9599 172.295 50.9599C183.072 50.9599 191.839 42.1927 191.839 31.4159C191.839 20.6391 183.072 11.8719 172.295 11.8719ZM155.688 20.6165C156.404 20.6165 156.986 21.199 156.986 21.9152C156.986 22.6313 156.404 23.2142 155.688 23.2142C154.972 23.2142 154.389 22.6313 154.389 21.9152C154.389 21.1991 154.972 20.6165 155.688 20.6165ZM172.295 50.1456C161.968 50.1456 153.566 41.7434 153.566 31.4159C153.566 28.8101 154.095 26.2996 155.128 23.9437C155.307 23.9933 155.493 24.0285 155.688 24.0285C156.853 24.0285 157.801 23.0805 157.801 21.9151C157.801 21.3227 157.554 20.7882 157.16 20.4041C160.685 15.5678 166.311 12.6863 172.295 12.6863C182.623 12.6863 191.025 21.0885 191.025 31.4159C191.025 41.7434 182.623 50.1456 172.295 50.1456Z" fill="#FCFCFC"/>
<path d="M172.295 20.0154C166.009 20.0154 160.895 25.1296 160.895 31.416C160.895 33.8767 161.714 36.2867 163.195 38.2509C162.923 38.6102 162.767 39.0511 162.767 39.5108C162.767 40.6671 163.708 41.6075 164.864 41.6075C165.387 41.6075 165.877 41.4141 166.257 41.0722C168.068 42.2101 170.146 42.8167 172.295 42.8167C178.582 42.8167 183.696 37.7025 183.696 31.4161C183.696 25.1297 178.582 20.0154 172.295 20.0154ZM164.864 40.7932C164.157 40.7932 163.582 40.2178 163.582 39.5108C163.582 38.7953 164.171 38.2241 164.864 38.2241C165.571 38.2241 166.147 38.8015 166.147 39.5108C166.147 40.1861 165.599 40.7932 164.864 40.7932ZM172.295 42.0023C170.325 42.0023 168.416 41.4591 166.749 40.4281C166.889 40.145 166.961 39.8341 166.961 39.5108C166.961 38.3521 166.021 37.4098 164.864 37.4098C164.482 37.4098 164.113 37.5131 163.793 37.706C162.446 35.8936 161.709 33.6753 161.709 31.416C161.709 25.5785 166.458 20.8297 172.295 20.8297C178.133 20.8297 182.881 25.5785 182.881 31.416C182.881 37.2535 178.133 42.0023 172.295 42.0023Z" fill="#FCFCFC"/>
<path d="M172.296 26.3832C169.522 26.3832 167.265 28.6402 167.265 31.4144C167.265 34.1886 169.522 36.4455 172.296 36.4455C175.07 36.4455 177.327 34.1886 177.327 31.4144C177.327 28.6402 175.07 26.3832 172.296 26.3832ZM172.296 35.6311C169.971 35.6311 168.079 33.7397 168.079 31.4143C168.079 29.089 169.971 27.1975 172.296 27.1975C174.621 27.1975 176.513 29.089 176.513 31.4143C176.513 33.7396 174.621 35.6311 172.296 35.6311Z" fill="#FCFCFC"/>
<path d="M189.539 30.2052C189.539 28.9993 188.577 28.0159 187.38 27.9774C185.784 20.9844 179.498 15.9437 172.295 15.9437C163.764 15.9437 156.823 22.8845 156.823 31.416C156.823 39.9474 163.764 46.8883 172.295 46.8883C180.514 46.8883 187.226 40.5479 187.732 32.3908C188.76 32.1923 189.539 31.2882 189.539 30.2052ZM172.295 46.0739C164.213 46.0739 157.637 39.4984 157.637 31.416C157.637 23.3335 164.213 16.758 172.295 16.758C179.099 16.758 185.04 21.5057 186.574 28.1006C185.704 28.4054 185.077 29.2326 185.077 30.2052C185.077 31.2995 185.873 32.2101 186.916 32.3958C186.409 40.0961 180.062 46.0739 172.295 46.0739ZM187.308 31.6179C186.527 31.6179 185.891 30.9841 185.891 30.2052C185.891 29.4238 186.527 28.788 187.308 28.788C188.09 28.788 188.725 29.4238 188.725 30.2052C188.725 30.9841 188.09 31.6179 187.308 31.6179Z" fill="#FCFCFC"/>
</g>
</g>
<defs>
<filter id="filter0_d_1_22623" x="0.5625" y="0.164612" width="203.563" height="65.1645" filterUnits="userSpaceOnUse" color-interpolation-filters="sRGB">
<feFlood flood-opacity="0" result="BackgroundImageFix"/>
<feColorMatrix in="SourceAlpha" type="matrix" values="0 0 0 0 0 0 0 0 0 0 0 0 0 0 0 0 0 0 127 0" result="hardAlpha"/>
<feOffset/>
<feGaussianBlur stdDeviation="2"/>
<feComposite in2="hardAlpha" operator="out"/>
<feColorMatrix type="matrix" values="0 0 0 0 0.662745 0 0 0 0 0.321569 0 0 0 0 0.0627451 0 0 0 0.3 0"/>
<feBlend mode="normal" in2="BackgroundImageFix" result="effect1_dropShadow_1_22623"/>
<feBlend mode="normal" in="SourceGraphic" in2="effect1_dropShadow_1_22623" result="shape"/>
</filter>
<filter id="filter1_b_1_22623" x="1.55384" y="1.15595" width="201.58" height="63.1818" filterUnits="userSpaceOnUse" color-interpolation-filters="sRGB">
<feFlood flood-opacity="0" result="BackgroundImageFix"/>
<feGaussianBlur in="BackgroundImageFix" stdDeviation="1.50433"/>
<feComposite in2="SourceAlpha" operator="in" result="effect1_backgroundBlur_1_22623"/>
<feBlend mode="normal" in="SourceGraphic" in2="effect1_backgroundBlur_1_22623" result="shape"/>
</filter>
<clipPath id="clip0_1_22623">
<rect width="39.1125" height="39.1125" fill="white" transform="translate(152.739 11.8596)"/>
</clipPath>
</defs>
</svg>
