<svg width="205" height="66" viewBox="0 0 205 66" fill="none" xmlns="http://www.w3.org/2000/svg">
<g filter="url(#filter0_d_1_22617)">
<g filter="url(#filter1_b_1_22617)">
<rect width="195.563" height="57.1645" rx="8.27381" transform="matrix(-1 0 0 1 200.125 4)" fill="#FCFCFC"/>
<rect x="-0.5" y="0.5" width="194.563" height="56.1645" rx="7.77381" transform="matrix(-1 0 0 1 199.125 4)" stroke="#A95210"/>
</g>
<path d="M144.465 61.1645L191.851 61.1645C196.421 61.1645 200.125 57.4602 200.125 52.8907V12.2738C200.125 7.7043 196.421 4 191.851 4L144.465 4V61.1645Z" fill="#A95210"/>
<path d="M26.4827 32.3833V33.7437H21.1985V32.3833H26.4827ZM21.6223 28.2271V38.1802H19.9065V28.2271H21.6223ZM27.802 28.2271V38.1802H26.093V28.2271H27.802ZM34.1326 38.3169C33.5858 38.3169 33.0913 38.228 32.6492 38.0503C32.2117 37.868 31.838 37.6151 31.5281 37.2915C31.2228 36.9679 30.9881 36.5874 30.824 36.1499C30.66 35.7124 30.5779 35.2407 30.5779 34.7349V34.4614C30.5779 33.8826 30.6622 33.3586 30.8309 32.8892C30.9995 32.4198 31.2342 32.0187 31.535 31.686C31.8358 31.3488 32.1912 31.0913 32.6014 30.9136C33.0115 30.7358 33.4559 30.647 33.9344 30.647C34.463 30.647 34.9256 30.7358 35.3221 30.9136C35.7186 31.0913 36.0467 31.342 36.3065 31.6655C36.5708 31.9845 36.7667 32.3651 36.8943 32.8071C37.0265 33.2492 37.0926 33.7368 37.0926 34.27V34.9741H31.3777V33.7915H35.4656V33.6616C35.4565 33.3654 35.3973 33.0874 35.2879 32.8276C35.1831 32.5679 35.0213 32.3582 34.8025 32.1987C34.5838 32.0392 34.2921 31.9595 33.9275 31.9595C33.6541 31.9595 33.4103 32.0187 33.1961 32.1372C32.9865 32.2511 32.811 32.4175 32.6697 32.6362C32.5285 32.855 32.4191 33.1193 32.3416 33.4292C32.2687 33.7345 32.2322 34.0786 32.2322 34.4614V34.7349C32.2322 35.0584 32.2755 35.3592 32.3621 35.6372C32.4533 35.9106 32.5854 36.1499 32.7586 36.355C32.9318 36.5601 33.1414 36.7218 33.3875 36.8403C33.6336 36.9543 33.9139 37.0112 34.2283 37.0112C34.6248 37.0112 34.978 36.9315 35.2879 36.772C35.5978 36.6125 35.8667 36.3869 36.0945 36.0952L36.9627 36.936C36.8032 37.1685 36.5958 37.3918 36.3406 37.606C36.0854 37.8156 35.7733 37.9865 35.4041 38.1187C35.0395 38.2508 34.6157 38.3169 34.1326 38.3169ZM43.7377 36.6968V33.1694C43.7377 32.9051 43.6898 32.6772 43.5941 32.4858C43.4984 32.2944 43.3526 32.1463 43.1566 32.0415C42.9652 31.9367 42.7237 31.8843 42.432 31.8843C42.1631 31.8843 41.9307 31.9299 41.7347 32.021C41.5388 32.1121 41.3861 32.2352 41.2767 32.3901C41.1674 32.5451 41.1127 32.7205 41.1127 32.9165H39.472C39.472 32.6248 39.5427 32.3423 39.684 32.0688C39.8252 31.7954 40.0303 31.5516 40.2992 31.3374C40.5681 31.1232 40.8894 30.9546 41.2631 30.8315C41.6368 30.7085 42.056 30.647 42.5209 30.647C43.0769 30.647 43.569 30.7404 43.9974 30.9272C44.4304 31.1141 44.7699 31.3966 45.016 31.7749C45.2666 32.1486 45.392 32.618 45.392 33.1831V36.4712C45.392 36.8084 45.4148 37.1115 45.4603 37.3804C45.5105 37.6447 45.5811 37.8748 45.6722 38.0708V38.1802H43.9838C43.9063 38.0024 43.8448 37.7769 43.7992 37.5034C43.7582 37.2254 43.7377 36.9565 43.7377 36.6968ZM43.9769 33.6821L43.9906 34.7007H42.808C42.5026 34.7007 42.2338 34.7303 42.0013 34.7896C41.7689 34.8442 41.5752 34.9263 41.4203 35.0356C41.2653 35.145 41.1491 35.2772 41.0717 35.4321C40.9942 35.5871 40.9554 35.7625 40.9554 35.9585C40.9554 36.1545 41.001 36.3345 41.0922 36.4985C41.1833 36.658 41.3155 36.7834 41.4886 36.8745C41.6664 36.9657 41.8806 37.0112 42.1312 37.0112C42.4685 37.0112 42.7624 36.9429 43.0131 36.8062C43.2683 36.6649 43.4688 36.494 43.6146 36.2935C43.7605 36.0884 43.8379 35.8947 43.847 35.7124L44.3802 36.4438C44.3256 36.6307 44.2321 36.8312 44.1 37.0454C43.9678 37.2596 43.7946 37.4647 43.5804 37.6606C43.3708 37.8521 43.1179 38.0093 42.8217 38.1323C42.53 38.2554 42.1927 38.3169 41.8099 38.3169C41.3269 38.3169 40.8962 38.2212 40.5179 38.0298C40.1397 37.8338 39.8435 37.5718 39.6293 37.2437C39.4151 36.911 39.308 36.535 39.308 36.1157C39.308 35.7238 39.3809 35.3774 39.5267 35.0767C39.6771 34.7713 39.8959 34.5161 40.183 34.311C40.4746 34.106 40.8301 33.951 41.2494 33.8462C41.6687 33.7368 42.1472 33.6821 42.6849 33.6821H43.9769ZM50.0683 27.6802V38.1802H48.414V27.6802H50.0683ZM56.4536 30.7837V31.9868H52.2837V30.7837H56.4536ZM53.4868 28.9722H55.1343V36.1362C55.1343 36.3641 55.1662 36.5396 55.23 36.6626C55.2983 36.7811 55.3918 36.8608 55.5102 36.9019C55.6287 36.9429 55.7677 36.9634 55.9272 36.9634C56.0412 36.9634 56.1505 36.9565 56.2554 36.9429C56.3602 36.9292 56.4445 36.9155 56.5083 36.9019L56.5151 38.1597C56.3784 38.2007 56.2189 38.2371 56.0366 38.269C55.8589 38.3009 55.6538 38.3169 55.4214 38.3169C55.0431 38.3169 54.7082 38.2508 54.4165 38.1187C54.1248 37.9819 53.897 37.7609 53.7329 37.4556C53.5688 37.1502 53.4868 36.7446 53.4868 36.2388V28.9722ZM60.542 27.6802V38.1802H58.9014V27.6802H60.542ZM60.2549 34.2085L59.7217 34.2017C59.7263 33.6912 59.7969 33.2196 59.9336 32.7866C60.0749 32.3537 60.2709 31.9777 60.5215 31.6587C60.7767 31.3351 61.0821 31.0868 61.4375 30.9136C61.793 30.7358 62.1872 30.647 62.6202 30.647C62.9848 30.647 63.3129 30.6971 63.6045 30.7974C63.9008 30.8976 64.156 31.0594 64.3702 31.2827C64.5844 31.5015 64.7461 31.7886 64.8555 32.144C64.9695 32.495 65.0264 32.9233 65.0264 33.4292V38.1802H63.3721V33.4155C63.3721 33.0601 63.3197 32.7775 63.2149 32.5679C63.1146 32.3582 62.9665 32.2078 62.7706 32.1167C62.5746 32.021 62.3353 31.9731 62.0528 31.9731C61.7566 31.9731 61.4945 32.0324 61.2667 32.1509C61.0433 32.2694 60.8565 32.4312 60.7061 32.6362C60.5557 32.8413 60.4418 33.0783 60.3643 33.3472C60.2914 33.616 60.2549 33.9032 60.2549 34.2085ZM76.5051 34.4683H73.9142V33.1079H76.5051C76.9562 33.1079 77.3208 33.035 77.5988 32.8892C77.8768 32.7433 78.0796 32.5428 78.2072 32.2876C78.3394 32.0278 78.4054 31.7316 78.4054 31.3989C78.4054 31.0845 78.3394 30.7905 78.2072 30.5171C78.0796 30.2391 77.8768 30.0158 77.5988 29.8472C77.3208 29.6785 76.9562 29.5942 76.5051 29.5942H74.4406V38.1802H72.7248V28.2271H76.5051C77.2752 28.2271 77.9292 28.3638 78.467 28.6372C79.0093 28.9061 79.4217 29.2798 79.7043 29.7583C79.9868 30.2323 80.1281 30.7746 80.1281 31.3853C80.1281 32.0278 79.9868 32.5793 79.7043 33.0396C79.4217 33.4998 79.0093 33.853 78.467 34.0991C77.9292 34.3452 77.2752 34.4683 76.5051 34.4683ZM84.3464 32.1919V38.1802H82.699V30.7837H84.2712L84.3464 32.1919ZM86.6091 30.7358L86.5954 32.2671C86.4952 32.2489 86.3858 32.2352 86.2673 32.2261C86.1534 32.217 86.0395 32.2124 85.9255 32.2124C85.643 32.2124 85.3946 32.2534 85.1804 32.3354C84.9662 32.4129 84.7862 32.5269 84.6404 32.6772C84.4991 32.8231 84.3897 33.0008 84.3122 33.2104C84.2348 33.4201 84.1892 33.6548 84.1755 33.9146L83.7995 33.9419C83.7995 33.4771 83.8451 33.0464 83.9363 32.6499C84.0274 32.2534 84.1641 31.9048 84.3464 31.604C84.5333 31.3032 84.7657 31.0685 85.0437 30.8999C85.3262 30.7313 85.6521 30.647 86.0212 30.647C86.1215 30.647 86.2286 30.6561 86.3425 30.6743C86.461 30.6925 86.5499 30.7131 86.6091 30.7358ZM88.3391 34.564V34.4067C88.3391 33.8735 88.4166 33.3791 88.5716 32.9233C88.7265 32.4631 88.9498 32.0643 89.2415 31.7271C89.5377 31.3853 89.8977 31.1209 90.3216 30.9341C90.75 30.7427 91.233 30.647 91.7708 30.647C92.3131 30.647 92.7962 30.7427 93.22 30.9341C93.6484 31.1209 94.0107 31.3853 94.3069 31.7271C94.6031 32.0643 94.8287 32.4631 94.9837 32.9233C95.1386 33.3791 95.2161 33.8735 95.2161 34.4067V34.564C95.2161 35.0972 95.1386 35.5916 94.9837 36.0474C94.8287 36.5031 94.6031 36.9019 94.3069 37.2437C94.0107 37.5809 93.6507 37.8452 93.2268 38.0366C92.803 38.2235 92.3222 38.3169 91.7845 38.3169C91.2421 38.3169 90.7568 38.2235 90.3284 38.0366C89.9046 37.8452 89.5446 37.5809 89.2483 37.2437C88.9521 36.9019 88.7265 36.5031 88.5716 36.0474C88.4166 35.5916 88.3391 35.0972 88.3391 34.564ZM89.9866 34.4067V34.564C89.9866 34.8966 90.0208 35.2111 90.0891 35.5073C90.1575 35.8035 90.2646 36.0633 90.4104 36.2866C90.5563 36.5099 90.7431 36.6854 90.971 36.813C91.1988 36.9406 91.47 37.0044 91.7845 37.0044C92.0898 37.0044 92.3541 36.9406 92.5774 36.813C92.8053 36.6854 92.9921 36.5099 93.138 36.2866C93.2838 36.0633 93.3909 35.8035 93.4593 35.5073C93.5322 35.2111 93.5686 34.8966 93.5686 34.564V34.4067C93.5686 34.0786 93.5322 33.7687 93.4593 33.4771C93.3909 33.1808 93.2815 32.9188 93.1311 32.6909C92.9853 32.4631 92.7985 32.2853 92.5706 32.1577C92.3473 32.0256 92.0807 31.9595 91.7708 31.9595C91.4609 31.9595 91.192 32.0256 90.9641 32.1577C90.7408 32.2853 90.5563 32.4631 90.4104 32.6909C90.2646 32.9188 90.1575 33.1808 90.0891 33.4771C90.0208 33.7687 89.9866 34.0786 89.9866 34.4067ZM97.7938 27.6802H99.4413V36.6011L99.284 38.1802H97.7938V27.6802ZM104.267 34.4136V34.5571C104.267 35.104 104.206 35.6076 104.083 36.0679C103.964 36.5236 103.782 36.9201 103.536 37.2573C103.294 37.5946 102.994 37.8566 102.634 38.0435C102.278 38.2257 101.866 38.3169 101.396 38.3169C100.936 38.3169 100.535 38.2303 100.193 38.0571C99.8514 37.884 99.5643 37.6379 99.3319 37.3188C99.104 36.9998 98.9195 36.6193 98.7782 36.1772C98.6369 35.7352 98.5366 35.2476 98.4774 34.7144V34.2563C98.5366 33.7186 98.6369 33.231 98.7782 32.7935C98.9195 32.3514 99.104 31.9709 99.3319 31.6519C99.5643 31.3283 99.8491 31.0799 100.186 30.9067C100.528 30.7336 100.927 30.647 101.383 30.647C101.857 30.647 102.274 30.7381 102.634 30.9204C102.998 31.1027 103.301 31.3625 103.543 31.6997C103.784 32.0324 103.964 32.4289 104.083 32.8892C104.206 33.3494 104.267 33.8576 104.267 34.4136ZM102.62 34.5571V34.4136C102.62 34.0809 102.593 33.7687 102.538 33.4771C102.483 33.1808 102.392 32.9211 102.265 32.6978C102.141 32.4744 101.973 32.299 101.759 32.1714C101.549 32.0392 101.287 31.9731 100.973 31.9731C100.681 31.9731 100.43 32.0233 100.221 32.1235C100.011 32.2238 99.8355 32.3605 99.6942 32.5337C99.5529 32.7069 99.4413 32.9074 99.3592 33.1353C99.2818 33.3631 99.2293 33.6092 99.202 33.8735V35.1108C99.243 35.4526 99.3296 35.7671 99.4618 36.0542C99.5985 36.3368 99.7899 36.5646 100.036 36.7378C100.282 36.9064 100.599 36.9907 100.986 36.9907C101.292 36.9907 101.549 36.9292 101.759 36.8062C101.968 36.6831 102.135 36.5122 102.258 36.2935C102.385 36.0701 102.476 35.8104 102.531 35.5142C102.59 35.2179 102.62 34.8989 102.62 34.5571ZM108.616 27.6802V38.1802H106.961V27.6802H108.616ZM114.871 38.3169C114.324 38.3169 113.83 38.228 113.388 38.0503C112.95 37.868 112.576 37.6151 112.267 37.2915C111.961 36.9679 111.727 36.5874 111.562 36.1499C111.398 35.7124 111.316 35.2407 111.316 34.7349V34.4614C111.316 33.8826 111.401 33.3586 111.569 32.8892C111.738 32.4198 111.973 32.0187 112.273 31.686C112.574 31.3488 112.93 31.0913 113.34 30.9136C113.75 30.7358 114.194 30.647 114.673 30.647C115.201 30.647 115.664 30.7358 116.061 30.9136C116.457 31.0913 116.785 31.342 117.045 31.6655C117.309 31.9845 117.505 32.3651 117.633 32.8071C117.765 33.2492 117.831 33.7368 117.831 34.27V34.9741H112.116V33.7915H116.204V33.6616C116.195 33.3654 116.136 33.0874 116.026 32.8276C115.922 32.5679 115.76 32.3582 115.541 32.1987C115.322 32.0392 115.031 31.9595 114.666 31.9595C114.393 31.9595 114.149 32.0187 113.935 32.1372C113.725 32.2511 113.549 32.4175 113.408 32.6362C113.267 32.855 113.158 33.1193 113.08 33.4292C113.007 33.7345 112.971 34.0786 112.971 34.4614V34.7349C112.971 35.0584 113.014 35.3592 113.101 35.6372C113.192 35.9106 113.324 36.1499 113.497 36.355C113.67 36.5601 113.88 36.7218 114.126 36.8403C114.372 36.9543 114.652 37.0112 114.967 37.0112C115.363 37.0112 115.716 36.9315 116.026 36.772C116.336 36.6125 116.605 36.3869 116.833 36.0952L117.701 36.936C117.542 37.1685 117.334 37.3918 117.079 37.606C116.824 37.8156 116.512 37.9865 116.143 38.1187C115.778 38.2508 115.354 38.3169 114.871 38.3169ZM121.954 32.2876V38.1802H120.306V30.7837H121.858L121.954 32.2876ZM121.687 34.2085L121.126 34.2017C121.126 33.6912 121.19 33.2196 121.318 32.7866C121.446 32.3537 121.632 31.9777 121.878 31.6587C122.125 31.3351 122.43 31.0868 122.794 30.9136C123.164 30.7358 123.59 30.647 124.073 30.647C124.41 30.647 124.718 30.6971 124.996 30.7974C125.278 30.8931 125.522 31.0457 125.727 31.2554C125.937 31.465 126.096 31.7339 126.206 32.062C126.32 32.3901 126.376 32.7866 126.376 33.2515V38.1802H124.729V33.395C124.729 33.035 124.674 32.7524 124.565 32.5474C124.46 32.3423 124.307 32.1965 124.107 32.1099C123.911 32.0187 123.676 31.9731 123.403 31.9731C123.093 31.9731 122.829 32.0324 122.61 32.1509C122.396 32.2694 122.22 32.4312 122.084 32.6362C121.947 32.8413 121.847 33.0783 121.783 33.3472C121.719 33.616 121.687 33.9032 121.687 34.2085ZM126.274 33.771L125.501 33.9419C125.501 33.4953 125.563 33.0737 125.686 32.6772C125.814 32.2762 125.998 31.9253 126.24 31.6245C126.486 31.3192 126.789 31.0799 127.149 30.9067C127.509 30.7336 127.921 30.647 128.386 30.647C128.765 30.647 129.102 30.6994 129.398 30.8042C129.699 30.9045 129.954 31.064 130.164 31.2827C130.373 31.5015 130.533 31.7863 130.642 32.1372C130.751 32.4836 130.806 32.9028 130.806 33.395V38.1802H129.152V33.3882C129.152 33.0145 129.097 32.7251 128.988 32.52C128.883 32.3149 128.733 32.1737 128.537 32.0962C128.341 32.0142 128.106 31.9731 127.833 31.9731C127.577 31.9731 127.352 32.021 127.156 32.1167C126.964 32.2078 126.803 32.3377 126.67 32.5063C126.538 32.6704 126.438 32.8595 126.37 33.0737C126.306 33.2879 126.274 33.5203 126.274 33.771ZM137.841 36.1772C137.841 36.0132 137.8 35.8651 137.718 35.7329C137.636 35.5962 137.479 35.4731 137.246 35.3638C137.018 35.2544 136.681 35.1541 136.234 35.063C135.843 34.9764 135.483 34.8739 135.154 34.7554C134.831 34.6323 134.553 34.4842 134.32 34.311C134.088 34.1379 133.908 33.9328 133.78 33.6958C133.653 33.4588 133.589 33.1854 133.589 32.8755C133.589 32.5747 133.655 32.2899 133.787 32.021C133.919 31.7521 134.108 31.5151 134.355 31.3101C134.601 31.105 134.899 30.9432 135.25 30.8247C135.606 30.7062 136.002 30.647 136.44 30.647C137.059 30.647 137.59 30.7518 138.032 30.9614C138.479 31.1665 138.821 31.4468 139.058 31.8022C139.295 32.1532 139.413 32.5496 139.413 32.9917H137.766C137.766 32.7957 137.716 32.6134 137.615 32.4448C137.52 32.2716 137.374 32.1326 137.178 32.0278C136.982 31.9185 136.736 31.8638 136.44 31.8638C136.157 31.8638 135.922 31.9093 135.735 32.0005C135.553 32.0871 135.416 32.201 135.325 32.3423C135.239 32.4836 135.195 32.6385 135.195 32.8071C135.195 32.9302 135.218 33.0418 135.264 33.1421C135.314 33.2378 135.396 33.3267 135.51 33.4087C135.624 33.4862 135.779 33.5591 135.975 33.6274C136.175 33.6958 136.426 33.7619 136.727 33.8257C137.292 33.9442 137.777 34.0968 138.183 34.2837C138.593 34.466 138.907 34.703 139.126 34.9946C139.345 35.2817 139.454 35.6463 139.454 36.0884C139.454 36.4165 139.384 36.7173 139.242 36.9907C139.106 37.2596 138.905 37.4943 138.641 37.6948C138.376 37.8908 138.06 38.0435 137.691 38.1528C137.326 38.2622 136.916 38.3169 136.46 38.3169C135.79 38.3169 135.223 38.1984 134.758 37.9614C134.293 37.7199 133.94 37.4123 133.698 37.0386C133.461 36.6603 133.343 36.2684 133.343 35.8628H134.936C134.954 36.1681 135.038 36.4119 135.189 36.5942C135.344 36.772 135.535 36.9019 135.763 36.9839C135.995 37.0614 136.234 37.1001 136.481 37.1001C136.777 37.1001 137.025 37.0614 137.226 36.9839C137.426 36.9019 137.579 36.7925 137.684 36.6558C137.789 36.5145 137.841 36.355 137.841 36.1772Z" fill="#6B6B6B"/>
<g clip-path="url(#clip0_1_22617)">
<path d="M185.457 42.4616L190.504 36.4688C190.822 36.0935 191.041 35.6424 191.143 35.1572C191.244 34.6721 191.223 34.1688 191.082 33.694L188.171 23.7964C188.05 23.3851 187.788 23.032 187.432 22.8013C187.077 22.5707 186.652 22.4778 186.236 22.5396C185.819 22.6014 185.438 22.8138 185.162 23.1381C184.886 23.4624 184.733 23.877 184.731 24.3066C184.731 24.3485 184.732 24.3905 184.735 24.4289L185.141 30.462C184.943 30.4447 184.744 30.4703 184.556 30.5373C184.368 30.6043 184.197 30.711 184.053 30.8505L179.071 35.6958C178.508 36.2448 178.06 36.9041 177.753 37.6342C177.446 38.3643 177.287 39.1501 177.285 39.9444V44.5783C176.973 44.766 176.714 45.0334 176.534 45.3542C176.354 45.675 176.259 46.0381 176.259 46.4077V51.6368C176.259 51.7859 176.352 52.0934 176.455 52.1988C176.559 52.3041 185.136 52.1988 185.282 52.1988C185.428 52.1988 184.628 51.7422 184.731 51.6368C184.834 51.5315 177.361 51.7859 177.361 51.6368V47.7596H184.731V51.6368C184.731 51.7859 184.789 51.9288 184.892 52.0342C184.996 52.1396 185.136 52.1988 185.282 52.1988C185.428 52.1988 185.568 52.1396 185.672 52.0342C185.775 51.9288 185.833 51.7859 185.833 51.6368V46.4077C185.833 46.0469 185.742 45.6922 185.57 45.3769C185.398 45.0616 185.15 44.7961 184.85 44.6054V44.1304C184.85 43.518 185.066 42.9261 185.457 42.4616ZM184.731 46.6358H177.361V46.4077C177.362 46.1406 177.467 45.885 177.653 45.6968C177.839 45.5087 178.09 45.4034 178.352 45.404H183.74C184.002 45.4034 184.253 45.5087 184.439 45.6968C184.625 45.885 184.73 46.1406 184.731 46.4077L184.731 46.6358ZM184.621 41.7295C184.058 42.3977 183.749 43.2494 183.748 44.1304V44.2804C183.745 44.2804 183.743 44.2802 183.74 44.2802H178.387V39.9444C178.389 39.3021 178.517 38.6667 178.766 38.0764C179.014 37.4861 179.376 36.953 179.831 36.5091L184.813 31.6637C184.872 31.6074 184.949 31.5764 185.029 31.5774C185.11 31.5785 185.186 31.6114 185.243 31.6691L185.284 31.7117C185.3 31.7276 185.315 31.7439 185.329 31.7604C185.334 31.7664 185.339 31.7722 185.344 31.778C185.617 32.0931 185.761 32.503 185.747 32.9233C185.733 33.3436 185.561 33.7424 185.268 34.0375L182.504 36.8172C182.402 36.9224 182.346 37.064 182.346 37.2115C182.346 37.3589 182.403 37.5005 182.504 37.6055C182.606 37.7105 182.744 37.7706 182.888 37.7728C183.033 37.775 183.173 37.7192 183.277 37.6173L186.041 34.8377C186.511 34.365 186.796 33.7338 186.843 33.0622C186.889 32.3906 186.694 31.7247 186.294 31.1893L185.834 24.3473C185.833 24.3337 185.833 24.3201 185.833 24.3066C185.835 24.147 185.892 23.9933 185.996 23.8733C186.099 23.7532 186.241 23.6748 186.396 23.6522C186.55 23.6295 186.708 23.6641 186.84 23.7497C186.972 23.8353 187.07 23.9662 187.116 24.1189L190.027 34.0169C190.114 34.3111 190.127 34.623 190.064 34.9236C190.001 35.2242 189.865 35.5038 189.668 35.7362L184.621 41.7295ZM167.41 44.5783V39.8365C167.408 39.0422 167.249 38.2564 166.942 37.5263C166.635 36.7962 166.187 36.1369 165.624 35.5878L160.643 30.7427C160.498 30.6032 160.327 30.4964 160.139 30.4295C159.952 30.3626 159.752 30.337 159.554 30.3544L159.959 24.3272C159.963 24.2868 159.964 24.2448 159.964 24.1987C159.962 23.7692 159.809 23.3547 159.533 23.0305C159.257 22.7063 158.876 22.494 158.46 22.4321C158.043 22.3703 157.618 22.4631 157.263 22.6936C156.908 22.9241 156.646 23.277 156.524 23.6881L153.613 33.5861C153.472 34.0608 153.451 34.5641 153.553 35.0492C153.654 35.5343 153.873 35.9854 154.191 36.3606L159.238 42.3536C159.629 42.8182 159.845 43.4101 159.845 44.0225V44.6055C159.545 44.7962 159.297 45.0616 159.125 45.3769C158.953 45.6922 158.863 46.0469 158.862 46.4077V51.6368C158.862 51.7859 158.898 52.0934 159.001 52.1988C159.104 52.3041 167.701 52.1974 167.847 52.1974C167.993 52.1974 167.231 51.7422 167.334 51.6368C167.438 51.5315 159.964 51.7859 159.964 51.6368V47.7596H167.334V51.6368C167.334 51.7859 167.392 51.9288 167.496 52.0342C167.599 52.1396 167.739 52.1988 167.885 52.1988C168.031 52.1988 168.172 52.1396 168.275 52.0342C168.378 51.9288 168.436 51.7859 168.436 51.6368V46.4077C168.436 46.0381 168.341 45.675 168.161 45.3542C167.981 45.0334 167.722 44.766 167.41 44.5783ZM155.027 35.6281C154.83 35.3957 154.694 35.1162 154.631 34.8157C154.568 34.5151 154.581 34.2033 154.668 33.9091L157.579 24.0106C157.625 23.8579 157.723 23.7269 157.855 23.6413C157.987 23.5558 158.145 23.5212 158.3 23.5439C158.455 23.5667 158.597 23.6451 158.7 23.7652C158.803 23.8853 158.861 24.0391 158.862 24.1987C158.862 24.2117 158.862 24.2247 158.861 24.2442L158.401 31.0807C158.001 31.6163 157.806 32.2823 157.852 32.954C157.899 33.6257 158.184 34.2571 158.654 34.7299L161.418 37.5095C161.47 37.5613 161.531 37.6023 161.598 37.63C161.665 37.6578 161.736 37.6718 161.809 37.6713C161.881 37.6708 161.953 37.6557 162.019 37.627C162.086 37.5983 162.146 37.5564 162.197 37.5039C162.248 37.4513 162.288 37.3891 162.315 37.3207C162.342 37.2523 162.356 37.1792 162.356 37.1054C162.355 37.0316 162.34 36.9586 162.312 36.8906C162.284 36.8227 162.243 36.761 162.192 36.7092L159.428 33.9296C159.134 33.6342 158.962 33.235 158.948 32.8143C158.934 32.3935 159.079 31.9834 159.352 31.6682C159.371 31.6464 159.39 31.6249 159.414 31.6001L159.451 31.5622C159.508 31.5041 159.585 31.4709 159.665 31.4698C159.746 31.4686 159.824 31.4995 159.882 31.5559L164.864 36.401C165.319 36.8449 165.681 37.378 165.93 37.9684C166.178 38.5588 166.307 39.1942 166.308 39.8365V44.2802H160.955C160.952 44.2802 160.95 44.2803 160.947 44.2804V44.0225C160.946 43.1415 160.637 42.2898 160.074 41.6214L155.027 35.6281ZM167.334 46.6358H159.964V46.4077C159.965 46.1406 160.071 45.885 160.256 45.6968C160.442 45.5087 160.694 45.4034 160.955 45.404H166.343C166.605 45.4034 166.856 45.5086 167.042 45.6968C167.228 45.885 167.333 46.1406 167.334 46.4077V46.6358ZM174.112 34.2765C175.836 33.736 177.209 33.1749 177.458 32.1269C177.5 31.9545 177.507 31.775 177.478 31.5998C177.45 31.4245 177.385 31.2572 177.29 31.1084C176.916 30.5122 176.048 30.1187 174.91 29.7973C176.772 29.3507 178.179 28.7988 178.451 27.7348C178.492 27.5788 178.502 27.4157 178.479 27.2556C178.457 27.0956 178.402 26.9421 178.318 26.8045C177.973 26.2231 177.156 25.8178 175.586 25.4491C175.516 25.4326 175.443 25.4304 175.371 25.4426C175.3 25.4548 175.232 25.4813 175.17 25.5204C175.047 25.5995 174.959 25.7255 174.926 25.8707C174.893 26.0159 174.918 26.1685 174.996 26.2948C175.073 26.4212 175.197 26.5109 175.339 26.5444C176.951 26.9229 177.3 27.2595 177.376 27.3866C177.383 27.3956 177.387 27.4063 177.389 27.4176C177.391 27.4289 177.389 27.4404 177.385 27.4509C177.351 27.5843 177.14 27.9387 175.919 28.3481C175.059 28.6366 173.949 28.8705 172.846 29.0932V24.234H178.18L178.181 24.2341L178.182 24.234H181.423C181.585 24.234 181.743 24.1867 181.879 24.0976C182.015 24.0085 182.123 23.8813 182.191 23.7313C182.258 23.5814 182.282 23.4148 182.259 23.2514C182.236 23.0881 182.168 22.9348 182.063 22.8098L178.393 18.4681C177.909 17.8919 177.247 17.4998 176.517 17.3557C175.786 17.2116 175.029 17.324 174.369 17.6744L172.846 18.4782V17.4984C173.264 17.3641 173.622 17.0814 173.854 16.7016C174.085 16.3217 174.176 15.8696 174.11 15.4273C174.043 14.985 173.824 14.5816 173.491 14.2902C173.158 13.9987 172.733 13.8385 172.295 13.8385C171.856 13.8385 171.432 13.9987 171.099 14.2902C170.766 14.5816 170.546 14.985 170.48 15.4273C170.413 15.8696 170.504 16.3217 170.736 16.7016C170.968 17.0814 171.325 17.3641 171.744 17.4984V18.4783L170.22 17.6744C169.56 17.324 168.803 17.2117 168.073 17.3558C167.342 17.4999 166.681 17.8919 166.196 18.4681L162.527 22.8098C162.421 22.9348 162.353 23.0881 162.33 23.2514C162.308 23.4148 162.331 23.5814 162.399 23.7313C162.466 23.8813 162.574 24.0085 162.71 24.0976C162.847 24.1867 163.005 24.234 163.167 24.234H166.407L166.409 24.2341L166.41 24.234H171.744V29.0932C170.641 28.8705 169.53 28.6366 168.67 28.3481C167.45 27.9386 167.239 27.5843 167.205 27.4509C167.2 27.4403 167.199 27.4288 167.2 27.4175C167.202 27.4062 167.206 27.3956 167.213 27.3866C167.289 27.2595 167.638 26.9229 169.25 26.5444C169.321 26.5285 169.388 26.4983 169.448 26.4556C169.507 26.413 169.558 26.3587 169.597 26.296C169.636 26.2332 169.662 26.1633 169.674 26.0901C169.687 26.0169 169.685 25.942 169.668 25.8696C169.652 25.7973 169.622 25.7289 169.579 25.6686C169.537 25.6082 169.483 25.557 169.421 25.5179C169.36 25.4788 169.291 25.4527 169.219 25.4409C169.147 25.4291 169.074 25.432 169.003 25.4493C167.433 25.8179 166.616 26.2232 166.271 26.8046C166.188 26.9421 166.133 27.0957 166.11 27.2557C166.087 27.4157 166.097 27.5788 166.138 27.7348C166.411 28.7987 167.817 29.3508 169.68 29.7974C168.541 30.1187 167.674 30.5121 167.299 31.1084C167.204 31.2572 167.14 31.4245 167.111 31.5998C167.082 31.775 167.089 31.9545 167.132 32.1269C167.38 33.1749 168.754 33.736 170.478 34.2766C169.651 34.6169 169.023 35.0093 168.739 35.5463C168.655 35.7036 168.603 35.8768 168.586 36.0552C168.569 36.2337 168.588 36.4138 168.641 36.5847C168.896 37.438 169.811 37.9736 170.902 38.4598C169.77 39.0406 168.891 39.7797 169.149 40.9465C169.181 41.0919 169.269 41.2183 169.392 41.298C169.516 41.3776 169.665 41.404 169.808 41.3712C169.95 41.3385 170.074 41.2493 170.152 41.1233C170.23 40.9973 170.256 40.8449 170.224 40.6995C170.112 40.193 170.755 39.7573 171.744 39.2966V40.823C171.744 40.972 171.802 41.1149 171.905 41.2203C172.008 41.3257 172.149 41.3849 172.295 41.3849C172.441 41.3849 172.581 41.3257 172.684 41.2203C172.788 41.1149 172.846 40.972 172.846 40.823V39.2966C173.835 39.7573 174.477 40.1929 174.365 40.6995C174.349 40.7717 174.347 40.8465 174.359 40.9196C174.371 40.9927 174.397 41.0627 174.435 41.1255C174.474 41.1883 174.524 41.2427 174.584 41.2855C174.643 41.3284 174.71 41.3588 174.781 41.3751C174.852 41.3914 174.925 41.3932 174.997 41.3805C175.068 41.3677 175.137 41.3406 175.198 41.3008C175.259 41.2609 175.312 41.2091 175.354 41.1483C175.395 41.0875 175.425 41.0189 175.44 40.9464C175.698 39.7797 174.82 39.0406 173.688 38.4598C174.779 37.9736 175.693 37.4379 175.949 36.5848C176.002 36.4139 176.021 36.2338 176.004 36.0553C175.987 35.8768 175.934 35.7037 175.85 35.5464C175.567 35.0092 174.938 34.6168 174.112 34.2765ZM171.744 37.6037C170.812 37.2073 169.84 36.7418 169.694 36.2565C169.684 36.2278 169.679 36.1969 169.682 36.1662C169.684 36.1355 169.694 36.1058 169.709 36.0793C169.911 35.6965 170.774 35.3333 171.744 35.0082V37.6037ZM171.744 33.4895C170.852 33.2218 169.931 32.9449 169.242 32.6358C168.377 32.2484 168.227 31.9662 168.203 31.8628C168.195 31.8378 168.193 31.8114 168.198 31.7856C168.202 31.7599 168.212 31.7355 168.227 31.7145C168.552 31.1971 170.162 30.7949 171.744 30.4634V33.4895ZM171.744 23.1103H168.8C168.897 23.0204 168.99 22.9257 169.079 22.8267C169.422 22.4382 169.693 21.9892 169.879 21.5016C169.932 21.3628 169.929 21.2081 169.87 21.0716C169.812 20.9351 169.702 20.828 169.566 20.7737C169.43 20.7195 169.278 20.7226 169.145 20.7824C169.011 20.8422 168.906 20.9537 168.852 21.0925C168.715 21.4533 168.515 21.7856 168.261 22.0731C167.627 22.7893 166.815 23.0297 166.362 23.1103H163.728L167.031 19.202C167.354 18.8178 167.795 18.5563 168.282 18.4602C168.769 18.3641 169.274 18.439 169.714 18.6727L171.744 19.7436V23.1103ZM176.362 31.7144C176.377 31.7354 176.388 31.7598 176.392 31.7856C176.396 31.8114 176.394 31.8378 176.387 31.8628C176.362 31.9662 176.212 32.2484 175.348 32.6358C174.658 32.9449 173.737 33.2217 172.846 33.4895V30.4634C174.427 30.7949 176.037 31.197 176.362 31.7144ZM174.875 18.6728C175.315 18.4391 175.82 18.3642 176.307 18.4603C176.795 18.5564 177.236 18.8178 177.559 19.202L180.862 23.1103H178.228C177.775 23.0297 176.963 22.7893 176.328 22.0732C176.074 21.7856 175.874 21.4533 175.737 21.0925C175.711 21.0231 175.672 20.9597 175.622 20.9059C175.572 20.852 175.512 20.8089 175.445 20.7788C175.379 20.7487 175.307 20.7324 175.234 20.7308C175.162 20.7291 175.089 20.7422 175.022 20.7692C174.954 20.7962 174.892 20.8366 174.84 20.8882C174.787 20.9397 174.745 21.0013 174.717 21.0694C174.688 21.1375 174.672 21.2107 174.671 21.2849C174.67 21.3591 174.684 21.4328 174.711 21.5016C174.896 21.9892 175.167 22.4383 175.511 22.8268C175.599 22.9258 175.692 23.0204 175.789 23.1103H172.846V19.7436L174.875 18.6728ZM172.295 16.4607C172.149 16.4607 172.007 16.4167 171.887 16.3344C171.766 16.2521 171.672 16.1351 171.616 15.9982C171.56 15.8613 171.546 15.7106 171.574 15.5653C171.603 15.42 171.673 15.2865 171.775 15.1817C171.878 15.0769 172.009 15.0055 172.151 14.9766C172.294 14.9477 172.442 14.9626 172.576 15.0193C172.71 15.076 172.825 15.172 172.905 15.2952C172.986 15.4184 173.029 15.5633 173.029 15.7115C173.029 15.9101 172.952 16.1005 172.814 16.241C172.676 16.3814 172.489 16.4604 172.295 16.4607ZM174.895 36.2564C174.75 36.7417 173.777 37.2073 172.846 37.6035V35.0082C173.816 35.3332 174.678 35.6964 174.88 36.0792C174.896 36.1057 174.905 36.1354 174.908 36.1661C174.91 36.1968 174.906 36.2277 174.895 36.2564Z" fill="#FCFCFC"/>
</g>
</g>
<defs>
<filter id="filter0_d_1_22617" x="0.5625" y="0" width="203.563" height="65.1645" filterUnits="userSpaceOnUse" color-interpolation-filters="sRGB">
<feFlood flood-opacity="0" result="BackgroundImageFix"/>
<feColorMatrix in="SourceAlpha" type="matrix" values="0 0 0 0 0 0 0 0 0 0 0 0 0 0 0 0 0 0 127 0" result="hardAlpha"/>
<feOffset/>
<feGaussianBlur stdDeviation="2"/>
<feComposite in2="hardAlpha" operator="out"/>
<feColorMatrix type="matrix" values="0 0 0 0 0.662745 0 0 0 0 0.321569 0 0 0 0 0.0627451 0 0 0 0.3 0"/>
<feBlend mode="normal" in2="BackgroundImageFix" result="effect1_dropShadow_1_22617"/>
<feBlend mode="normal" in="SourceGraphic" in2="effect1_dropShadow_1_22617" result="shape"/>
</filter>
<filter id="filter1_b_1_22617" x="1.55384" y="0.991343" width="201.58" height="63.1818" filterUnits="userSpaceOnUse" color-interpolation-filters="sRGB">
<feFlood flood-opacity="0" result="BackgroundImageFix"/>
<feGaussianBlur in="BackgroundImageFix" stdDeviation="1.50433"/>
<feComposite in2="SourceAlpha" operator="in" result="effect1_backgroundBlur_1_22617"/>
<feBlend mode="normal" in="SourceGraphic" in2="effect1_backgroundBlur_1_22617" result="shape"/>
</filter>
<clipPath id="clip0_1_22617">
<rect width="37.6082" height="38.3604" fill="white" transform="translate(153.491 13.8384)"/>
</clipPath>
</defs>
</svg>
