<svg width="205" height="66" viewBox="0 0 205 66" fill="none" xmlns="http://www.w3.org/2000/svg">
<g filter="url(#filter0_d_1_22658)">
<g filter="url(#filter1_b_1_22658)">
<rect width="195.563" height="57.1645" rx="8.27381" transform="matrix(-1 0 0 1 200.125 4.35132)" fill="#FCFCFC"/>
<rect x="-0.5" y="0.5" width="194.563" height="56.1645" rx="7.77381" transform="matrix(-1 0 0 1 199.125 4.35132)" stroke="#A95210"/>
</g>
<path d="M29.7607 28.1217V29.4821H24.7637V28.1217H29.7607ZM25.2422 19.5289V29.4821H23.5264V19.5289H25.2422ZM36.3443 27.7389V22.0856H37.9986V29.4821H36.44L36.3443 27.7389ZM36.5767 26.2008L37.1304 26.1871C37.1304 26.6839 37.0757 27.1419 36.9664 27.5612C36.857 27.9759 36.6884 28.3382 36.4605 28.6481C36.2326 28.9534 35.941 29.1927 35.5855 29.3658C35.23 29.5345 34.8039 29.6188 34.3072 29.6188C33.9472 29.6188 33.6168 29.5664 33.316 29.4615C33.0152 29.3567 32.7554 29.1949 32.5367 28.9762C32.3225 28.7574 32.1561 28.4726 32.0377 28.1217C31.9192 27.7708 31.8599 27.3515 31.8599 26.8639V22.0856H33.5074V26.8776C33.5074 27.1464 33.5393 27.372 33.6031 27.5543C33.6669 27.7321 33.7535 27.8756 33.8629 27.985C33.9722 28.0944 34.0998 28.1718 34.2457 28.2174C34.3915 28.263 34.5464 28.2858 34.7105 28.2858C35.1799 28.2858 35.5491 28.1946 35.8179 28.0123C36.0914 27.8255 36.2851 27.5748 36.399 27.2604C36.5175 26.9459 36.5767 26.5927 36.5767 26.2008ZM43.8986 28.3063C44.1674 28.3063 44.409 28.2539 44.6232 28.149C44.8419 28.0397 45.0174 27.8893 45.1495 27.6979C45.2863 27.5065 45.3614 27.2854 45.3751 27.0348H46.9269C46.9178 27.5133 46.7765 27.9485 46.503 28.3405C46.2296 28.7324 45.8673 29.0446 45.4161 29.277C44.965 29.5048 44.4659 29.6188 43.9191 29.6188C43.354 29.6188 42.8618 29.5231 42.4425 29.3317C42.0232 29.1357 41.6746 28.8668 41.3966 28.525C41.1186 28.1832 40.909 27.789 40.7677 27.3424C40.631 26.8958 40.5626 26.4173 40.5626 25.9069V25.6676C40.5626 25.1572 40.631 24.6787 40.7677 24.2321C40.909 23.7809 41.1186 23.3844 41.3966 23.0426C41.6746 22.7008 42.0232 22.4342 42.4425 22.2428C42.8618 22.0468 43.3517 21.9489 43.9122 21.9489C44.5047 21.9489 45.0242 22.0673 45.4708 22.3043C45.9174 22.5367 46.2683 22.8626 46.5236 23.2819C46.7833 23.6966 46.9178 24.1796 46.9269 24.7311H45.3751C45.3614 24.4576 45.2931 24.2115 45.17 23.9928C45.0516 23.7695 44.8829 23.5918 44.6642 23.4596C44.45 23.3274 44.1925 23.2614 43.8917 23.2614C43.559 23.2614 43.2833 23.3297 43.0646 23.4664C42.8458 23.5986 42.6749 23.7809 42.5519 24.0133C42.4288 24.2412 42.34 24.4987 42.2853 24.7858C42.2351 25.0683 42.2101 25.3623 42.2101 25.6676V25.9069C42.2101 26.2122 42.2351 26.5084 42.2853 26.7955C42.3354 27.0826 42.422 27.3401 42.545 27.568C42.6726 27.7913 42.8458 27.9713 43.0646 28.108C43.2833 28.2402 43.5613 28.3063 43.8986 28.3063ZM51.0427 18.9821V29.4821H49.3884V18.9821H51.0427ZM55.6364 22.0856L52.4167 25.6539L50.653 27.4586L50.2223 26.0641L51.5554 24.4166L53.6471 22.0856H55.6364ZM54.0026 29.4821L51.6032 26.0094L52.6423 24.8541L55.9098 29.4821H54.0026ZM60.0188 28.6754L62.0286 22.0856H63.7922L60.8254 30.61C60.7571 30.7923 60.6682 30.9905 60.5588 31.2047C60.4495 31.4189 60.3059 31.6217 60.1282 31.8131C59.955 32.0091 59.7385 32.1663 59.4788 32.2848C59.219 32.4078 58.9045 32.4694 58.5354 32.4694C58.3896 32.4694 58.2483 32.4557 58.1116 32.4283C57.9794 32.4056 57.8541 32.3805 57.7356 32.3531L57.7288 31.0953C57.7743 31.0999 57.829 31.1045 57.8928 31.109C57.9612 31.1136 58.0159 31.1158 58.0569 31.1158C58.3303 31.1158 58.5582 31.0817 58.7405 31.0133C58.9228 30.9495 59.0709 30.8447 59.1848 30.6989C59.3033 30.553 59.4036 30.3571 59.4856 30.111L60.0188 28.6754ZM58.884 22.0856L60.6409 27.6227L60.9348 29.359L59.7932 29.653L57.1067 22.0856H58.884ZM78.6615 19.5289V29.4821H76.9457L72.4818 22.3522V29.4821H70.766V19.5289H72.4818L76.9593 26.6725V19.5289H78.6615ZM86.1816 27.7389V22.0856H87.8359V29.4821H86.2773L86.1816 27.7389ZM86.414 26.2008L86.9677 26.1871C86.9677 26.6839 86.913 27.1419 86.8036 27.5612C86.6943 27.9759 86.5256 28.3382 86.2978 28.6481C86.0699 28.9534 85.7782 29.1927 85.4228 29.3658C85.0673 29.5345 84.6412 29.6188 84.1445 29.6188C83.7844 29.6188 83.454 29.5664 83.1532 29.4615C82.8525 29.3567 82.5927 29.1949 82.3739 28.9762C82.1598 28.7574 81.9934 28.4726 81.8749 28.1217C81.7564 27.7708 81.6972 27.3515 81.6972 26.8639V22.0856H83.3447V26.8776C83.3447 27.1464 83.3766 27.372 83.4404 27.5543C83.5042 27.7321 83.5907 27.8756 83.7001 27.985C83.8095 28.0944 83.9371 28.1718 84.0829 28.2174C84.2288 28.263 84.3837 28.2858 84.5478 28.2858C85.0172 28.2858 85.3863 28.1946 85.6552 28.0123C85.9286 27.8255 86.1223 27.5748 86.2363 27.2604C86.3547 26.9459 86.414 26.5927 86.414 26.2008ZM92.3618 23.5895V29.4821H90.7143V22.0856H92.2661L92.3618 23.5895ZM92.0952 25.5104L91.5347 25.5035C91.5347 24.9931 91.5985 24.5214 91.7261 24.0885C91.8537 23.6556 92.0405 23.2796 92.2866 22.9606C92.5327 22.637 92.838 22.3886 93.2026 22.2155C93.5718 22.0377 93.9979 21.9489 94.4809 21.9489C94.8182 21.9489 95.1258 21.999 95.4038 22.0992C95.6863 22.1949 95.9302 22.3476 96.1352 22.5573C96.3449 22.7669 96.5044 23.0358 96.6138 23.3639C96.7277 23.692 96.7847 24.0885 96.7847 24.5533V29.4821H95.1372V24.6969C95.1372 24.3369 95.0825 24.0543 94.9731 23.8492C94.8683 23.6442 94.7156 23.4983 94.5151 23.4117C94.3192 23.3206 94.0845 23.275 93.811 23.275C93.5011 23.275 93.2368 23.3343 93.0181 23.4528C92.8039 23.5712 92.6284 23.733 92.4917 23.9381C92.355 24.1432 92.2547 24.3802 92.1909 24.649C92.1271 24.9179 92.0952 25.205 92.0952 25.5104ZM96.6821 25.0729L95.9097 25.2438C95.9097 24.7972 95.9712 24.3756 96.0942 23.9791C96.2218 23.5781 96.4064 23.2272 96.6479 22.9264C96.894 22.6211 97.1971 22.3818 97.5571 22.2086C97.9171 22.0354 98.3296 21.9489 98.7944 21.9489C99.1727 21.9489 99.5099 22.0013 99.8061 22.1061C100.107 22.2063 100.362 22.3658 100.572 22.5846C100.781 22.8033 100.941 23.0882 101.05 23.4391C101.16 23.7854 101.214 24.2047 101.214 24.6969V29.4821H99.56V24.6901C99.56 24.3164 99.5054 24.027 99.396 23.8219C99.2912 23.6168 99.1408 23.4755 98.9448 23.3981C98.7488 23.316 98.5141 23.275 98.2407 23.275C97.9855 23.275 97.7599 23.3229 97.5639 23.4186C97.3725 23.5097 97.2108 23.6396 97.0786 23.8082C96.9464 23.9723 96.8462 24.1614 96.7778 24.3756C96.714 24.5898 96.6821 24.8222 96.6821 25.0729ZM104.106 18.9821H105.754V27.903L105.597 29.4821H104.106V18.9821ZM110.58 25.7155V25.859C110.58 26.4059 110.519 26.9095 110.396 27.3698C110.277 27.8255 110.095 28.222 109.849 28.5592C109.607 28.8964 109.306 29.1585 108.946 29.3453C108.591 29.5276 108.178 29.6188 107.709 29.6188C107.249 29.6188 106.848 29.5322 106.506 29.359C106.164 29.1858 105.877 28.9397 105.645 28.6207C105.417 28.3017 105.232 27.9212 105.091 27.4791C104.95 27.0371 104.849 26.5494 104.79 26.0162V25.5582C104.849 25.0205 104.95 24.5328 105.091 24.0953C105.232 23.6533 105.417 23.2727 105.645 22.9537C105.877 22.6302 106.162 22.3818 106.499 22.2086C106.841 22.0354 107.24 21.9489 107.695 21.9489C108.169 21.9489 108.586 22.04 108.946 22.2223C109.311 22.4046 109.614 22.6643 109.856 23.0016C110.097 23.3343 110.277 23.7308 110.396 24.191C110.519 24.6513 110.58 25.1595 110.58 25.7155ZM108.933 25.859V25.7155C108.933 25.3828 108.905 25.0706 108.851 24.7789C108.796 24.4827 108.705 24.2229 108.577 23.9996C108.454 23.7763 108.286 23.6009 108.071 23.4733C107.862 23.3411 107.6 23.275 107.285 23.275C106.994 23.275 106.743 23.3252 106.533 23.4254C106.324 23.5257 106.148 23.6624 106.007 23.8356C105.866 24.0087 105.754 24.2093 105.672 24.4371C105.594 24.665 105.542 24.9111 105.515 25.1754V26.4127C105.556 26.7545 105.642 27.069 105.774 27.3561C105.911 27.6386 106.103 27.8665 106.349 28.0397C106.595 28.2083 106.911 28.2926 107.299 28.2926C107.604 28.2926 107.862 28.2311 108.071 28.108C108.281 27.985 108.447 27.8141 108.57 27.5953C108.698 27.372 108.789 27.1123 108.844 26.816C108.903 26.5198 108.933 26.2008 108.933 25.859ZM116.425 29.6188C115.879 29.6188 115.384 29.5299 114.942 29.3522C114.504 29.1699 114.131 28.917 113.821 28.5934C113.516 28.2698 113.281 27.8893 113.117 27.4518C112.953 27.0143 112.871 26.5426 112.871 26.0367V25.7633C112.871 25.1845 112.955 24.6604 113.124 24.191C113.292 23.7216 113.527 23.3206 113.828 22.9879C114.129 22.6507 114.484 22.3932 114.894 22.2155C115.304 22.0377 115.749 21.9489 116.227 21.9489C116.756 21.9489 117.218 22.0377 117.615 22.2155C118.011 22.3932 118.339 22.6438 118.599 22.9674C118.864 23.2864 119.06 23.667 119.187 24.109C119.319 24.5511 119.385 25.0387 119.385 25.5719V26.276H113.671V25.0934H117.758V24.9635C117.749 24.6673 117.69 24.3893 117.581 24.1295C117.476 23.8698 117.314 23.6601 117.095 23.5006C116.877 23.3411 116.585 23.2614 116.22 23.2614C115.947 23.2614 115.703 23.3206 115.489 23.4391C115.279 23.553 115.104 23.7194 114.963 23.9381C114.821 24.1569 114.712 24.4212 114.634 24.7311C114.561 25.0364 114.525 25.3805 114.525 25.7633V26.0367C114.525 26.3603 114.568 26.6611 114.655 26.9391C114.746 27.2125 114.878 27.4518 115.051 27.6569C115.225 27.8619 115.434 28.0237 115.68 28.1422C115.926 28.2561 116.207 28.3131 116.521 28.3131C116.918 28.3131 117.271 28.2334 117.581 28.0739C117.891 27.9143 118.159 27.6888 118.387 27.3971L119.255 28.2379C119.096 28.4703 118.889 28.6936 118.633 28.9078C118.378 29.1175 118.066 29.2884 117.697 29.4205C117.332 29.5527 116.908 29.6188 116.425 29.6188ZM123.515 23.4938V29.4821H121.867V22.0856H123.44L123.515 23.4938ZM125.778 22.0377L125.764 23.569C125.664 23.5507 125.554 23.5371 125.436 23.528C125.322 23.5188 125.208 23.5143 125.094 23.5143C124.811 23.5143 124.563 23.5553 124.349 23.6373C124.135 23.7148 123.955 23.8287 123.809 23.9791C123.667 24.125 123.558 24.3027 123.481 24.5123C123.403 24.722 123.358 24.9567 123.344 25.2164L122.968 25.2438C122.968 24.7789 123.014 24.3483 123.105 23.9518C123.196 23.5553 123.333 23.2067 123.515 22.9059C123.702 22.6051 123.934 22.3704 124.212 22.2018C124.495 22.0332 124.82 21.9489 125.19 21.9489C125.29 21.9489 125.397 21.958 125.511 21.9762C125.629 21.9944 125.718 22.0149 125.778 22.0377ZM137.003 19.5289L133.127 30.3365H131.835L135.718 19.5289H137.003ZM29.4053 46.2418H31.1143C31.0596 46.8935 30.8773 47.4746 30.5674 47.985C30.2575 48.4908 29.8223 48.8896 29.2617 49.1813C28.7012 49.4729 28.0199 49.6188 27.2178 49.6188C26.6025 49.6188 26.0488 49.5094 25.5566 49.2906C25.0645 49.0673 24.6429 48.7529 24.292 48.3473C23.9411 47.9371 23.6722 47.4427 23.4854 46.8639C23.3031 46.2851 23.2119 45.638 23.2119 44.9225V44.0953C23.2119 43.3798 23.3053 42.7327 23.4922 42.1539C23.6836 41.5752 23.957 41.0807 24.3125 40.6705C24.668 40.2558 25.0941 39.9391 25.5908 39.7203C26.0921 39.5016 26.6549 39.3922 27.2793 39.3922C28.0723 39.3922 28.7422 39.538 29.2891 39.8297C29.8359 40.1214 30.2598 40.5247 30.5605 41.0397C30.8659 41.5546 31.0527 42.1448 31.1211 42.8102H29.4121C29.3665 42.3818 29.2663 42.0149 29.1113 41.7096C28.9609 41.4043 28.7376 41.1718 28.4414 41.0123C28.1452 40.8483 27.7578 40.7662 27.2793 40.7662C26.8874 40.7662 26.5456 40.8392 26.2539 40.985C25.9622 41.1308 25.7184 41.345 25.5225 41.6276C25.3265 41.9101 25.1784 42.2587 25.0781 42.6735C24.9824 43.0836 24.9346 43.553 24.9346 44.0817V44.9225C24.9346 45.4238 24.9779 45.8795 25.0645 46.2897C25.1556 46.6953 25.2923 47.0439 25.4746 47.3356C25.6615 47.6272 25.8984 47.8528 26.1855 48.0123C26.4727 48.1718 26.8167 48.2516 27.2178 48.2516C27.7054 48.2516 28.0996 48.1741 28.4004 48.0192C28.7057 47.8642 28.9359 47.6386 29.0908 47.3424C29.2503 47.0416 29.3551 46.6748 29.4053 46.2418ZM33.3843 45.8658V45.7086C33.3843 45.1754 33.4618 44.6809 33.6168 44.2252C33.7717 43.7649 33.995 43.3662 34.2867 43.0289C34.5829 42.6871 34.9429 42.4228 35.3668 42.236C35.7951 42.0446 36.2782 41.9489 36.816 41.9489C37.3583 41.9489 37.8414 42.0446 38.2652 42.236C38.6936 42.4228 39.0559 42.6871 39.3521 43.0289C39.6483 43.3662 39.8739 43.7649 40.0289 44.2252C40.1838 44.6809 40.2613 45.1754 40.2613 45.7086V45.8658C40.2613 46.399 40.1838 46.8935 40.0289 47.3492C39.8739 47.805 39.6483 48.2037 39.3521 48.5455C39.0559 48.8828 38.6959 49.1471 38.272 49.3385C37.8482 49.5253 37.3674 49.6188 36.8296 49.6188C36.2873 49.6188 35.802 49.5253 35.3736 49.3385C34.9498 49.1471 34.5897 48.8828 34.2935 48.5455C33.9973 48.2037 33.7717 47.805 33.6168 47.3492C33.4618 46.8935 33.3843 46.399 33.3843 45.8658ZM35.0318 45.7086V45.8658C35.0318 46.1985 35.066 46.513 35.1343 46.8092C35.2027 47.1054 35.3098 47.3652 35.4556 47.5885C35.6015 47.8118 35.7883 47.9873 36.0162 48.1149C36.244 48.2425 36.5152 48.3063 36.8296 48.3063C37.135 48.3063 37.3993 48.2425 37.6226 48.1149C37.8505 47.9873 38.0373 47.8118 38.1832 47.5885C38.329 47.3652 38.4361 47.1054 38.5045 46.8092C38.5774 46.513 38.6138 46.1985 38.6138 45.8658V45.7086C38.6138 45.3805 38.5774 45.0706 38.5045 44.7789C38.4361 44.4827 38.3267 44.2207 38.1763 43.9928C38.0305 43.7649 37.8436 43.5872 37.6158 43.4596C37.3925 43.3274 37.1259 43.2614 36.816 43.2614C36.5061 43.2614 36.2372 43.3274 36.0093 43.4596C35.786 43.5872 35.6015 43.7649 35.4556 43.9928C35.3098 44.2207 35.2027 44.4827 35.1343 44.7789C35.066 45.0706 35.0318 45.3805 35.0318 45.7086ZM44.5958 38.9821V49.4821H42.9415V38.9821H44.5958ZM47.2761 45.8658V45.7086C47.2761 45.1754 47.3535 44.6809 47.5085 44.2252C47.6634 43.7649 47.8867 43.3662 48.1784 43.0289C48.4746 42.6871 48.8346 42.4228 49.2585 42.236C49.6869 42.0446 50.1699 41.9489 50.7077 41.9489C51.25 41.9489 51.7331 42.0446 52.1569 42.236C52.5853 42.4228 52.9476 42.6871 53.2438 43.0289C53.5401 43.3662 53.7656 43.7649 53.9206 44.2252C54.0755 44.6809 54.153 45.1754 54.153 45.7086V45.8658C54.153 46.399 54.0755 46.8935 53.9206 47.3492C53.7656 47.805 53.5401 48.2037 53.2438 48.5455C52.9476 48.8828 52.5876 49.1471 52.1637 49.3385C51.7399 49.5253 51.2591 49.6188 50.7214 49.6188C50.179 49.6188 49.6937 49.5253 49.2653 49.3385C48.8415 49.1471 48.4815 48.8828 48.1852 48.5455C47.889 48.2037 47.6634 47.805 47.5085 47.3492C47.3535 46.8935 47.2761 46.399 47.2761 45.8658ZM48.9235 45.7086V45.8658C48.9235 46.1985 48.9577 46.513 49.0261 46.8092C49.0944 47.1054 49.2015 47.3652 49.3473 47.5885C49.4932 47.8118 49.68 47.9873 49.9079 48.1149C50.1358 48.2425 50.4069 48.3063 50.7214 48.3063C51.0267 48.3063 51.291 48.2425 51.5143 48.1149C51.7422 47.9873 51.929 47.8118 52.0749 47.5885C52.2207 47.3652 52.3278 47.1054 52.3962 46.8092C52.4691 46.513 52.5055 46.1985 52.5055 45.8658V45.7086C52.5055 45.3805 52.4691 45.0706 52.3962 44.7789C52.3278 44.4827 52.2184 44.2207 52.068 43.9928C51.9222 43.7649 51.7354 43.5872 51.5075 43.4596C51.2842 43.3274 51.0176 43.2614 50.7077 43.2614C50.3978 43.2614 50.1289 43.3274 49.9011 43.4596C49.6777 43.5872 49.4932 43.7649 49.3473 43.9928C49.2015 44.2207 49.0944 44.4827 49.0261 44.7789C48.9577 45.0706 48.9235 45.3805 48.9235 45.7086ZM58.3782 43.4938V49.4821H56.7307V42.0856H58.303L58.3782 43.4938ZM60.6409 42.0377L60.6272 43.569C60.5269 43.5507 60.4176 43.5371 60.2991 43.528C60.1851 43.5188 60.0712 43.5143 59.9573 43.5143C59.6747 43.5143 59.4263 43.5553 59.2122 43.6373C58.998 43.7148 58.8179 43.8287 58.6721 43.9791C58.5308 44.125 58.4215 44.3027 58.344 44.5123C58.2665 44.722 58.2209 44.9567 58.2073 45.2164L57.8313 45.2438C57.8313 44.7789 57.8769 44.3483 57.968 43.9518C58.0592 43.5553 58.1959 43.2067 58.3782 42.9059C58.565 42.6051 58.7974 42.3704 59.0754 42.2018C59.358 42.0332 59.6838 41.9489 60.053 41.9489C60.1532 41.9489 60.2603 41.958 60.3743 41.9762C60.4927 41.9944 60.5816 42.0149 60.6409 42.0377Z" fill="#6B6B6B"/>
<path d="M144.465 61.5157L191.851 61.5157C196.421 61.5157 200.125 57.8114 200.125 53.2419V12.6251C200.125 8.05556 196.421 4.35126 191.851 4.35126L144.465 4.35126V61.5157Z" fill="#A95210"/>
<path d="M179.693 33.4976H166.414C165.878 33.4946 165.365 33.2801 164.987 32.9008C164.609 32.5215 164.396 32.0081 164.394 31.4724V18.1986C164.394 17.6609 164.608 17.1452 164.987 16.7645C165.367 16.3838 165.882 16.1692 166.42 16.1677H179.693C180.231 16.1692 180.746 16.3838 181.126 16.7645C181.505 17.1452 181.719 17.6609 181.719 18.1986V31.4724C181.717 32.009 181.503 32.5233 181.124 32.9028C180.744 33.2823 180.23 33.4961 179.693 33.4976ZM166.414 17.296C166.177 17.2989 165.95 17.3953 165.783 17.5643C165.616 17.7332 165.523 17.9611 165.523 18.1986V31.4724C165.524 31.7089 165.618 31.9353 165.785 32.103C165.952 32.2708 166.178 32.3664 166.414 32.3693H179.693C179.932 32.3679 180.16 32.2721 180.328 32.103C180.496 31.9339 180.59 31.7052 180.59 31.4667V18.1986C180.59 17.9602 180.496 17.7314 180.328 17.5623C180.16 17.3932 179.932 17.2975 179.693 17.296H166.414Z" fill="#FCFCFC"/>
<path d="M179.693 33.4976H166.414C165.878 33.4946 165.365 33.2801 164.987 32.9008C164.609 32.5215 164.396 32.0081 164.394 31.4724V18.1986C164.394 17.6609 164.608 17.1452 164.987 16.7645C165.367 16.3838 165.882 16.1692 166.42 16.1677H179.693C180.231 16.1692 180.746 16.3838 181.126 16.7645C181.505 17.1452 181.719 17.6609 181.719 18.1986V31.4724C181.717 32.009 181.503 32.5233 181.124 32.9028C180.744 33.2823 180.23 33.4961 179.693 33.4976ZM166.414 17.296C166.177 17.2989 165.95 17.3953 165.783 17.5643C165.616 17.7332 165.523 17.9611 165.523 18.1986V31.4724C165.524 31.7089 165.618 31.9353 165.785 32.103C165.952 32.2708 166.178 32.3664 166.414 32.3693H179.693C179.932 32.3679 180.16 32.2721 180.328 32.103C180.496 31.9339 180.59 31.7052 180.59 31.4667V18.1986C180.59 17.9602 180.496 17.7314 180.328 17.5623C180.16 17.3932 179.932 17.2975 179.693 17.296H166.414Z" fill="#FCFCFC"/>
<path d="M187.083 49.6993H173.81C173.271 49.6993 172.754 49.4853 172.374 49.1045C171.993 48.7236 171.779 48.207 171.779 47.6684V34.3946C171.779 33.856 171.993 33.3394 172.374 32.9586C172.754 32.5777 173.271 32.3638 173.81 32.3638H187.083C187.621 32.3653 188.136 32.5799 188.516 32.9606C188.895 33.3413 189.109 33.857 189.109 34.3946V47.6684C189.109 48.2061 188.895 48.7218 188.516 49.1025C188.136 49.4832 187.621 49.6978 187.083 49.6993ZM173.81 33.4977C173.57 33.4977 173.341 33.5928 173.171 33.762C173.002 33.9313 172.907 34.1609 172.907 34.4003V47.6684C172.907 47.787 172.93 47.9043 172.976 48.0138C173.021 48.1234 173.088 48.2229 173.171 48.3067C173.255 48.3905 173.355 48.457 173.464 48.5023C173.574 48.5477 173.691 48.571 173.81 48.571H187.083C187.322 48.5695 187.55 48.4738 187.718 48.3047C187.886 48.1356 187.98 47.9068 187.98 47.6684V34.3946C187.979 34.1572 187.884 33.9299 187.716 33.762C187.548 33.5941 187.321 33.4991 187.083 33.4977H173.81Z" fill="#FCFCFC"/>
<path d="M170.775 49.6994H157.501C156.963 49.6979 156.448 49.4833 156.069 49.1026C155.689 48.7219 155.476 48.2062 155.476 47.6685V34.3947C155.477 33.8581 155.691 33.3438 156.071 32.9643C156.45 32.5848 156.964 32.371 157.501 32.3695H170.775C171.313 32.3695 171.83 32.5835 172.211 32.9643C172.592 33.3452 172.806 33.8617 172.806 34.4004V47.6685C172.806 48.2071 172.592 48.7237 172.211 49.1046C171.83 49.4854 171.313 49.6994 170.775 49.6994ZM157.501 33.4978C157.263 33.4992 157.034 33.595 156.866 33.7641C156.698 33.9332 156.604 34.1619 156.604 34.4004V47.6685C156.604 47.9069 156.698 48.1357 156.866 48.3048C157.034 48.4739 157.263 48.5696 157.501 48.5711H170.775C170.893 48.5711 171.011 48.5478 171.12 48.5024C171.23 48.4571 171.329 48.3906 171.413 48.3068C171.497 48.223 171.563 48.1234 171.609 48.0139C171.654 47.9044 171.677 47.7871 171.677 47.6685V34.3947C171.677 34.2762 171.654 34.1588 171.609 34.0493C171.563 33.9398 171.497 33.8403 171.413 33.7565C171.329 33.6727 171.23 33.6062 171.12 33.5608C171.011 33.5155 170.893 33.4921 170.775 33.4921L157.501 33.4978ZM174.729 31.2751H171.643C171.078 31.2807 170.53 31.0807 170.102 30.7122C169.673 30.3438 169.393 29.8321 169.314 29.2725C169.257 28.7439 169.389 28.2125 169.687 27.7718C169.984 27.3311 170.427 27.0095 170.938 26.8637V24.7764C170.355 24.6897 169.828 24.3779 169.472 23.9077C169.16 23.4572 169.018 22.9109 169.071 22.3657C169.123 21.8205 169.367 21.3116 169.759 20.9291L171.598 19.0562C171.985 18.6745 172.496 18.445 173.038 18.4098C173.58 18.3746 174.116 18.536 174.549 18.8644C174.83 19.0891 175.055 19.3754 175.208 19.7011C175.36 20.0269 175.436 20.3833 175.429 20.7429V26.8637C175.94 27.0095 176.383 27.3311 176.68 27.7718C176.978 28.2125 177.11 28.7439 177.053 29.2725C176.975 29.8316 176.696 30.3432 176.269 30.7118C175.841 31.0803 175.294 31.2805 174.729 31.2751ZM173.184 19.5244C172.887 19.5272 172.603 19.6467 172.394 19.8573L170.549 21.6963C170.346 21.887 170.217 22.1435 170.185 22.4202C170.153 22.697 170.22 22.9761 170.374 23.2081C170.475 23.3459 170.605 23.459 170.755 23.5392C170.906 23.6193 171.073 23.6643 171.243 23.6707C171.466 23.6809 171.676 23.7771 171.83 23.9391C171.983 24.1011 172.068 24.3163 172.067 24.5395V27.0668C172.07 27.2694 172 27.4665 171.871 27.6226C171.742 27.7788 171.561 27.8837 171.361 27.9186C171.08 27.9684 170.828 28.123 170.657 28.3513C170.485 28.5795 170.406 28.8643 170.436 29.1484C170.483 29.4327 170.63 29.6906 170.852 29.8742C171.074 30.0578 171.355 30.1547 171.643 30.1469H174.729C175.018 30.1559 175.299 30.0595 175.521 29.8757C175.744 29.6918 175.891 29.4332 175.936 29.1484C175.967 28.8643 175.888 28.5795 175.716 28.3513C175.544 28.123 175.293 27.9684 175.011 27.9186C174.812 27.8826 174.632 27.7774 174.503 27.6215C174.374 27.4656 174.304 27.2691 174.306 27.0668V20.7429C174.314 20.557 174.279 20.3717 174.203 20.2015C174.128 20.0313 174.015 19.8807 173.872 19.7614C173.675 19.6085 173.433 19.5252 173.184 19.5244Z" fill="#FCFCFC"/>
<path d="M167.153 47.5217H162.172C162.076 47.5276 161.98 47.5276 161.884 47.5217H161.732C161.303 47.4435 160.906 47.2466 160.584 46.9533C160.262 46.6601 160.029 46.2823 159.911 45.863C159.794 45.4438 159.796 44.9999 159.919 44.5821C160.041 44.1642 160.278 43.7891 160.603 43.4995L164.276 39.8214C164.338 39.7591 164.372 39.675 164.372 39.5873C164.372 39.4997 164.338 39.4155 164.276 39.3532C164.249 39.316 164.214 39.2856 164.173 39.2646C164.133 39.2437 164.088 39.2327 164.042 39.2327C163.996 39.2327 163.951 39.2437 163.91 39.2646C163.869 39.2856 163.834 39.316 163.808 39.3532L163.21 39.9173C162.766 40.326 162.182 40.5474 161.579 40.5351C160.977 40.5228 160.402 40.2779 159.975 39.8515C159.549 39.4252 159.304 38.8505 159.292 38.2476C159.28 37.6448 159.501 37.0606 159.91 36.6172L160.519 36.008C161.442 35.0794 162.693 34.5504 164.003 34.5348C165.313 34.5191 166.576 35.0181 167.521 35.9244C168.467 36.8306 169.019 38.0718 169.059 39.3808C169.098 40.6898 168.623 41.9621 167.734 42.9241C168.284 43.0651 168.763 43.4013 169.083 43.87C169.403 44.3386 169.541 44.9076 169.472 45.4707C169.403 46.0339 169.131 46.5526 168.707 46.93C168.284 47.3074 167.737 47.5178 167.17 47.5217H167.153ZM161.952 46.3935H162.008C162.063 46.3971 162.117 46.3971 162.172 46.3935H167.153C167.473 46.3935 167.78 46.2663 168.007 46.0399C168.233 45.8135 168.36 45.5064 168.36 45.1863C168.36 44.8661 168.233 44.559 168.007 44.3326C167.78 44.1062 167.473 43.979 167.153 43.979H166.453C166.343 43.9786 166.234 43.9454 166.142 43.8838C166.05 43.8221 165.978 43.7346 165.935 43.6323C165.893 43.53 165.881 43.4173 165.902 43.3084C165.923 43.1995 165.975 43.0992 166.053 43.02L166.792 42.281C167.518 41.5554 167.927 40.5709 167.927 39.5442C167.928 38.5175 167.52 37.5326 166.795 36.8062C166.069 36.0798 165.085 35.6714 164.058 35.6709C163.031 35.6704 162.046 36.0778 161.32 36.8034L160.705 37.4465C160.527 37.6789 160.44 37.9679 160.459 38.2599C160.479 38.5518 160.603 38.8269 160.81 39.0338C161.017 39.2407 161.292 39.3654 161.584 39.3847C161.876 39.404 162.165 39.3167 162.397 39.1389L163.012 38.5296C163.29 38.2733 163.655 38.1342 164.033 38.1416C164.41 38.149 164.77 38.3023 165.037 38.5693C165.304 38.8363 165.458 39.1963 165.465 39.5738C165.472 39.9513 165.333 40.317 165.077 40.5943L161.388 44.2724C161.256 44.386 161.151 44.5262 161.078 44.6838C161.005 44.8414 160.966 45.0126 160.965 45.1863C160.965 45.4664 161.063 45.7375 161.243 45.9528C161.422 46.1681 161.671 46.314 161.946 46.3653L161.952 46.3935ZM180.444 47.5217C179.2 47.5202 178.008 47.0251 177.129 46.145C176.25 45.265 175.756 44.072 175.756 42.8282C175.756 42.2612 175.981 41.7174 176.382 41.3164C176.783 40.9154 177.327 40.6902 177.894 40.6902C178.049 40.6897 178.205 40.7068 178.356 40.741V40.6338C178.351 40.5549 178.351 40.4757 178.356 40.3968C178.353 40.3574 178.353 40.3178 178.356 40.2784C178.354 40.2446 178.354 40.2106 178.356 40.1768C178.352 40.1111 178.352 40.0452 178.356 39.9794C178.363 39.9128 178.374 39.8468 178.39 39.782C178.404 39.7184 178.423 39.6562 178.447 39.5958C178.471 39.5227 178.499 39.4511 178.531 39.3814C178.529 39.3608 178.529 39.34 178.531 39.3194L178.78 38.8286H178.165C177.874 38.8435 177.584 38.7992 177.311 38.6983C177.038 38.5975 176.789 38.4422 176.578 38.2419C176.367 38.0417 176.2 37.8006 176.085 37.5334C175.97 37.2662 175.911 36.9785 175.911 36.6877C175.911 36.397 175.97 36.1092 176.085 35.8421C176.2 35.5749 176.367 35.3338 176.578 35.1336C176.789 34.9333 177.038 34.778 177.311 34.6772C177.584 34.5763 177.874 34.532 178.165 34.5469H182.266C182.631 34.5461 182.991 34.6392 183.311 34.8171C183.63 34.995 183.898 35.2518 184.09 35.5631C184.282 35.8743 184.391 36.2296 184.406 36.5949C184.422 36.9601 184.343 37.3233 184.178 37.6496L183.394 39.1896C184.148 39.7993 184.694 40.6277 184.957 41.5605C185.22 42.4934 185.188 43.4849 184.864 44.3986C184.541 45.3123 183.942 46.1033 183.15 46.6626C182.359 47.2219 181.413 47.522 180.444 47.5217ZM177.894 41.8184C177.626 41.8184 177.369 41.9248 177.18 42.1142C176.99 42.3036 176.884 42.5604 176.884 42.8282C176.881 43.448 177.04 44.0578 177.345 44.5974C177.65 45.137 178.09 45.5878 178.623 45.9054C179.155 46.223 179.761 46.3963 180.38 46.4083C181 46.4203 181.612 46.2706 182.156 45.9739C182.7 45.6772 183.158 45.2438 183.483 44.7164C183.809 44.189 183.991 43.5858 184.012 42.9664C184.034 42.347 183.893 41.7327 183.605 41.1842C183.316 40.6357 182.89 40.1718 182.367 39.8384C182.258 39.7629 182.179 39.6515 182.144 39.5235C182.109 39.3956 182.12 39.2594 182.176 39.1389L183.168 37.1701C183.245 37.0155 183.282 36.844 183.275 36.6714C183.268 36.4988 183.218 36.3308 183.129 36.1828C183.038 36.0357 182.911 35.9144 182.76 35.8304C182.609 35.7464 182.439 35.7027 182.266 35.7033H178.165C178.025 35.6929 177.885 35.7114 177.753 35.7576C177.622 35.8037 177.501 35.8766 177.398 35.9717C177.296 36.0667 177.214 36.1819 177.158 36.3099C177.102 36.438 177.074 36.5762 177.074 36.7159C177.074 36.8557 177.102 36.9939 177.158 37.1219C177.214 37.25 177.296 37.3652 177.398 37.4602C177.501 37.5553 177.622 37.6282 177.753 37.6743C177.885 37.7205 178.025 37.739 178.165 37.7285H179.699C179.795 37.7284 179.889 37.7526 179.973 37.799C180.057 37.8454 180.128 37.9124 180.179 37.9937C180.228 38.0794 180.254 38.1767 180.254 38.2757C180.254 38.3748 180.228 38.472 180.179 38.5578L179.53 39.8384V39.9061C179.53 39.9061 179.53 39.9568 179.496 39.9963C179.494 40.0264 179.494 40.0565 179.496 40.0866C179.496 40.0866 179.496 40.1317 179.496 40.1543C179.496 40.1768 179.496 40.2558 179.496 40.2897V40.2671C179.494 40.2821 179.494 40.2972 179.496 40.3122C179.492 40.3516 179.492 40.3913 179.496 40.4307C179.493 40.4626 179.493 40.4947 179.496 40.5266C179.503 40.5593 179.512 40.5913 179.524 40.6225C179.535 40.6517 179.548 40.68 179.564 40.7071L179.609 40.7974C179.624 40.8259 179.643 40.8524 179.665 40.8764L179.727 40.9497C179.747 40.975 179.77 40.9977 179.795 41.0174L179.868 41.0794L179.964 41.1415H180.009C180.062 41.1671 180.117 41.1878 180.173 41.2035H180.235C180.299 41.2125 180.363 41.2125 180.427 41.2035H180.478C180.781 41.2091 181.076 41.3043 181.326 41.4771C181.576 41.6499 181.769 41.8927 181.881 42.1748C181.993 42.457 182.019 42.766 181.956 43.063C181.893 43.3601 181.743 43.6318 181.526 43.8441C181.309 44.0565 181.034 44.1999 180.736 44.2565C180.438 44.313 180.129 44.2801 179.85 44.1619C179.57 44.0437 179.332 43.8454 179.164 43.5921C178.997 43.3387 178.908 43.0416 178.909 42.738C178.885 42.4856 178.768 42.2513 178.58 42.0812C178.392 41.911 178.147 41.8173 177.894 41.8184ZM179.987 42.3826C180.021 42.5325 180.038 42.6858 180.038 42.8395C180.038 42.9478 180.08 43.0517 180.156 43.1287C180.232 43.2058 180.335 43.2498 180.444 43.2513C180.553 43.2513 180.658 43.2079 180.735 43.1307C180.812 43.0535 180.856 42.9487 180.856 42.8395C180.854 42.7313 180.81 42.628 180.733 42.5519C180.656 42.4759 180.552 42.4333 180.444 42.4333H180.376C180.245 42.4224 180.115 42.4017 179.987 42.3713V42.3826Z" fill="#FCFCFC"/>
</g>
<defs>
<filter id="filter0_d_1_22658" x="0.5625" y="0.351318" width="203.563" height="65.1646" filterUnits="userSpaceOnUse" color-interpolation-filters="sRGB">
<feFlood flood-opacity="0" result="BackgroundImageFix"/>
<feColorMatrix in="SourceAlpha" type="matrix" values="0 0 0 0 0 0 0 0 0 0 0 0 0 0 0 0 0 0 127 0" result="hardAlpha"/>
<feOffset/>
<feGaussianBlur stdDeviation="2"/>
<feComposite in2="hardAlpha" operator="out"/>
<feColorMatrix type="matrix" values="0 0 0 0 0.662745 0 0 0 0 0.321569 0 0 0 0 0.0627451 0 0 0 0.3 0"/>
<feBlend mode="normal" in2="BackgroundImageFix" result="effect1_dropShadow_1_22658"/>
<feBlend mode="normal" in="SourceGraphic" in2="effect1_dropShadow_1_22658" result="shape"/>
</filter>
<filter id="filter1_b_1_22658" x="1.55384" y="1.34266" width="201.58" height="63.1819" filterUnits="userSpaceOnUse" color-interpolation-filters="sRGB">
<feFlood flood-opacity="0" result="BackgroundImageFix"/>
<feGaussianBlur in="BackgroundImageFix" stdDeviation="1.50433"/>
<feComposite in2="SourceAlpha" operator="in" result="effect1_backgroundBlur_1_22658"/>
<feBlend mode="normal" in="SourceGraphic" in2="effect1_backgroundBlur_1_22658" result="shape"/>
</filter>
</defs>
</svg>
