<svg width="204" height="66" viewBox="0 0 204 66" fill="none" xmlns="http://www.w3.org/2000/svg">
<g filter="url(#filter0_d_1_22554)">
<g filter="url(#filter1_b_1_22554)">
<rect width="195.563" height="57.1645" rx="8.27381" transform="matrix(-1 0 0 1 199.563 4)" fill="#FCFCFC"/>
<rect x="-0.5" y="0.5" width="194.563" height="56.1645" rx="7.77381" transform="matrix(-1 0 0 1 198.563 4)" stroke="#A95210"/>
</g>
<path d="M84.6731 27.5192V28.8795H79.676V27.5192H84.6731ZM80.1545 18.9264V28.8795H78.4387V18.9264H80.1545ZM86.7108 25.2633V25.1061C86.7108 24.5729 86.7882 24.0784 86.9432 23.6227C87.0981 23.1624 87.3214 22.7636 87.6131 22.4264C87.9093 22.0846 88.2693 21.8203 88.6932 21.6334C89.1216 21.442 89.6046 21.3463 90.1424 21.3463C90.6847 21.3463 91.1678 21.442 91.5916 21.6334C92.02 21.8203 92.3823 22.0846 92.6785 22.4264C92.9747 22.7636 93.2003 23.1624 93.3553 23.6227C93.5102 24.0784 93.5877 24.5729 93.5877 25.1061V25.2633C93.5877 25.7965 93.5102 26.291 93.3553 26.7467C93.2003 27.2024 92.9747 27.6012 92.6785 27.943C92.3823 28.2802 92.0223 28.5446 91.5984 28.736C91.1746 28.9228 90.6938 29.0162 90.1561 29.0162C89.6137 29.0162 89.1284 28.9228 88.7 28.736C88.2762 28.5446 87.9162 28.2802 87.6199 27.943C87.3237 27.6012 87.0981 27.2024 86.9432 26.7467C86.7882 26.291 86.7108 25.7965 86.7108 25.2633ZM88.3582 25.1061V25.2633C88.3582 25.596 88.3924 25.9104 88.4608 26.2067C88.5291 26.5029 88.6362 26.7627 88.782 26.986C88.9279 27.2093 89.1147 27.3847 89.3426 27.5123C89.5705 27.6399 89.8416 27.7037 90.1561 27.7037C90.4614 27.7037 90.7257 27.6399 90.949 27.5123C91.1769 27.3847 91.3637 27.2093 91.5096 26.986C91.6554 26.7627 91.7625 26.5029 91.8309 26.2067C91.9038 25.9104 91.9402 25.596 91.9402 25.2633V25.1061C91.9402 24.778 91.9038 24.4681 91.8309 24.1764C91.7625 23.8802 91.6531 23.6181 91.5027 23.3903C91.3569 23.1624 91.1701 22.9847 90.9422 22.8571C90.7189 22.7249 90.4523 22.6588 90.1424 22.6588C89.8325 22.6588 89.5636 22.7249 89.3358 22.8571C89.1124 22.9847 88.9279 23.1624 88.782 23.3903C88.6362 23.6181 88.5291 23.8802 88.4608 24.1764C88.3924 24.4681 88.3582 24.778 88.3582 25.1061ZM98.4554 27.5739L100.267 21.483H101.976L99.4056 28.8795H98.3392L98.4554 27.5739ZM97.0677 21.483L98.9134 27.6012L99.0023 28.8795H97.9359L95.3519 21.483H97.0677ZM107.35 29.0162C106.803 29.0162 106.308 28.9274 105.866 28.7496C105.429 28.5673 105.055 28.3144 104.745 27.9908C104.44 27.6673 104.205 27.2867 104.041 26.8492C103.877 26.4117 103.795 25.9401 103.795 25.4342V25.1608C103.795 24.582 103.879 24.0579 104.048 23.5885C104.216 23.1191 104.451 22.7181 104.752 22.3854C105.053 22.0481 105.408 21.7906 105.818 21.6129C106.228 21.4352 106.673 21.3463 107.151 21.3463C107.68 21.3463 108.143 21.4352 108.539 21.6129C108.935 21.7906 109.264 22.0413 109.523 22.3649C109.788 22.6839 109.984 23.0644 110.111 23.5065C110.243 23.9485 110.31 24.4362 110.31 24.9694V25.6735H104.595V24.4908H108.683V24.361C108.673 24.0647 108.614 23.7867 108.505 23.527C108.4 23.2672 108.238 23.0576 108.019 22.8981C107.801 22.7386 107.509 22.6588 107.144 22.6588C106.871 22.6588 106.627 22.7181 106.413 22.8365C106.203 22.9505 106.028 23.1168 105.887 23.3356C105.745 23.5543 105.636 23.8186 105.559 24.1285C105.486 24.4339 105.449 24.778 105.449 25.1608V25.4342C105.449 25.7578 105.492 26.0586 105.579 26.3365C105.67 26.61 105.802 26.8492 105.976 27.0543C106.149 27.2594 106.358 27.4212 106.604 27.5397C106.851 27.6536 107.131 27.7106 107.445 27.7106C107.842 27.7106 108.195 27.6308 108.505 27.4713C108.815 27.3118 109.084 27.0862 109.311 26.7946L110.18 27.6354C110.02 27.8678 109.813 28.0911 109.558 28.3053C109.302 28.5149 108.99 28.6858 108.621 28.818C108.256 28.9502 107.833 29.0162 107.35 29.0162ZM117.625 18.9264H121.146C121.902 18.9264 122.547 19.0403 123.08 19.2682C123.613 19.4961 124.021 19.8333 124.304 20.2799C124.591 20.722 124.734 21.2688 124.734 21.9205C124.734 22.4173 124.643 22.8548 124.461 23.233C124.279 23.6113 124.021 23.9303 123.689 24.1901C123.356 24.4453 122.959 24.6435 122.499 24.7848L121.98 25.0377H118.815L118.801 23.6774H121.173C121.583 23.6774 121.925 23.6045 122.198 23.4586C122.472 23.3128 122.677 23.1145 122.814 22.8639C122.955 22.6087 123.025 22.3216 123.025 22.0026C123.025 21.6562 122.957 21.3554 122.82 21.1002C122.688 20.8405 122.483 20.6422 122.205 20.5055C121.927 20.3642 121.574 20.2936 121.146 20.2936H119.341V28.8795H117.625V18.9264ZM123.306 28.8795L120.968 24.4088L122.766 24.402L125.138 28.7906V28.8795H123.306ZM130.73 29.0162C130.183 29.0162 129.689 28.9274 129.247 28.7496C128.809 28.5673 128.435 28.3144 128.126 27.9908C127.82 27.6673 127.586 27.2867 127.421 26.8492C127.257 26.4117 127.175 25.9401 127.175 25.4342V25.1608C127.175 24.582 127.26 24.0579 127.428 23.5885C127.597 23.1191 127.832 22.7181 128.132 22.3854C128.433 22.0481 128.789 21.7906 129.199 21.6129C129.609 21.4352 130.053 21.3463 130.532 21.3463C131.06 21.3463 131.523 21.4352 131.92 21.6129C132.316 21.7906 132.644 22.0413 132.904 22.3649C133.168 22.6839 133.364 23.0644 133.492 23.5065C133.624 23.9485 133.69 24.4362 133.69 24.9694V25.6735H127.975V24.4908H132.063V24.361C132.054 24.0647 131.995 23.7867 131.885 23.527C131.781 23.2672 131.619 23.0576 131.4 22.8981C131.181 22.7386 130.89 22.6588 130.525 22.6588C130.252 22.6588 130.008 22.7181 129.794 22.8365C129.584 22.9505 129.408 23.1168 129.267 23.3356C129.126 23.5543 129.017 23.8186 128.939 24.1285C128.866 24.4339 128.83 24.778 128.83 25.1608V25.4342C128.83 25.7578 128.873 26.0586 128.96 26.3365C129.051 26.61 129.183 26.8492 129.356 27.0543C129.529 27.2594 129.739 27.4212 129.985 27.5397C130.231 27.6536 130.511 27.7106 130.826 27.7106C131.222 27.7106 131.575 27.6308 131.885 27.4713C132.195 27.3118 132.464 27.0862 132.692 26.7946L133.56 27.6354C133.401 27.8678 133.193 28.0911 132.938 28.3053C132.683 28.5149 132.371 28.6858 132.002 28.818C131.637 28.9502 131.213 29.0162 130.73 29.0162ZM137.929 18.3795V28.8795H136.275V18.3795H137.929ZM145.093 27.3961V23.8688C145.093 23.6045 145.046 23.3766 144.95 23.1852C144.854 22.9938 144.708 22.8457 144.512 22.7408C144.321 22.636 144.079 22.5836 143.788 22.5836C143.519 22.5836 143.287 22.6292 143.091 22.7203C142.895 22.8115 142.742 22.9345 142.633 23.0895C142.523 23.2444 142.468 23.4199 142.468 23.6158H140.828C140.828 23.3242 140.898 23.0416 141.04 22.7682C141.181 22.4948 141.386 22.2509 141.655 22.0367C141.924 21.8226 142.245 21.6539 142.619 21.5309C142.993 21.4078 143.412 21.3463 143.877 21.3463C144.433 21.3463 144.925 21.4397 145.353 21.6266C145.786 21.8134 146.126 22.096 146.372 22.4742C146.622 22.8479 146.748 23.3173 146.748 23.8824V27.1705C146.748 27.5078 146.771 27.8108 146.816 28.0797C146.866 28.344 146.937 28.5742 147.028 28.7701V28.8795H145.34C145.262 28.7018 145.201 28.4762 145.155 28.2028C145.114 27.9248 145.093 27.6559 145.093 27.3961ZM145.333 24.3815L145.346 25.4H144.164C143.858 25.4 143.59 25.4296 143.357 25.4889C143.125 25.5436 142.931 25.6256 142.776 25.735C142.621 25.8444 142.505 25.9765 142.427 26.1315C142.35 26.2864 142.311 26.4619 142.311 26.6578C142.311 26.8538 142.357 27.0338 142.448 27.1979C142.539 27.3574 142.671 27.4827 142.844 27.5739C143.022 27.665 143.236 27.7106 143.487 27.7106C143.824 27.7106 144.118 27.6422 144.369 27.5055C144.624 27.3642 144.825 27.1933 144.97 26.9928C145.116 26.7877 145.194 26.594 145.203 26.4117L145.736 27.1432C145.681 27.33 145.588 27.5306 145.456 27.7448C145.324 27.9589 145.15 28.164 144.936 28.36C144.727 28.5514 144.474 28.7086 144.177 28.8317C143.886 28.9547 143.549 29.0162 143.166 29.0162C142.683 29.0162 142.252 28.9205 141.874 28.7291C141.496 28.5332 141.199 28.2711 140.985 27.943C140.771 27.6103 140.664 27.2343 140.664 26.8151C140.664 26.4231 140.737 26.0768 140.883 25.776C141.033 25.4707 141.252 25.2155 141.539 25.0104C141.83 24.8053 142.186 24.6503 142.605 24.5455C143.024 24.4362 143.503 24.3815 144.041 24.3815H145.333ZM153.051 21.483V22.6862H148.881V21.483H153.051ZM150.084 19.6715H151.732V26.8356C151.732 27.0634 151.764 27.2389 151.827 27.3619C151.896 27.4804 151.989 27.5602 152.108 27.6012C152.226 27.6422 152.365 27.6627 152.525 27.6627C152.639 27.6627 152.748 27.6559 152.853 27.6422C152.958 27.6285 153.042 27.6149 153.106 27.6012L153.113 28.859C152.976 28.9 152.816 28.9365 152.634 28.9684C152.456 29.0003 152.251 29.0162 152.019 29.0162C151.641 29.0162 151.306 28.9502 151.014 28.818C150.722 28.6813 150.494 28.4602 150.33 28.1549C150.166 27.8496 150.084 27.444 150.084 26.9381V19.6715ZM158.773 29.0162C158.226 29.0162 157.732 28.9274 157.29 28.7496C156.852 28.5673 156.479 28.3144 156.169 27.9908C155.863 27.6673 155.629 27.2867 155.465 26.8492C155.301 26.4117 155.219 25.9401 155.219 25.4342V25.1608C155.219 24.582 155.303 24.0579 155.472 23.5885C155.64 23.1191 155.875 22.7181 156.176 22.3854C156.476 22.0481 156.832 21.7906 157.242 21.6129C157.652 21.4352 158.097 21.3463 158.575 21.3463C159.104 21.3463 159.566 21.4352 159.963 21.6129C160.359 21.7906 160.687 22.0413 160.947 22.3649C161.211 22.6839 161.407 23.0644 161.535 23.5065C161.667 23.9485 161.733 24.4362 161.733 24.9694V25.6735H156.018V24.4908H160.106V24.361C160.097 24.0647 160.038 23.7867 159.929 23.527C159.824 23.2672 159.662 23.0576 159.443 22.8981C159.224 22.7386 158.933 22.6588 158.568 22.6588C158.295 22.6588 158.051 22.7181 157.837 22.8365C157.627 22.9505 157.452 23.1168 157.31 23.3356C157.169 23.5543 157.06 23.8186 156.982 24.1285C156.909 24.4339 156.873 24.778 156.873 25.1608V25.4342C156.873 25.7578 156.916 26.0586 157.003 26.3365C157.094 26.61 157.226 26.8492 157.399 27.0543C157.572 27.2594 157.782 27.4212 158.028 27.5397C158.274 27.6536 158.555 27.7106 158.869 27.7106C159.265 27.7106 159.619 27.6308 159.929 27.4713C160.238 27.3118 160.507 27.0862 160.735 26.7946L161.603 27.6354C161.444 27.8678 161.237 28.0911 160.981 28.3053C160.726 28.5149 160.414 28.6858 160.045 28.818C159.68 28.9502 159.256 29.0162 158.773 29.0162ZM168.72 27.3483V18.3795H170.374V28.8795H168.877L168.72 27.3483ZM163.908 25.2633V25.1198C163.908 24.5592 163.974 24.0488 164.106 23.5885C164.238 23.1237 164.429 22.7249 164.68 22.3922C164.931 22.055 165.236 21.7975 165.596 21.6198C165.956 21.4375 166.362 21.3463 166.813 21.3463C167.26 21.3463 167.651 21.4329 167.989 21.6061C168.326 21.7793 168.613 22.0276 168.85 22.3512C169.087 22.6702 169.276 23.053 169.417 23.4996C169.559 23.9417 169.659 24.4339 169.718 24.9762V25.4342C169.659 25.9628 169.559 26.4459 169.417 26.8834C169.276 27.3209 169.087 27.6992 168.85 28.0182C168.613 28.3372 168.324 28.5833 167.982 28.7565C167.645 28.9296 167.25 29.0162 166.799 29.0162C166.353 29.0162 165.949 28.9228 165.589 28.736C165.234 28.5491 164.931 28.2871 164.68 27.9498C164.429 27.6126 164.238 27.2161 164.106 26.7604C163.974 26.3001 163.908 25.8011 163.908 25.2633ZM165.555 25.1198V25.2633C165.555 25.6005 165.585 25.915 165.644 26.2067C165.708 26.4983 165.806 26.7558 165.938 26.9791C166.07 27.1979 166.241 27.3711 166.451 27.4987C166.665 27.6217 166.92 27.6832 167.216 27.6832C167.59 27.6832 167.898 27.6012 168.139 27.4371C168.381 27.2731 168.57 27.052 168.706 26.774C168.848 26.4915 168.943 26.177 168.994 25.8307V24.5934C168.966 24.3245 168.909 24.0739 168.823 23.8414C168.741 23.609 168.629 23.4062 168.488 23.233C168.346 23.0553 168.171 22.9186 167.961 22.8229C167.756 22.7226 167.512 22.6725 167.23 22.6725C166.929 22.6725 166.674 22.7363 166.464 22.8639C166.255 22.9915 166.081 23.167 165.945 23.3903C165.813 23.6136 165.715 23.8733 165.651 24.1696C165.587 24.4658 165.555 24.7825 165.555 25.1198ZM82.219 45.1676H79.6282V43.8073H82.219C82.6702 43.8073 83.0347 43.7343 83.3127 43.5885C83.5907 43.4427 83.7935 43.2421 83.9211 42.9869C84.0533 42.7272 84.1194 42.4309 84.1194 42.0983C84.1194 41.7838 84.0533 41.4899 83.9211 41.2164C83.7935 40.9384 83.5907 40.7151 83.3127 40.5465C83.0347 40.3779 82.6702 40.2936 82.219 40.2936H80.1545V48.8795H78.4387V38.9264H82.219C82.9892 38.9264 83.6431 39.0631 84.1809 39.3365C84.7232 39.6054 85.1357 39.9791 85.4182 40.4576C85.7008 40.9316 85.842 41.4739 85.842 42.0846C85.842 42.7272 85.7008 43.2786 85.4182 43.7389C85.1357 44.1992 84.7232 44.5524 84.1809 44.7985C83.6431 45.0446 82.9892 45.1676 82.219 45.1676ZM90.0604 42.8912V48.8795H88.4129V41.483H89.9852L90.0604 42.8912ZM92.3231 41.4352L92.3094 42.9664C92.2091 42.9482 92.0997 42.9345 91.9813 42.9254C91.8673 42.9163 91.7534 42.9117 91.6395 42.9117C91.3569 42.9117 91.1085 42.9528 90.8943 43.0348C90.6802 43.1123 90.5001 43.2262 90.3543 43.3766C90.213 43.5224 90.1037 43.7002 90.0262 43.9098C89.9487 44.1194 89.9031 44.3541 89.8895 44.6139L89.5135 44.6412C89.5135 44.1764 89.5591 43.7457 89.6502 43.3492C89.7414 42.9528 89.8781 42.6041 90.0604 42.3033C90.2472 42.0026 90.4796 41.7679 90.7576 41.5992C91.0402 41.4306 91.366 41.3463 91.7352 41.3463C91.8354 41.3463 91.9425 41.3554 92.0565 41.3737C92.1749 41.3919 92.2638 41.4124 92.3231 41.4352ZM94.0531 45.2633V45.1061C94.0531 44.5729 94.1306 44.0784 94.2855 43.6227C94.4405 43.1624 94.6638 42.7636 94.9554 42.4264C95.2517 42.0846 95.6117 41.8203 96.0355 41.6334C96.4639 41.442 96.947 41.3463 97.4847 41.3463C98.0271 41.3463 98.5101 41.442 98.934 41.6334C99.3623 41.8203 99.7246 42.0846 100.021 42.4264C100.317 42.7636 100.543 43.1624 100.698 43.6227C100.853 44.0784 100.93 44.5729 100.93 45.1061V45.2633C100.93 45.7965 100.853 46.291 100.698 46.7467C100.543 47.2024 100.317 47.6012 100.021 47.943C99.7246 48.2802 99.3646 48.5446 98.9408 48.736C98.517 48.9228 98.0362 49.0162 97.4984 49.0162C96.9561 49.0162 96.4707 48.9228 96.0424 48.736C95.6185 48.5446 95.2585 48.2802 94.9623 47.943C94.6661 47.6012 94.4405 47.2024 94.2855 46.7467C94.1306 46.291 94.0531 45.7965 94.0531 45.2633ZM95.7006 45.1061V45.2633C95.7006 45.596 95.7347 45.9104 95.8031 46.2067C95.8715 46.5029 95.9786 46.7627 96.1244 46.986C96.2702 47.2093 96.4571 47.3847 96.6849 47.5123C96.9128 47.6399 97.184 47.7037 97.4984 47.7037C97.8037 47.7037 98.0681 47.6399 98.2914 47.5123C98.5192 47.3847 98.7061 47.2093 98.8519 46.986C98.9978 46.7627 99.1049 46.5029 99.1732 46.2067C99.2461 45.9104 99.2826 45.596 99.2826 45.2633V45.1061C99.2826 44.778 99.2461 44.4681 99.1732 44.1764C99.1049 43.8802 98.9955 43.6181 98.8451 43.3903C98.6993 43.1624 98.5124 42.9847 98.2845 42.8571C98.0612 42.7249 97.7946 42.6588 97.4847 42.6588C97.1748 42.6588 96.906 42.7249 96.6781 42.8571C96.4548 42.9847 96.2702 43.1624 96.1244 43.3903C95.9786 43.6181 95.8715 43.8802 95.8031 44.1764C95.7347 44.4681 95.7006 44.778 95.7006 45.1061ZM103.508 38.3795H105.155V47.3004L104.998 48.8795H103.508V38.3795ZM109.981 45.1129V45.2565C109.981 45.8033 109.92 46.3069 109.797 46.7672C109.678 47.2229 109.496 47.6194 109.25 47.9567C109.008 48.2939 108.708 48.5559 108.348 48.7428C107.992 48.9251 107.58 49.0162 107.11 49.0162C106.65 49.0162 106.249 48.9296 105.907 48.7565C105.565 48.5833 105.278 48.3372 105.046 48.0182C104.818 47.6992 104.633 47.3186 104.492 46.8766C104.351 46.4345 104.251 45.9469 104.191 45.4137V44.9557C104.251 44.4179 104.351 43.9303 104.492 43.4928C104.633 43.0507 104.818 42.6702 105.046 42.3512C105.278 42.0276 105.563 41.7793 105.9 41.6061C106.242 41.4329 106.641 41.3463 107.097 41.3463C107.571 41.3463 107.988 41.4375 108.348 41.6198C108.712 41.802 109.015 42.0618 109.257 42.399C109.498 42.7317 109.678 43.1282 109.797 43.5885C109.92 44.0488 109.981 44.5569 109.981 45.1129ZM108.334 45.2565V45.1129C108.334 44.7802 108.307 44.4681 108.252 44.1764C108.197 43.8802 108.106 43.6204 107.978 43.3971C107.855 43.1738 107.687 42.9983 107.473 42.8707C107.263 42.7386 107.001 42.6725 106.686 42.6725C106.395 42.6725 106.144 42.7226 105.935 42.8229C105.725 42.9231 105.549 43.0599 105.408 43.233C105.267 43.4062 105.155 43.6067 105.073 43.8346C104.996 44.0625 104.943 44.3086 104.916 44.5729V45.8102C104.957 46.152 105.044 46.4664 105.176 46.7535C105.312 47.0361 105.504 47.264 105.75 47.4371C105.996 47.6058 106.313 47.6901 106.7 47.6901C107.005 47.6901 107.263 47.6285 107.473 47.5055C107.682 47.3824 107.849 47.2115 107.972 46.9928C108.099 46.7695 108.19 46.5097 108.245 46.2135C108.304 45.9173 108.334 45.5983 108.334 45.2565ZM114.33 38.3795V48.8795H112.675V38.3795H114.33ZM120.585 49.0162C120.038 49.0162 119.544 48.9274 119.102 48.7496C118.664 48.5673 118.29 48.3144 117.981 47.9908C117.675 47.6673 117.44 47.2867 117.276 46.8492C117.112 46.4117 117.03 45.9401 117.03 45.4342V45.1608C117.03 44.582 117.115 44.0579 117.283 43.5885C117.452 43.1191 117.687 42.7181 117.987 42.3854C118.288 42.0481 118.644 41.7906 119.054 41.6129C119.464 41.4352 119.908 41.3463 120.387 41.3463C120.915 41.3463 121.378 41.4352 121.774 41.6129C122.171 41.7906 122.499 42.0413 122.759 42.3649C123.023 42.6839 123.219 43.0644 123.347 43.5065C123.479 43.9485 123.545 44.4362 123.545 44.9694V45.6735H117.83V44.4908H121.918V44.361C121.909 44.0647 121.85 43.7867 121.74 43.527C121.635 43.2672 121.474 43.0576 121.255 42.8981C121.036 42.7386 120.745 42.6588 120.38 42.6588C120.106 42.6588 119.863 42.7181 119.648 42.8365C119.439 42.9505 119.263 43.1168 119.122 43.3356C118.981 43.5543 118.871 43.8186 118.794 44.1285C118.721 44.4339 118.685 44.778 118.685 45.1608V45.4342C118.685 45.7578 118.728 46.0586 118.815 46.3365C118.906 46.61 119.038 46.8492 119.211 47.0543C119.384 47.2594 119.594 47.4212 119.84 47.5397C120.086 47.6536 120.366 47.7106 120.681 47.7106C121.077 47.7106 121.43 47.6308 121.74 47.4713C122.05 47.3118 122.319 47.0862 122.547 46.7946L123.415 47.6354C123.256 47.8678 123.048 48.0911 122.793 48.3053C122.538 48.5149 122.226 48.6858 121.856 48.818C121.492 48.9502 121.068 49.0162 120.585 49.0162ZM127.668 42.9869V48.8795H126.02V41.483H127.572L127.668 42.9869ZM127.401 44.9078L126.84 44.901C126.84 44.3906 126.904 43.9189 127.032 43.486C127.159 43.053 127.346 42.677 127.592 42.358C127.838 42.0345 128.144 41.7861 128.508 41.6129C128.878 41.4352 129.304 41.3463 129.787 41.3463C130.124 41.3463 130.432 41.3964 130.71 41.4967C130.992 41.5924 131.236 41.7451 131.441 41.9547C131.651 42.1643 131.81 42.4332 131.92 42.7614C132.033 43.0895 132.09 43.486 132.09 43.9508V48.8795H130.443V44.0944C130.443 43.7343 130.388 43.4518 130.279 43.2467C130.174 43.0416 130.021 42.8958 129.821 42.8092C129.625 42.7181 129.39 42.6725 129.117 42.6725C128.807 42.6725 128.543 42.7317 128.324 42.8502C128.11 42.9687 127.934 43.1305 127.797 43.3356C127.661 43.5406 127.56 43.7776 127.497 44.0465C127.433 44.3154 127.401 44.6025 127.401 44.9078ZM131.988 44.4703L131.215 44.6412C131.215 44.1946 131.277 43.7731 131.4 43.3766C131.528 42.9755 131.712 42.6246 131.954 42.3239C132.2 42.0185 132.503 41.7793 132.863 41.6061C133.223 41.4329 133.635 41.3463 134.1 41.3463C134.478 41.3463 134.816 41.3987 135.112 41.5035C135.413 41.6038 135.668 41.7633 135.878 41.9821C136.087 42.2008 136.247 42.4856 136.356 42.8365C136.465 43.1829 136.52 43.6022 136.52 44.0944V48.8795H134.866V44.0875C134.866 43.7138 134.811 43.4244 134.702 43.2194C134.597 43.0143 134.447 42.873 134.251 42.7955C134.055 42.7135 133.82 42.6725 133.546 42.6725C133.291 42.6725 133.066 42.7203 132.87 42.816C132.678 42.9072 132.517 43.0371 132.384 43.2057C132.252 43.3698 132.152 43.5589 132.084 43.7731C132.02 43.9873 131.988 44.2197 131.988 44.4703Z" fill="#6B6B6B"/>
<path d="M59.6602 4H12.2738C7.70431 4 4 7.70431 4 12.2738V52.8907C4 57.4602 7.70431 61.1645 12.2738 61.1645H59.6602V4Z" fill="#A95210"/>
<path d="M22.9998 30.2293C24.9471 30.2293 26.5257 28.6507 26.5257 26.7034C26.5257 24.7561 24.9471 23.1775 22.9998 23.1775C21.0525 23.1775 19.4739 24.7561 19.4739 26.7034C19.4739 28.6507 21.0525 30.2293 22.9998 30.2293Z" stroke="#FCFCFC" stroke-width="0.752353" stroke-linecap="round" stroke-linejoin="round"/>
<path d="M42.979 30.2293C44.9264 30.2293 46.505 28.6507 46.505 26.7034C46.505 24.7561 44.9264 23.1775 42.979 23.1775C41.0317 23.1775 39.4531 24.7561 39.4531 26.7034C39.4531 28.6507 41.0317 30.2293 42.979 30.2293Z" stroke="#FCFCFC" stroke-width="0.752353" stroke-linecap="round" stroke-linejoin="round"/>
<path d="M21.8722 43.1572V46.9592C21.8722 47.6139 21.3457 48.1415 20.6911 48.1415C20.5357 48.142 20.3817 48.1117 20.2381 48.0524C20.0944 47.9932 19.9639 47.9062 19.854 47.7963C19.7442 47.6864 19.6571 47.5559 19.5978 47.4122C19.5386 47.2686 19.5083 47.1146 19.5088 46.9592V43.1572M26.538 43.1572V46.9592C26.538 47.6139 26.0115 48.1415 25.3569 48.1415C25.2016 48.1418 25.0478 48.1115 24.9043 48.0521C24.7607 47.9928 24.6303 47.9057 24.5206 47.7958C24.4108 47.686 24.3239 47.5555 24.2647 47.4119C24.2055 47.2684 24.1753 47.1145 24.1757 46.9592V43.1572" stroke="#FCFCFC" stroke-width="0.752164" stroke-linecap="round" stroke-linejoin="round"/>
<path d="M42.9809 44.3419V47.5293C42.9809 48.1839 42.4543 48.7104 41.7997 48.7104C41.6444 48.7109 41.4906 48.6806 41.347 48.6214C41.2034 48.5623 41.073 48.4753 40.9631 48.3655C40.8532 48.2557 40.7661 48.1254 40.7068 47.9819C40.6475 47.8384 40.6171 47.6845 40.6174 47.5293V44.3419M45.3654 44.3231V47.5105C45.3654 48.1651 44.8378 48.6916 44.1832 48.6916C44.028 48.6919 43.8743 48.6615 43.7308 48.6023C43.5874 48.543 43.457 48.456 43.3473 48.3463C43.2375 48.2365 43.1506 48.1062 43.0913 47.9628C43.0321 47.8194 43.0017 47.6657 43.002 47.5105V44.3231" stroke="#FCFCFC" stroke-width="0.752164" stroke-linecap="round" stroke-linejoin="round"/>
<path d="M30.9579 16.7292C29.4231 16.7292 28.1785 17.7928 28.1785 19.7285C28.1785 21.6641 30.7722 23.5281 32.997 25.5272C35.2206 23.5281 37.8273 21.6876 37.8273 19.7285C37.8273 17.7693 36.5815 16.7281 35.0467 16.7281C34.2381 16.7281 33.5047 17.3333 32.997 17.928C32.4893 17.3369 31.7653 16.7292 30.9579 16.7292Z" stroke="#FCFCFC" stroke-width="0.752164" stroke-linecap="round" stroke-linejoin="round"/>
<path d="M37.1035 34.0291V38.0273C37.1035 38.2647 37.2798 38.4562 37.4972 38.4562H39.0603C39.2777 38.4562 39.454 38.2647 39.454 38.0273V31.5093" stroke="#FCFCFC" stroke-width="0.752164" stroke-linecap="round" stroke-linejoin="round"/>
<path d="M37.1128 34.0902C37.1761 33.3573 37.5119 32.6749 38.0539 32.1776C38.596 31.6804 39.3048 31.4046 40.0403 31.4047" stroke="#FCFCFC" stroke-width="0.751819" stroke-linecap="round" stroke-linejoin="round"/>
<path d="M48.8561 34.0562V38.0273C48.8561 38.2647 48.6798 38.4563 48.4612 38.4563H46.8981C46.6807 38.4563 46.5056 38.2647 46.5056 38.0273V31.5552" stroke="#FCFCFC" stroke-width="0.752164" stroke-linecap="round" stroke-linejoin="round"/>
<path d="M48.8443 34.0902C48.7811 33.3573 48.4453 32.6749 47.9032 32.1776C47.3612 31.6804 46.6523 31.4046 45.9167 31.4047" stroke="#FCFCFC" stroke-width="0.751819" stroke-linecap="round" stroke-linejoin="round"/>
<path d="M39.4517 31.4859V43.1573C39.4517 43.8119 39.9723 44.3325 40.6269 44.3325H45.3279C45.4827 44.334 45.6361 44.3045 45.7794 44.246C45.9226 44.1874 46.0527 44.1009 46.1621 43.9915C46.2715 43.882 46.3581 43.7519 46.4166 43.6087C46.4752 43.4655 46.5046 43.312 46.5032 43.1573L46.4115 31.594M45.932 31.4059H40.0229M39.454 39.6751H46.6466M42.9857 43.8824V42.5991" stroke="#FCFCFC" stroke-width="0.752164"/>
<path d="M21.2374 31.4047C17.1334 41.9726 21.2398 31.4047 17.124 41.982C17.124 42.6366 17.5918 43.1572 18.1888 43.1572H27.813C28.4088 43.1572 29.0634 42.6754 28.8777 41.982C24.7808 31.4481 28.9142 41.982 24.7643 31.4047H21.2374V31.4047Z" stroke="#FCFCFC" stroke-width="0.752164" stroke-linecap="round" stroke-linejoin="round"/>
<path d="M17.7106 30.2294C16.737 30.2294 15.9477 29.4401 15.9477 28.4664C15.9477 27.4927 16.737 26.7034 17.7106 26.7034C18.6843 26.7034 19.4736 27.4927 19.4736 28.4664C19.4736 29.4401 18.6843 30.2294 17.7106 30.2294Z" stroke="#FCFCFC" stroke-width="0.752132"/>
</g>
<defs>
<filter id="filter0_d_1_22554" x="0" y="0" width="203.563" height="65.1645" filterUnits="userSpaceOnUse" color-interpolation-filters="sRGB">
<feFlood flood-opacity="0" result="BackgroundImageFix"/>
<feColorMatrix in="SourceAlpha" type="matrix" values="0 0 0 0 0 0 0 0 0 0 0 0 0 0 0 0 0 0 127 0" result="hardAlpha"/>
<feOffset/>
<feGaussianBlur stdDeviation="2"/>
<feComposite in2="hardAlpha" operator="out"/>
<feColorMatrix type="matrix" values="0 0 0 0 0.662745 0 0 0 0 0.321569 0 0 0 0 0.0627451 0 0 0 0.3 0"/>
<feBlend mode="normal" in2="BackgroundImageFix" result="effect1_dropShadow_1_22554"/>
<feBlend mode="normal" in="SourceGraphic" in2="effect1_dropShadow_1_22554" result="shape"/>
</filter>
<filter id="filter1_b_1_22554" x="0.991343" y="0.991343" width="201.58" height="63.1818" filterUnits="userSpaceOnUse" color-interpolation-filters="sRGB">
<feFlood flood-opacity="0" result="BackgroundImageFix"/>
<feGaussianBlur in="BackgroundImageFix" stdDeviation="1.50433"/>
<feComposite in2="SourceAlpha" operator="in" result="effect1_backgroundBlur_1_22554"/>
<feBlend mode="normal" in="SourceGraphic" in2="effect1_backgroundBlur_1_22554" result="shape"/>
</filter>
</defs>
</svg>
