<svg width="205" height="67" viewBox="0 0 205 67" fill="none" xmlns="http://www.w3.org/2000/svg">
<g filter="url(#filter0_d_1_22641)">
<g filter="url(#filter1_b_1_22641)">
<rect width="195.563" height="57.1645" rx="8.27381" transform="matrix(-1 0 0 1 200.125 4.84619)" fill="#FCFCFC"/>
<rect x="-0.5" y="0.5" width="194.563" height="56.1645" rx="7.77381" transform="matrix(-1 0 0 1 199.125 4.84619)" stroke="#A95210"/>
</g>
<path d="M144.465 62.3514L191.851 62.3514C196.421 62.3514 200.125 58.6471 200.125 54.0776V13.4608C200.125 8.89125 196.421 5.18695 191.851 5.18695L144.465 5.18695V62.3514Z" fill="#A95210"/>
<path d="M30.1025 22.8755V24.2358H24.8184V22.8755H30.1025ZM25.2422 18.7192V28.6724H23.5264V18.7192H25.2422ZM31.4219 18.7192V28.6724H29.7129V18.7192H31.4219ZM38.942 26.9292V21.2759H40.5963V28.6724H39.0377L38.942 26.9292ZM39.1744 25.3911L39.7281 25.3774C39.7281 25.8742 39.6734 26.3322 39.564 26.7515C39.4546 27.1662 39.286 27.5285 39.0582 27.8384C38.8303 28.1437 38.5386 28.383 38.1832 28.5562C37.8277 28.7248 37.4016 28.8091 36.9048 28.8091C36.5448 28.8091 36.2144 28.7567 35.9136 28.6519C35.6129 28.547 35.3531 28.3853 35.1343 28.1665C34.9201 27.9478 34.7538 27.6629 34.6353 27.312C34.5168 26.9611 34.4576 26.5418 34.4576 26.0542V21.2759H36.105V26.0679C36.105 26.3368 36.1369 26.5623 36.2007 26.7446C36.2645 26.9224 36.3511 27.0659 36.4605 27.1753C36.5699 27.2847 36.6975 27.3621 36.8433 27.4077C36.9892 27.4533 37.1441 27.4761 37.3082 27.4761C37.7776 27.4761 38.1467 27.3849 38.4156 27.2026C38.689 27.0158 38.8827 26.7651 38.9966 26.4507C39.1151 26.1362 39.1744 25.783 39.1744 25.3911ZM47.6241 26.6694C47.6241 26.5054 47.5831 26.3573 47.5011 26.2251C47.4191 26.0884 47.2618 25.9653 47.0294 25.856C46.8016 25.7466 46.4643 25.6463 46.0177 25.5552C45.6258 25.4686 45.2657 25.366 44.9376 25.2476C44.6141 25.1245 44.3361 24.9764 44.1036 24.8032C43.8712 24.63 43.6912 24.425 43.5636 24.188C43.436 23.951 43.3722 23.6776 43.3722 23.3677C43.3722 23.0669 43.4383 22.7821 43.5704 22.5132C43.7026 22.2443 43.8917 22.0073 44.1378 21.8022C44.3839 21.5972 44.6824 21.4354 45.0333 21.3169C45.3888 21.1984 45.7853 21.1392 46.2228 21.1392C46.8426 21.1392 47.3735 21.244 47.8155 21.4536C48.2622 21.6587 48.604 21.939 48.8409 22.2944C49.0779 22.6453 49.1964 23.0418 49.1964 23.4839H47.5489C47.5489 23.2879 47.4988 23.1056 47.3986 22.937C47.3029 22.7638 47.157 22.6248 46.9611 22.52C46.7651 22.4106 46.519 22.356 46.2228 22.356C45.9402 22.356 45.7055 22.4015 45.5187 22.4927C45.3364 22.5793 45.1997 22.6932 45.1085 22.8345C45.0219 22.9757 44.9786 23.1307 44.9786 23.2993C44.9786 23.4224 45.0014 23.534 45.047 23.6343C45.0971 23.73 45.1792 23.8188 45.2931 23.9009C45.407 23.9784 45.562 24.0513 45.7579 24.1196C45.9585 24.188 46.2091 24.2541 46.5099 24.3179C47.075 24.4364 47.5603 24.589 47.9659 24.7759C48.3761 24.9582 48.6905 25.1951 48.9093 25.4868C49.128 25.7739 49.2374 26.1385 49.2374 26.5806C49.2374 26.9087 49.1668 27.2095 49.0255 27.4829C48.8888 27.7518 48.6883 27.9865 48.4239 28.187C48.1596 28.383 47.8429 28.5356 47.4738 28.645C47.1092 28.7544 46.699 28.8091 46.2433 28.8091C45.5734 28.8091 45.006 28.6906 44.5411 28.4536C44.0763 28.2121 43.7231 27.9045 43.4816 27.5308C43.2446 27.1525 43.1261 26.7606 43.1261 26.355H44.7189C44.7371 26.6603 44.8214 26.9041 44.9718 27.0864C45.1267 27.2642 45.3182 27.394 45.546 27.4761C45.7784 27.5535 46.0177 27.5923 46.2638 27.5923C46.56 27.5923 46.8084 27.5535 47.0089 27.4761C47.2094 27.394 47.3621 27.2847 47.4669 27.1479C47.5717 27.0067 47.6241 26.8472 47.6241 26.6694ZM51.8766 18.1724H53.5241V27.0933L53.3669 28.6724H51.8766V18.1724ZM58.3503 24.9058V25.0493C58.3503 25.5962 58.2887 26.0998 58.1657 26.5601C58.0472 27.0158 57.8649 27.4123 57.6188 27.7495C57.3773 28.0868 57.0765 28.3488 56.7165 28.5356C56.361 28.7179 55.9486 28.8091 55.4792 28.8091C55.0189 28.8091 54.6179 28.7225 54.2761 28.5493C53.9343 28.3761 53.6471 28.13 53.4147 27.811C53.1869 27.492 53.0023 27.1115 52.861 26.6694C52.7197 26.2274 52.6195 25.7397 52.5602 25.2065V24.7485C52.6195 24.2108 52.7197 23.7231 52.861 23.2856C53.0023 22.8436 53.1869 22.4631 53.4147 22.144C53.6471 21.8205 53.932 21.5721 54.2692 21.3989C54.611 21.2257 55.0098 21.1392 55.4655 21.1392C55.9395 21.1392 56.3565 21.2303 56.7165 21.4126C57.0811 21.5949 57.3841 21.8547 57.6257 22.1919C57.8672 22.5246 58.0472 22.9211 58.1657 23.3813C58.2887 23.8416 58.3503 24.3498 58.3503 24.9058ZM56.7028 25.0493V24.9058C56.7028 24.5731 56.6755 24.2609 56.6208 23.9692C56.5661 23.673 56.4749 23.4132 56.3473 23.1899C56.2243 22.9666 56.0557 22.7912 55.8415 22.6636C55.6318 22.5314 55.3698 22.4653 55.0554 22.4653C54.7637 22.4653 54.513 22.5155 54.3034 22.6157C54.0938 22.716 53.9183 22.8527 53.777 23.0259C53.6358 23.1991 53.5241 23.3996 53.4421 23.6274C53.3646 23.8553 53.3122 24.1014 53.2848 24.3657V25.603C53.3259 25.9448 53.4124 26.2593 53.5446 26.5464C53.6813 26.8289 53.8727 27.0568 54.1188 27.23C54.3649 27.3986 54.6817 27.4829 55.069 27.4829C55.3744 27.4829 55.6318 27.4214 55.8415 27.2983C56.0511 27.1753 56.2175 27.0044 56.3405 26.7856C56.4681 26.5623 56.5593 26.3026 56.6139 26.0063C56.6732 25.7101 56.7028 25.3911 56.7028 25.0493ZM65.1047 27.189V23.6616C65.1047 23.3973 65.0569 23.1694 64.9612 22.978C64.8655 22.7866 64.7196 22.6385 64.5237 22.5337C64.3323 22.4289 64.0907 22.3765 63.7991 22.3765C63.5302 22.3765 63.2978 22.422 63.1018 22.5132C62.9058 22.6043 62.7532 22.7274 62.6438 22.8823C62.5344 23.0373 62.4797 23.2127 62.4797 23.4087H60.8391C60.8391 23.117 60.9097 22.8345 61.051 22.561C61.1923 22.2876 61.3974 22.0438 61.6663 21.8296C61.9351 21.6154 62.2564 21.4468 62.6301 21.3237C63.0038 21.2007 63.4231 21.1392 63.8879 21.1392C64.4439 21.1392 64.9361 21.2326 65.3645 21.4194C65.7974 21.6063 66.137 21.8888 66.383 22.2671C66.6337 22.6408 66.759 23.1102 66.759 23.6753V26.9634C66.759 27.3006 66.7818 27.6037 66.8274 27.8726C66.8775 28.1369 66.9482 28.367 67.0393 28.563V28.6724H65.3508C65.2733 28.4946 65.2118 28.269 65.1663 27.9956C65.1252 27.7176 65.1047 27.4487 65.1047 27.189ZM65.344 24.1743L65.3577 25.1929H64.175C63.8697 25.1929 63.6008 25.2225 63.3684 25.2817C63.136 25.3364 62.9423 25.4185 62.7873 25.5278C62.6324 25.6372 62.5162 25.7694 62.4387 25.9243C62.3612 26.0793 62.3225 26.2547 62.3225 26.4507C62.3225 26.6466 62.3681 26.8267 62.4592 26.9907C62.5504 27.1502 62.6825 27.2756 62.8557 27.3667C63.0334 27.4578 63.2476 27.5034 63.4983 27.5034C63.8355 27.5034 64.1295 27.4351 64.3801 27.2983C64.6353 27.1571 64.8358 26.9862 64.9817 26.7856C65.1275 26.5806 65.205 26.3869 65.2141 26.2046L65.7473 26.936C65.6926 27.1229 65.5992 27.3234 65.467 27.5376C65.3349 27.7518 65.1617 27.9569 64.9475 28.1528C64.7379 28.3442 64.4849 28.5015 64.1887 28.6245C63.897 28.7476 63.5598 28.8091 63.177 28.8091C62.6939 28.8091 62.2633 28.7134 61.885 28.522C61.5067 28.326 61.2105 28.064 60.9963 27.7358C60.7821 27.4032 60.675 27.0272 60.675 26.6079C60.675 26.216 60.748 25.8696 60.8938 25.5688C61.0442 25.2635 61.2629 25.0083 61.55 24.8032C61.8417 24.5981 62.1972 24.4432 62.6164 24.3384C63.0357 24.229 63.5142 24.1743 64.052 24.1743H65.344ZM71.3055 22.855V28.6724H69.658V21.2759H71.2098L71.3055 22.855ZM71.0115 24.7007L70.4783 24.6938C70.4829 24.1698 70.5558 23.689 70.6971 23.2515C70.8429 22.814 71.0434 22.438 71.2986 22.1235C71.5584 21.8091 71.8683 21.5675 72.2283 21.3989C72.5883 21.2257 72.9894 21.1392 73.4314 21.1392C73.7869 21.1392 74.1082 21.1893 74.3953 21.2896C74.687 21.3853 74.9354 21.5425 75.1404 21.7612C75.3501 21.98 75.5096 22.2648 75.6189 22.6157C75.7283 22.9621 75.783 23.3882 75.783 23.894V28.6724H74.1287V23.8872C74.1287 23.5317 74.0763 23.2515 73.9715 23.0464C73.8712 22.8368 73.7231 22.6886 73.5271 22.6021C73.3357 22.5109 73.0965 22.4653 72.8094 22.4653C72.5268 22.4653 72.2739 22.5246 72.0506 22.6431C71.8273 22.7616 71.6382 22.9233 71.4832 23.1284C71.3328 23.3335 71.2166 23.5705 71.1346 23.8394C71.0525 24.1082 71.0115 24.3953 71.0115 24.7007ZM83.1664 27.1411V18.1724H84.8207V28.6724H83.3236L83.1664 27.1411ZM78.3539 25.0562V24.9126C78.3539 24.3521 78.4199 23.8416 78.5521 23.3813C78.6843 22.9165 78.8757 22.5177 79.1263 22.1851C79.377 21.8478 79.6823 21.5903 80.0423 21.4126C80.4024 21.2303 80.808 21.1392 81.2591 21.1392C81.7058 21.1392 82.0977 21.2257 82.4349 21.3989C82.7722 21.5721 83.0593 21.8205 83.2962 22.144C83.5332 22.4631 83.7224 22.8459 83.8636 23.2925C84.0049 23.7345 84.1052 24.2267 84.1644 24.769V25.2271C84.1052 25.7557 84.0049 26.2388 83.8636 26.6763C83.7224 27.1138 83.5332 27.492 83.2962 27.811C83.0593 28.13 82.7699 28.3761 82.4281 28.5493C82.0908 28.7225 81.6966 28.8091 81.2455 28.8091C80.7989 28.8091 80.3955 28.7157 80.0355 28.5288C79.68 28.342 79.377 28.0799 79.1263 27.7427C78.8757 27.4054 78.6843 27.009 78.5521 26.5532C78.4199 26.0929 78.3539 25.5939 78.3539 25.0562ZM80.0013 24.9126V25.0562C80.0013 25.3934 80.0309 25.7078 80.0902 25.9995C80.154 26.2912 80.252 26.5487 80.3841 26.772C80.5163 26.9907 80.6872 27.1639 80.8968 27.2915C81.111 27.4146 81.3662 27.4761 81.6625 27.4761C82.0362 27.4761 82.3438 27.394 82.5853 27.23C82.8268 27.0659 83.016 26.8449 83.1527 26.5669C83.294 26.2843 83.3897 25.9699 83.4398 25.6235V24.3862C83.4125 24.1174 83.3555 23.8667 83.2689 23.6343C83.1869 23.4019 83.0752 23.1991 82.9339 23.0259C82.7927 22.8481 82.6172 22.7114 82.4076 22.6157C82.2025 22.5155 81.9587 22.4653 81.6761 22.4653C81.3754 22.4653 81.1201 22.5291 80.9105 22.6567C80.7009 22.7843 80.5277 22.9598 80.391 23.1831C80.2588 23.4064 80.1608 23.6662 80.097 23.9624C80.0332 24.2586 80.0013 24.5754 80.0013 24.9126ZM95.0688 26.437L97.0513 18.7192H98.0903L97.9741 20.7085L95.855 28.6724H94.7749L95.0688 26.437ZM93.5854 18.7192L95.1919 26.3755L95.3354 28.6724H94.187L91.8833 18.7192H93.5854ZM100.339 26.355L101.925 18.7192H103.634L101.331 28.6724H100.182L100.339 26.355ZM98.4936 18.7192L100.456 26.4575L100.743 28.6724H99.6626L97.5776 20.7085L97.4682 18.7192H98.4936ZM107.695 21.2759V28.6724H106.041V21.2759H107.695ZM105.932 19.3345C105.932 19.0838 106.014 18.8765 106.178 18.7124C106.346 18.5438 106.579 18.4595 106.875 18.4595C107.167 18.4595 107.397 18.5438 107.565 18.7124C107.734 18.8765 107.818 19.0838 107.818 19.3345C107.818 19.5806 107.734 19.7856 107.565 19.9497C107.397 20.1138 107.167 20.1958 106.875 20.1958C106.579 20.1958 106.346 20.1138 106.178 19.9497C106.014 19.7856 105.932 19.5806 105.932 19.3345ZM112.919 28.6724H111.271V20.5649C111.271 20.0135 111.374 19.5509 111.579 19.1772C111.788 18.799 112.087 18.5142 112.474 18.3228C112.862 18.1268 113.32 18.0288 113.848 18.0288C114.012 18.0288 114.174 18.0402 114.334 18.063C114.493 18.0812 114.648 18.1108 114.798 18.1519L114.757 19.4233C114.666 19.4006 114.566 19.3846 114.457 19.3755C114.352 19.3664 114.238 19.3618 114.115 19.3618C113.864 19.3618 113.648 19.4097 113.465 19.5054C113.288 19.5965 113.151 19.731 113.055 19.9087C112.964 20.0864 112.919 20.3052 112.919 20.5649V28.6724ZM114.443 21.2759V22.479H110.136V21.2759H114.443ZM119.926 28.8091C119.379 28.8091 118.885 28.7202 118.443 28.5425C118.005 28.3602 117.631 28.1073 117.321 27.7837C117.016 27.4601 116.781 27.0796 116.617 26.6421C116.453 26.2046 116.371 25.7329 116.371 25.2271V24.9536C116.371 24.3748 116.456 23.8507 116.624 23.3813C116.793 22.9119 117.028 22.5109 117.328 22.1782C117.629 21.841 117.985 21.5835 118.395 21.4058C118.805 21.228 119.249 21.1392 119.728 21.1392C120.256 21.1392 120.719 21.228 121.115 21.4058C121.512 21.5835 121.84 21.8341 122.1 22.1577C122.364 22.4767 122.56 22.8573 122.688 23.2993C122.82 23.7414 122.886 24.229 122.886 24.7622V25.4663H117.171V24.2837H121.259V24.1538C121.25 23.8576 121.191 23.5796 121.081 23.3198C120.976 23.0601 120.815 22.8504 120.596 22.6909C120.377 22.5314 120.085 22.4517 119.721 22.4517C119.447 22.4517 119.204 22.5109 118.989 22.6294C118.78 22.7433 118.604 22.9097 118.463 23.1284C118.322 23.3472 118.212 23.6115 118.135 23.9214C118.062 24.2267 118.026 24.5708 118.026 24.9536V25.2271C118.026 25.5506 118.069 25.8514 118.155 26.1294C118.247 26.4028 118.379 26.6421 118.552 26.8472C118.725 27.0522 118.935 27.214 119.181 27.3325C119.427 27.4465 119.707 27.5034 120.022 27.5034C120.418 27.5034 120.771 27.4237 121.081 27.2642C121.391 27.1047 121.66 26.8791 121.888 26.5874L122.756 27.4282C122.597 27.6606 122.389 27.884 122.134 28.0981C121.879 28.3078 121.567 28.4787 121.197 28.6108C120.833 28.743 120.409 28.8091 119.926 28.8091ZM27.3066 44.9604H24.7158V43.6001H27.3066C27.7578 43.6001 28.1224 43.5272 28.4004 43.3813C28.6784 43.2355 28.8812 43.035 29.0088 42.7798C29.141 42.52 29.207 42.2238 29.207 41.8911C29.207 41.5767 29.141 41.2827 29.0088 41.0093C28.8812 40.7313 28.6784 40.508 28.4004 40.3394C28.1224 40.1707 27.7578 40.0864 27.3066 40.0864H25.2422V48.6724H23.5264V38.7192H27.3066C28.0768 38.7192 28.7308 38.856 29.2686 39.1294C29.8109 39.3983 30.2233 39.772 30.5059 40.2505C30.7884 40.7244 30.9297 41.2668 30.9297 41.8774C30.9297 42.52 30.7884 43.0715 30.5059 43.5317C30.2233 43.992 29.8109 44.3452 29.2686 44.5913C28.7308 44.8374 28.0768 44.9604 27.3066 44.9604ZM35.148 42.6841V48.6724H33.5005V41.2759H35.0728L35.148 42.6841ZM37.4107 41.228L37.397 42.7593C37.2968 42.741 37.1874 42.7274 37.0689 42.7183C36.955 42.7091 36.841 42.7046 36.7271 42.7046C36.4446 42.7046 36.1962 42.7456 35.982 42.8276C35.7678 42.9051 35.5878 43.019 35.442 43.1694C35.3007 43.3153 35.1913 43.493 35.1138 43.7026C35.0364 43.9123 34.9908 44.147 34.9771 44.4067L34.6011 44.4341C34.6011 43.9692 34.6467 43.5386 34.7379 43.1421C34.829 42.7456 34.9657 42.397 35.148 42.0962C35.3349 41.7954 35.5673 41.5607 35.8453 41.3921C36.1278 41.2235 36.4537 41.1392 36.8228 41.1392C36.9231 41.1392 37.0302 41.1483 37.1441 41.1665C37.2626 41.1847 37.3515 41.2052 37.4107 41.228ZM39.1407 45.0562V44.8989C39.1407 44.3657 39.2182 43.8713 39.3732 43.4155C39.5281 42.9552 39.7514 42.5565 40.0431 42.2192C40.3393 41.8774 40.6993 41.6131 41.1232 41.4263C41.5516 41.2349 42.0346 41.1392 42.5724 41.1392C43.1147 41.1392 43.5978 41.2349 44.0216 41.4263C44.45 41.6131 44.8123 41.8774 45.1085 42.2192C45.4047 42.5565 45.6303 42.9552 45.7853 43.4155C45.9402 43.8713 46.0177 44.3657 46.0177 44.8989V45.0562C46.0177 45.5894 45.9402 46.0838 45.7853 46.5396C45.6303 46.9953 45.4047 47.394 45.1085 47.7358C44.8123 48.0731 44.4523 48.3374 44.0284 48.5288C43.6046 48.7157 43.1238 48.8091 42.5861 48.8091C42.0437 48.8091 41.5584 48.7157 41.13 48.5288C40.7062 48.3374 40.3461 48.0731 40.0499 47.7358C39.7537 47.394 39.5281 46.9953 39.3732 46.5396C39.2182 46.0838 39.1407 45.5894 39.1407 45.0562ZM40.7882 44.8989V45.0562C40.7882 45.3888 40.8224 45.7033 40.8907 45.9995C40.9591 46.2957 41.0662 46.5555 41.212 46.7788C41.3579 47.0021 41.5447 47.1776 41.7726 47.3052C42.0004 47.4328 42.2716 47.4966 42.5861 47.4966C42.8914 47.4966 43.1557 47.4328 43.379 47.3052C43.6069 47.1776 43.7937 47.0021 43.9396 46.7788C44.0854 46.5555 44.1925 46.2957 44.2609 45.9995C44.3338 45.7033 44.3702 45.3888 44.3702 45.0562V44.8989C44.3702 44.5708 44.3338 44.2609 44.2609 43.9692C44.1925 43.673 44.0831 43.411 43.9327 43.1831C43.7869 42.9552 43.6001 42.7775 43.3722 42.6499C43.1489 42.5177 42.8823 42.4517 42.5724 42.4517C42.2625 42.4517 41.9936 42.5177 41.7657 42.6499C41.5424 42.7775 41.3579 42.9552 41.212 43.1831C41.0662 43.411 40.9591 43.673 40.8907 43.9692C40.8224 44.2609 40.7882 44.5708 40.7882 44.8989ZM48.5954 38.1724H50.2429V47.0933L50.0856 48.6724H48.5954V38.1724ZM55.069 44.9058V45.0493C55.069 45.5962 55.0075 46.0998 54.8845 46.5601C54.766 47.0158 54.5837 47.4123 54.3376 47.7495C54.096 48.0868 53.7953 48.3488 53.4352 48.5356C53.0798 48.7179 52.6673 48.8091 52.1979 48.8091C51.7376 48.8091 51.3366 48.7225 50.9948 48.5493C50.653 48.3761 50.3659 48.13 50.1335 47.811C49.9056 47.492 49.721 47.1115 49.5798 46.6694C49.4385 46.2274 49.3382 45.7397 49.279 45.2065V44.7485C49.3382 44.2108 49.4385 43.7231 49.5798 43.2856C49.721 42.8436 49.9056 42.4631 50.1335 42.144C50.3659 41.8205 50.6507 41.5721 50.988 41.3989C51.3298 41.2257 51.7285 41.1392 52.1843 41.1392C52.6582 41.1392 53.0752 41.2303 53.4352 41.4126C53.7998 41.5949 54.1029 41.8547 54.3444 42.1919C54.586 42.5246 54.766 42.9211 54.8845 43.3813C55.0075 43.8416 55.069 44.3498 55.069 44.9058ZM53.4216 45.0493V44.9058C53.4216 44.5731 53.3942 44.2609 53.3395 43.9692C53.2848 43.673 53.1937 43.4132 53.0661 43.1899C52.943 42.9666 52.7744 42.7912 52.5602 42.6636C52.3506 42.5314 52.0886 42.4653 51.7741 42.4653C51.4824 42.4653 51.2318 42.5155 51.0221 42.6157C50.8125 42.716 50.6371 42.8527 50.4958 43.0259C50.3545 43.1991 50.2429 43.3996 50.1608 43.6274C50.0833 43.8553 50.0309 44.1014 50.0036 44.3657V45.603C50.0446 45.9448 50.1312 46.2593 50.2634 46.5464C50.4001 46.8289 50.5915 47.0568 50.8376 47.23C51.0837 47.3986 51.4004 47.4829 51.7878 47.4829C52.0931 47.4829 52.3506 47.4214 52.5602 47.2983C52.7699 47.1753 52.9362 47.0044 53.0593 46.7856C53.1869 46.5623 53.278 46.3026 53.3327 46.0063C53.3919 45.7101 53.4216 45.3911 53.4216 45.0493ZM59.4172 38.1724V48.6724H57.7629V38.1724H59.4172ZM65.6727 48.8091C65.1258 48.8091 64.6313 48.7202 64.1893 48.5425C63.7518 48.3602 63.3781 48.1073 63.0682 47.7837C62.7628 47.4601 62.5281 47.0796 62.3641 46.6421C62.2 46.2046 62.118 45.7329 62.118 45.2271V44.9536C62.118 44.3748 62.2023 43.8507 62.3709 43.3813C62.5395 42.9119 62.7742 42.5109 63.075 42.1782C63.3758 41.841 63.7313 41.5835 64.1414 41.4058C64.5516 41.228 64.9959 41.1392 65.4744 41.1392C66.0031 41.1392 66.4656 41.228 66.8621 41.4058C67.2586 41.5835 67.5867 41.8341 67.8465 42.1577C68.1108 42.4767 68.3068 42.8573 68.4344 43.2993C68.5665 43.7414 68.6326 44.229 68.6326 44.7622V45.4663H62.9178V44.2837H67.0057V44.1538C66.9966 43.8576 66.9373 43.5796 66.8279 43.3198C66.7231 43.0601 66.5613 42.8504 66.3426 42.6909C66.1238 42.5314 65.8322 42.4517 65.4676 42.4517C65.1941 42.4517 64.9503 42.5109 64.7361 42.6294C64.5265 42.7433 64.351 42.9097 64.2098 43.1284C64.0685 43.3472 63.9591 43.6115 63.8816 43.9214C63.8087 44.2267 63.7723 44.5708 63.7723 44.9536V45.2271C63.7723 45.5506 63.8156 45.8514 63.9021 46.1294C63.9933 46.4028 64.1255 46.6421 64.2986 46.8472C64.4718 47.0522 64.6814 47.214 64.9275 47.3325C65.1736 47.4465 65.4539 47.5034 65.7684 47.5034C66.1648 47.5034 66.518 47.4237 66.8279 47.2642C67.1378 47.1047 67.4067 46.8791 67.6346 46.5874L68.5027 47.4282C68.3432 47.6606 68.1359 47.884 67.8807 48.0981C67.6255 48.3078 67.3133 48.4787 66.9441 48.6108C66.5796 48.743 66.1557 48.8091 65.6727 48.8091ZM72.7552 42.7798V48.6724H71.1078V41.2759H72.6595L72.7552 42.7798ZM72.4886 44.7007L71.9281 44.6938C71.9281 44.1834 71.9919 43.7118 72.1195 43.2788C72.2471 42.8459 72.4339 42.4699 72.68 42.1509C72.9261 41.8273 73.2315 41.5789 73.5961 41.4058C73.9652 41.228 74.3913 41.1392 74.8744 41.1392C75.2116 41.1392 75.5192 41.1893 75.7972 41.2896C76.0798 41.3853 76.3236 41.5379 76.5287 41.7476C76.7383 41.9572 76.8978 42.2261 77.0072 42.5542C77.1211 42.8823 77.1781 43.2788 77.1781 43.7437V48.6724H75.5306V43.8872C75.5306 43.5272 75.4759 43.2446 75.3666 43.0396C75.2617 42.8345 75.1091 42.6886 74.9086 42.6021C74.7126 42.5109 74.4779 42.4653 74.2045 42.4653C73.8946 42.4653 73.6302 42.5246 73.4115 42.6431C73.1973 42.7616 73.0218 42.9233 72.8851 43.1284C72.7484 43.3335 72.6481 43.5705 72.5843 43.8394C72.5205 44.1082 72.4886 44.3953 72.4886 44.7007ZM77.0755 44.2632L76.3031 44.4341C76.3031 43.9875 76.3646 43.5659 76.4877 43.1694C76.6153 42.7684 76.7998 42.4175 77.0414 42.1167C77.2875 41.8114 77.5905 41.5721 77.9505 41.3989C78.3106 41.2257 78.723 41.1392 79.1879 41.1392C79.5661 41.1392 79.9033 41.1916 80.1996 41.2964C80.5004 41.3966 80.7556 41.5562 80.9652 41.7749C81.1748 41.9937 81.3343 42.2785 81.4437 42.6294C81.5531 42.9757 81.6078 43.395 81.6078 43.8872V48.6724H79.9535V43.8804C79.9535 43.5067 79.8988 43.2173 79.7894 43.0122C79.6846 42.8071 79.5342 42.6659 79.3382 42.5884C79.1423 42.5063 78.9076 42.4653 78.6341 42.4653C78.3789 42.4653 78.1533 42.5132 77.9574 42.6089C77.766 42.7 77.6042 42.8299 77.472 42.9985C77.3399 43.1626 77.2396 43.3517 77.1712 43.5659C77.1074 43.7801 77.0755 44.0125 77.0755 44.2632ZM88.6425 46.6694C88.6425 46.5054 88.6015 46.3573 88.5195 46.2251C88.4374 46.0884 88.2802 45.9653 88.0478 45.856C87.8199 45.7466 87.4827 45.6463 87.0361 45.5552C86.6441 45.4686 86.2841 45.366 85.956 45.2476C85.6324 45.1245 85.3544 44.9764 85.122 44.8032C84.8896 44.63 84.7096 44.425 84.582 44.188C84.4544 43.951 84.3905 43.6776 84.3905 43.3677C84.3905 43.0669 84.4566 42.7821 84.5888 42.5132C84.721 42.2443 84.9101 42.0073 85.1562 41.8022C85.4023 41.5972 85.7008 41.4354 86.0517 41.3169C86.4072 41.1984 86.8036 41.1392 87.2411 41.1392C87.8609 41.1392 88.3919 41.244 88.8339 41.4536C89.2805 41.6587 89.6223 41.939 89.8593 42.2944C90.0963 42.6453 90.2148 43.0418 90.2148 43.4839H88.5673C88.5673 43.2879 88.5172 43.1056 88.4169 42.937C88.3212 42.7638 88.1754 42.6248 87.9794 42.52C87.7835 42.4106 87.5374 42.356 87.2411 42.356C86.9586 42.356 86.7239 42.4015 86.537 42.4927C86.3547 42.5793 86.218 42.6932 86.1269 42.8345C86.0403 42.9757 85.997 43.1307 85.997 43.2993C85.997 43.4224 86.0198 43.534 86.0654 43.6343C86.1155 43.73 86.1975 43.8188 86.3114 43.9009C86.4254 43.9784 86.5803 44.0513 86.7763 44.1196C86.9768 44.188 87.2275 44.2541 87.5282 44.3179C88.0933 44.4364 88.5787 44.589 88.9843 44.7759C89.3945 44.9582 89.7089 45.1951 89.9277 45.4868C90.1464 45.7739 90.2558 46.1385 90.2558 46.5806C90.2558 46.9087 90.1851 47.2095 90.0439 47.4829C89.9072 47.7518 89.7066 47.9865 89.4423 48.187C89.178 48.383 88.8613 48.5356 88.4921 48.645C88.1275 48.7544 87.7174 48.8091 87.2616 48.8091C86.5917 48.8091 86.0243 48.6906 85.5595 48.4536C85.0947 48.2121 84.7415 47.9045 84.4999 47.5308C84.2629 47.1525 84.1445 46.7606 84.1445 46.355H85.7372C85.7555 46.6603 85.8398 46.9041 85.9902 47.0864C86.1451 47.2642 86.3365 47.394 86.5644 47.4761C86.7968 47.5535 87.0361 47.5923 87.2822 47.5923C87.5784 47.5923 87.8267 47.5535 88.0273 47.4761C88.2278 47.394 88.3805 47.2847 88.4853 47.1479C88.5901 47.0067 88.6425 46.8472 88.6425 46.6694Z" fill="#6B6B6B"/>
<g clip-path="url(#clip0_1_22641)">
<path d="M187.057 34.728L184.139 34.0929V32.9281C184.789 32.6544 185.388 32.2655 185.905 31.7693C186.716 30.9902 187.256 30.0199 187.479 28.9641C188.44 28.8456 189.185 28.0559 189.185 27.1018C189.185 26.6024 188.98 26.1295 188.617 25.7791V21.4726C188.617 18.7961 186.348 16.6188 183.561 16.6188V16.6331C183.227 16.2444 182.723 15.9956 182.159 15.9946H182.15C182.144 15.9946 182.138 15.9946 182.131 15.9946C180.265 15.9946 178.495 16.7052 177.146 17.9967C175.764 19.3203 175.002 21.0703 175.002 22.9242V25.8019C174.654 26.1499 174.457 26.6147 174.457 27.1019C174.457 27.438 174.55 27.7535 174.711 28.0267C174.203 27.8982 173.674 27.8319 173.134 27.8348C172.128 27.842 171.18 28.0943 170.349 28.5317V27.8335C170.349 25.6782 168.912 23.7951 166.772 23.1479L166.551 23.8204C168.383 24.3747 169.615 25.9874 169.615 27.8335V28.9882C168.361 29.8989 167.485 31.2752 167.262 32.8468C166.461 33.356 165.53 33.6249 164.561 33.6249C163.251 33.6249 162.018 33.1349 161.091 32.2453C160.164 31.3549 159.654 30.1718 159.654 28.9138V28.0139C159.654 26.4722 160.588 25.0576 162.037 24.3979L162.078 24.3798C163.81 23.6142 164.928 21.9363 164.928 20.1052V19.5019H164.194V20.1052C164.194 21.6469 163.261 23.0607 161.814 23.7201L161.77 23.7393C160.038 24.5058 158.919 26.1836 158.919 28.0139V33.5071C158.919 34.2571 159.036 34.9974 159.265 35.7129C158.125 36.1228 157.185 36.9213 156.622 37.96C156.08 37.3226 155.775 36.5183 155.775 35.6874C155.775 34.5731 156.301 33.5408 157.217 32.8547C157.752 32.4533 158.059 31.8521 158.059 31.2054V23.9832C158.059 22.3103 158.738 20.7376 159.97 19.5546C161.189 18.3849 162.809 17.7336 164.532 17.7208C166.258 17.7077 167.891 18.3541 169.137 19.5408C170.409 20.752 171.109 22.3578 171.109 24.0622V27.1233H171.843V24.0622C171.843 22.1684 171.066 20.3848 169.654 19.0403C168.268 17.7201 166.448 17.0024 164.526 17.0157C162.61 17.0301 160.807 17.7546 159.451 19.056C158.08 20.3722 157.325 22.1221 157.325 23.9833V31.2055C157.325 31.6337 157.121 32.0323 156.765 32.2989C155.669 33.1192 155.041 34.3543 155.041 35.6875C155.041 36.8045 155.5 37.8823 156.307 38.6804C156.146 39.1529 156.064 39.6455 156.064 40.1482V46.8868H165.075V46.1816H156.798V40.1482C156.798 39.6531 156.891 39.1697 157.074 38.7112C157.576 37.4476 158.696 36.5145 160.07 36.2153L163.225 35.5289V34.1772C163.657 34.2776 164.105 34.33 164.561 34.33C165.032 34.33 165.495 34.2738 165.943 34.1658V35.5289L167.205 35.8037V37.4943C167.205 38.9799 168.464 40.1885 170.011 40.1885H170.113V39.4833H170.011C168.869 39.4833 167.939 38.5911 167.939 37.4943V33.6377C167.939 30.8471 170.272 28.5603 173.14 28.5399C174.55 28.5294 175.872 29.0484 176.871 29.9998C177.87 30.9514 178.419 32.2194 178.419 33.5701V37.4943C178.419 38.5911 177.49 39.4833 176.348 39.4833V40.1885C177.895 40.1885 179.154 38.9799 179.154 37.4943V34.9019L179.548 34.816V38.0277C179.548 38.2301 179.682 38.4101 179.882 38.4754C179.934 38.4926 179.987 38.5008 180.041 38.5008C180.19 38.5008 180.336 38.435 180.431 38.3168L181.844 36.4286L183.249 38.307L183.256 38.3169C183.385 38.4771 183.606 38.5408 183.806 38.4755C184.005 38.4101 184.139 38.2302 184.139 38.0277V34.8158L186.895 35.4157C189.067 35.8881 190.584 37.7115 190.584 39.85V46.1816H187.463V40.2896H186.728V46.1816H180.826V46.8868H191.319V39.85C191.319 38.6634 190.894 37.4991 190.123 36.5721C189.351 35.6451 188.263 34.9901 187.057 34.728ZM160.571 32.7439C160.592 32.7635 160.613 32.7818 160.634 32.8011V33.4879C160.634 34.1066 160.715 34.7204 160.871 35.3181L159.969 35.5143C159.76 34.8633 159.654 34.1896 159.654 33.5071V31.5874C159.901 32.0054 160.208 32.3945 160.571 32.7439ZM162.49 34.9659L161.588 35.1623C161.443 34.6157 161.369 34.054 161.369 33.4879V33.3798C161.72 33.6125 162.096 33.8044 162.49 33.9536V34.9659ZM166.677 34.9659V33.9366C166.857 33.8667 167.033 33.7868 167.205 33.6989V35.0808L166.677 34.9659ZM187.581 28.2247C187.59 28.1001 187.596 27.975 187.596 27.849V27.702C187.964 27.5707 188.266 27.3112 188.444 26.9792C188.448 27.0198 188.451 27.0607 188.451 27.1019C188.451 27.631 188.084 28.079 187.581 28.2247ZM187.882 21.4728V26.2962C187.882 26.5356 187.771 26.7502 187.596 26.8962V26.5029C187.596 25.9114 187.413 25.3405 187.066 24.8514C186.937 24.6696 186.836 24.4687 186.767 24.2549C186.699 24.0419 186.665 23.8211 186.665 23.5984V22.8678C186.665 21.7628 185.728 20.8638 184.58 20.8638L183.735 20.8578C183.893 20.4245 183.974 19.9708 183.974 19.5021V17.7393C183.974 17.6018 183.957 17.4683 183.925 17.3399C186.138 17.5184 187.882 19.3031 187.882 21.4728ZM175.737 22.9242C175.737 21.259 176.422 19.6864 177.665 18.4961C178.875 17.3373 180.461 16.6999 182.132 16.6999C182.138 16.6999 182.144 16.6999 182.149 16.6999H182.158C182.754 16.7009 183.239 17.1672 183.239 17.7393V19.5021C183.239 20.0456 183.11 20.5652 182.855 21.0464C182.245 22.1955 181.032 22.9094 179.69 22.9094C178.716 22.9094 177.8 23.2735 177.113 23.9343C176.425 24.5953 176.045 25.4737 176.045 26.4077V26.8338C175.853 26.6598 175.737 26.4138 175.737 26.1447V22.9242ZM175.207 26.9264C175.388 27.2522 175.681 27.5148 176.045 27.6638V27.849C176.045 27.9746 176.05 28.0997 176.059 28.2243C175.557 28.0781 175.191 27.6305 175.191 27.1019C175.191 27.0426 175.197 26.9842 175.207 26.9264ZM176.959 29.1278C176.841 28.7143 176.78 28.2848 176.78 27.849V26.4077C176.78 25.662 177.083 24.9607 177.632 24.4328C178.181 23.9052 178.912 23.6146 179.69 23.6146C181.232 23.6146 182.633 22.8329 183.399 21.5606L184.577 21.5689C185.323 21.5689 185.93 22.1516 185.93 22.8678V23.5984C185.93 23.8913 185.975 24.182 186.065 24.4627C186.156 24.7445 186.289 25.0091 186.459 25.2486C186.722 25.6197 186.861 26.0534 186.861 26.5029V27.849C186.861 29.1418 186.337 30.357 185.385 31.2707C184.433 32.1845 183.167 32.6878 181.821 32.6878C181.208 32.6878 180.611 32.5837 180.044 32.3782C179.618 32.2244 179.216 32.0153 178.849 31.7569C178.558 30.9148 178.064 30.1433 177.388 29.4995C177.25 29.3681 177.107 29.2444 176.959 29.1278ZM179.154 34.1789V33.5702C179.154 33.288 179.132 33.009 179.091 32.7347C179.24 32.8114 179.392 32.8821 179.548 32.9458V34.093L179.154 34.1789ZM180.282 37.3068V35.0987L181.34 35.8935L180.282 37.3068ZM181.844 35.3766L180.282 34.2029V33.1938C180.78 33.326 181.296 33.3929 181.821 33.3929C182.364 33.3929 182.896 33.3198 183.405 33.1813V34.203L181.844 35.3766ZM183.405 37.3068L182.347 35.8934L183.405 35.0987V37.3068Z" fill="#FCFCFC"/>
<path d="M174.688 36.2618C174.883 36.2618 175.041 36.1103 175.041 35.9234V35.6909C175.041 35.5041 174.883 35.3525 174.688 35.3525C174.494 35.3525 174.336 35.504 174.336 35.6909V35.9234C174.336 36.1103 174.494 36.2618 174.688 36.2618ZM171.773 36.2618C171.967 36.2618 172.125 36.1103 172.125 35.9234V35.6909C172.125 35.5041 171.967 35.3525 171.773 35.3525C171.578 35.3525 171.42 35.504 171.42 35.6909V35.9234C171.42 36.1103 171.578 36.2618 171.773 36.2618ZM174.869 37.5455L174.206 37.2413C174.024 37.6073 173.633 37.8438 173.211 37.8438C172.789 37.8438 172.399 37.6074 172.217 37.2416L171.554 37.5453C171.857 38.155 172.508 38.549 173.211 38.549C173.915 38.549 174.565 38.1551 174.869 37.5455Z" fill="#FCFCFC"/>
<path d="M168.732 32.3359L170.042 33.5939L170.562 33.0953L169.252 31.8373L168.732 32.3359Z" fill="#FCFCFC"/>
<path d="M171.352 32.3366L170.041 31.0786L169.522 31.5772L170.832 32.8352L171.352 32.3366Z" fill="#FCFCFC"/>
<path d="M180.153 44.4687C180.153 42.6316 178.85 41.065 176.984 40.6589L174.946 40.2155V39.6682C176.618 39.0252 177.87 37.4948 178.095 35.6166C178.147 35.1821 177.955 34.7474 177.594 34.482C177.218 34.2061 176.572 33.6132 176.463 32.742C176.422 32.4169 176.202 32.1461 175.888 32.0352L175.854 32.0229C175.49 31.8944 175.086 32.0046 174.85 32.2973C173.5 33.9658 170.91 34.4584 169.486 34.6036C169.119 34.6411 168.784 34.8274 168.567 35.1148C168.351 35.4017 168.271 35.7647 168.348 36.1105C168.59 37.194 169.198 38.1786 170.059 38.8826C170.468 39.2163 170.926 39.4793 171.413 39.6664V40.2155L169.375 40.6589C167.509 41.065 166.205 42.6317 166.205 44.4687V46.8869H180.154V44.4687H180.153ZM169.067 35.9625C169.032 35.8097 169.066 35.6555 169.162 35.5284C169.259 35.4009 169.401 35.3214 169.564 35.3049C171.104 35.1478 173.913 34.6045 175.43 32.7298C175.458 32.6947 175.502 32.6754 175.547 32.6754C175.564 32.6754 175.582 32.6784 175.6 32.6846L175.634 32.6968C175.688 32.7159 175.726 32.7654 175.734 32.826V32.8261C175.875 33.9543 176.68 34.6987 177.148 35.042C177.305 35.1575 177.388 35.3467 177.365 35.5358C177.109 37.6764 175.309 39.2907 173.18 39.2907C171.196 39.2906 169.504 37.9221 169.067 35.9625ZM173.179 39.9957C173.533 39.9957 173.878 39.9569 174.211 39.8856V40.3446C173.925 40.5831 173.564 40.7134 173.179 40.7134C172.795 40.7134 172.434 40.5829 172.148 40.3446V39.8855C172.485 39.9581 172.831 39.9957 173.179 39.9957ZM171.672 40.8823C172.091 41.2294 172.619 41.4187 173.179 41.4187C173.74 41.4187 174.268 41.2293 174.687 40.8823L175.98 41.1636V43.1949H170.481V41.1415L171.672 40.8823ZM169.537 41.3467L169.746 41.3012V43.9H176.715V41.3234L176.821 41.3466C177.072 41.4011 177.31 41.4818 177.534 41.5843V46.1817H168.889V41.5557C169.094 41.4669 169.31 41.396 169.537 41.3467ZM166.94 44.4687C166.94 43.4781 167.403 42.5835 168.155 41.9926V46.1818H166.94V44.4687ZM179.419 46.1818H178.268V42.0449C178.982 42.6356 179.419 43.5066 179.419 44.4687V46.1818Z" fill="#FCFCFC"/>
<path d="M164.584 31.2744C164.303 31.2744 164.043 31.117 163.922 30.8734L163.259 31.1771C163.501 31.6645 164.021 31.9795 164.584 31.9795C165.146 31.9795 165.666 31.6647 165.909 31.1774L165.246 30.8733C165.125 31.1169 164.865 31.2744 164.584 31.2744Z" fill="#FCFCFC"/>
<path d="M166.573 38.233H158.295V38.9382H166.573V38.233Z" fill="#FCFCFC"/>
<path d="M167.217 27.7973C167.441 27.7973 167.623 27.9723 167.623 28.1873H168.357C168.357 27.5834 167.846 27.0922 167.217 27.0922C166.588 27.0922 166.076 27.5834 166.076 28.1873H166.81C166.81 27.9723 166.993 27.7973 167.217 27.7973ZM160.81 28.1873H161.545C161.545 27.9723 161.727 27.7973 161.951 27.7973C162.175 27.7973 162.357 27.9723 162.357 28.1873H163.092C163.092 27.5834 162.58 27.0922 161.951 27.0922C161.322 27.0922 160.81 27.5834 160.81 28.1873Z" fill="#FCFCFC"/>
<path d="M181.844 30.9567C182.417 30.9567 182.947 30.6359 183.194 30.1394L182.532 29.8352C182.406 30.0882 182.136 30.2516 181.844 30.2516C181.552 30.2516 181.283 30.0883 181.157 29.8355L180.494 30.1392C180.741 30.6358 181.271 30.9567 181.844 30.9567ZM184.477 26.8901C184.701 26.8901 184.883 27.065 184.883 27.28H185.618C185.618 26.6762 185.106 26.1849 184.477 26.1849C183.848 26.1849 183.336 26.6762 183.336 27.28H184.071C184.071 27.065 184.253 26.8901 184.477 26.8901ZM179.211 26.8901C179.435 26.8901 179.617 27.065 179.617 27.28H180.352C180.352 26.6762 179.84 26.1849 179.211 26.1849C178.582 26.1849 178.071 26.6762 178.071 27.28H178.805C178.805 27.065 178.987 26.8901 179.211 26.8901Z" fill="#FCFCFC"/>
<path d="M182.211 38.1486H181.476V45.3851H182.211V38.1486Z" fill="#FCFCFC"/>
</g>
</g>
<defs>
<filter id="filter0_d_1_22641" x="0.5625" y="0.846191" width="203.563" height="65.5052" filterUnits="userSpaceOnUse" color-interpolation-filters="sRGB">
<feFlood flood-opacity="0" result="BackgroundImageFix"/>
<feColorMatrix in="SourceAlpha" type="matrix" values="0 0 0 0 0 0 0 0 0 0 0 0 0 0 0 0 0 0 127 0" result="hardAlpha"/>
<feOffset/>
<feGaussianBlur stdDeviation="2"/>
<feComposite in2="hardAlpha" operator="out"/>
<feColorMatrix type="matrix" values="0 0 0 0 0.662745 0 0 0 0 0.321569 0 0 0 0 0.0627451 0 0 0 0.3 0"/>
<feBlend mode="normal" in2="BackgroundImageFix" result="effect1_dropShadow_1_22641"/>
<feBlend mode="normal" in="SourceGraphic" in2="effect1_dropShadow_1_22641" result="shape"/>
</filter>
<filter id="filter1_b_1_22641" x="1.55384" y="1.83753" width="201.58" height="63.1819" filterUnits="userSpaceOnUse" color-interpolation-filters="sRGB">
<feFlood flood-opacity="0" result="BackgroundImageFix"/>
<feGaussianBlur in="BackgroundImageFix" stdDeviation="1.50433"/>
<feComposite in2="SourceAlpha" operator="in" result="effect1_backgroundBlur_1_22641"/>
<feBlend mode="normal" in="SourceGraphic" in2="effect1_backgroundBlur_1_22641" result="shape"/>
</filter>
<clipPath id="clip0_1_22641">
<rect width="37.6082" height="36.1039" fill="white" transform="translate(154.375 13.3888)"/>
</clipPath>
</defs>
</svg>
