<svg width="204" height="67" viewBox="0 0 204 67" fill="none" xmlns="http://www.w3.org/2000/svg">
<g filter="url(#filter0_d_1_22592)">
<g filter="url(#filter1_b_1_22592)">
<rect width="195.563" height="57.1645" rx="8.27381" transform="matrix(-1 0 0 1 199.563 4.7182)" fill="#FCFCFC"/>
<rect x="-0.5" y="0.5" width="194.563" height="56.1645" rx="7.77381" transform="matrix(-1 0 0 1 198.563 4.7182)" stroke="#A95210"/>
</g>
<path d="M82.5334 26.4429V19.4771H84.2424V26.4429C84.2424 27.1037 84.1012 27.6666 83.8186 28.1314C83.5361 28.5963 83.151 28.9517 82.6633 29.1978C82.1757 29.4439 81.622 29.567 81.0022 29.567C80.3687 29.567 79.8059 29.4599 79.3137 29.2457C78.8261 29.0315 78.4433 28.7033 78.1653 28.2613C77.8873 27.8192 77.7483 27.2587 77.7483 26.5797H79.4709C79.4709 26.9716 79.5325 27.2883 79.6555 27.5298C79.7831 27.7668 79.9609 27.94 80.1887 28.0494C80.4211 28.1542 80.6923 28.2066 81.0022 28.2066C81.2984 28.2066 81.5605 28.1405 81.7883 28.0084C82.0208 27.8716 82.203 27.6734 82.3352 27.4136C82.4674 27.1493 82.5334 26.8257 82.5334 26.4429ZM86.9295 25.814V25.6568C86.9295 25.1236 87.007 24.6291 87.1619 24.1734C87.3169 23.7131 87.5402 23.3144 87.8318 22.9771C88.1281 22.6353 88.4881 22.371 88.9119 22.1841C89.3403 21.9927 89.8234 21.897 90.3611 21.897C90.9035 21.897 91.3865 21.9927 91.8104 22.1841C92.2387 22.371 92.6011 22.6353 92.8973 22.9771C93.1935 23.3144 93.4191 23.7131 93.574 24.1734C93.729 24.6291 93.8065 25.1236 93.8065 25.6568V25.814C93.8065 26.3472 93.729 26.8417 93.574 27.2974C93.4191 27.7532 93.1935 28.1519 92.8973 28.4937C92.6011 28.831 92.241 29.0953 91.8172 29.2867C91.3934 29.4735 90.9126 29.567 90.3748 29.567C89.8325 29.567 89.3471 29.4735 88.9188 29.2867C88.4949 29.0953 88.1349 28.831 87.8387 28.4937C87.5425 28.1519 87.3169 27.7532 87.1619 27.2974C87.007 26.8417 86.9295 26.3472 86.9295 25.814ZM88.577 25.6568V25.814C88.577 26.1467 88.6111 26.4612 88.6795 26.7574C88.7479 27.0536 88.855 27.3134 89.0008 27.5367C89.1466 27.76 89.3335 27.9354 89.5613 28.063C89.7892 28.1907 90.0604 28.2545 90.3748 28.2545C90.6802 28.2545 90.9445 28.1907 91.1678 28.063C91.3956 27.9354 91.5825 27.76 91.7283 27.5367C91.8742 27.3134 91.9813 27.0536 92.0496 26.7574C92.1225 26.4612 92.159 26.1467 92.159 25.814V25.6568C92.159 25.3287 92.1225 25.0188 92.0496 24.7271C91.9813 24.4309 91.8719 24.1688 91.7215 23.941C91.5757 23.7131 91.3888 23.5354 91.1609 23.4078C90.9376 23.2756 90.671 23.2095 90.3611 23.2095C90.0512 23.2095 89.7824 23.2756 89.5545 23.4078C89.3312 23.5354 89.1466 23.7131 89.0008 23.941C88.855 24.1688 88.7479 24.4309 88.6795 24.7271C88.6111 25.0188 88.577 25.3287 88.577 25.6568ZM96.3842 18.9302H98.0316V27.8511L97.8744 29.4302H96.3842V18.9302ZM102.858 25.6636V25.8072C102.858 26.3541 102.796 26.8576 102.673 27.3179C102.555 27.7737 102.372 28.1701 102.126 28.5074C101.885 28.8446 101.584 29.1067 101.224 29.2935C100.869 29.4758 100.456 29.567 99.9867 29.567C99.5264 29.567 99.1254 29.4804 98.7836 29.3072C98.4418 29.134 98.1547 28.8879 97.9222 28.5689C97.6944 28.2499 97.5098 27.8694 97.3685 27.4273C97.2273 26.9852 97.127 26.4976 97.0677 25.9644V25.5064C97.127 24.9686 97.2273 24.481 97.3685 24.0435C97.5098 23.6015 97.6944 23.2209 97.9222 22.9019C98.1547 22.5783 98.4395 22.33 98.7767 22.1568C99.1185 21.9836 99.5173 21.897 99.973 21.897C100.447 21.897 100.864 21.9882 101.224 22.1705C101.589 22.3528 101.892 22.6125 102.133 22.9498C102.375 23.2825 102.555 23.6789 102.673 24.1392C102.796 24.5995 102.858 25.1076 102.858 25.6636ZM101.21 25.8072V25.6636C101.21 25.331 101.183 25.0188 101.128 24.7271C101.074 24.4309 100.982 24.1711 100.855 23.9478C100.732 23.7245 100.563 23.5491 100.349 23.4214C100.139 23.2893 99.8773 23.2232 99.5629 23.2232C99.2712 23.2232 99.0205 23.2733 98.8109 23.3736C98.6013 23.4739 98.4258 23.6106 98.2845 23.7838C98.1433 23.9569 98.0316 24.1575 97.9496 24.3853C97.8721 24.6132 97.8197 24.8593 97.7924 25.1236V26.3609C97.8334 26.7027 97.92 27.0172 98.0521 27.3043C98.1888 27.5868 98.3802 27.8147 98.6263 27.9879C98.8724 28.1565 99.1892 28.2408 99.5765 28.2408C99.8819 28.2408 100.139 28.1793 100.349 28.0562C100.559 27.9332 100.725 27.7623 100.848 27.5435C100.976 27.3202 101.067 27.0604 101.121 26.7642C101.181 26.468 101.21 26.149 101.21 25.8072ZM109.769 19.4771L105.893 30.2847H104.601L108.484 19.4771H109.769ZM115.998 24.9322H113.461L113.448 23.6812H115.663C116.036 23.6812 116.353 23.6265 116.613 23.5172C116.877 23.4032 117.078 23.2414 117.214 23.0318C117.351 22.8176 117.419 22.5601 117.419 22.2593C117.419 21.9267 117.356 21.6555 117.228 21.4459C117.1 21.2362 116.904 21.0836 116.64 20.9879C116.38 20.8922 116.048 20.8443 115.642 20.8443H113.981V29.4302H112.265V19.4771H115.642C116.189 19.4771 116.677 19.5295 117.105 19.6343C117.538 19.7392 117.905 19.9032 118.206 20.1265C118.511 20.3453 118.741 20.6233 118.896 20.9605C119.055 21.2977 119.135 21.6988 119.135 22.1636C119.135 22.5738 119.037 22.9498 118.841 23.2916C118.645 23.6288 118.356 23.9045 117.973 24.1187C117.59 24.3329 117.114 24.4605 116.544 24.5015L115.998 24.9322ZM115.922 29.4302H112.921L113.694 28.0699H115.922C116.31 28.0699 116.633 28.0061 116.893 27.8785C117.153 27.7463 117.347 27.5663 117.474 27.3384C117.606 27.106 117.672 26.8349 117.672 26.525C117.672 26.2014 117.615 25.9211 117.501 25.6841C117.388 25.4426 117.208 25.258 116.961 25.1304C116.715 24.9983 116.394 24.9322 115.998 24.9322H114.07L114.083 23.6812H116.592L116.982 24.1529C117.529 24.1711 117.978 24.2919 118.329 24.5152C118.684 24.7385 118.948 25.0279 119.122 25.3834C119.295 25.7388 119.381 26.1216 119.381 26.5318C119.381 27.1653 119.242 27.6962 118.964 28.1246C118.691 28.553 118.297 28.8788 117.782 29.1021C117.267 29.3209 116.647 29.4302 115.922 29.4302ZM126.587 27.6871V22.0338H128.241V29.4302H126.683L126.587 27.6871ZM126.819 26.149L127.373 26.1353C127.373 26.6321 127.318 27.0901 127.209 27.5093C127.1 27.9241 126.931 28.2864 126.703 28.5963C126.475 28.9016 126.184 29.1408 125.828 29.314C125.473 29.4826 125.047 29.567 124.55 29.567C124.19 29.567 123.859 29.5145 123.559 29.4097C123.258 29.3049 122.998 29.1431 122.779 28.9244C122.565 28.7056 122.399 28.4208 122.28 28.0699C122.162 27.719 122.103 27.2997 122.103 26.8121V22.0338H123.75V26.8257C123.75 27.0946 123.782 27.3202 123.846 27.5025C123.91 27.6802 123.996 27.8238 124.106 27.9332C124.215 28.0425 124.342 28.12 124.488 28.1656C124.634 28.2112 124.789 28.2339 124.953 28.2339C125.423 28.2339 125.792 28.1428 126.061 27.9605C126.334 27.7737 126.528 27.523 126.642 27.2086C126.76 26.8941 126.819 26.5409 126.819 26.149ZM135.269 27.4273C135.269 27.2632 135.228 27.1151 135.146 26.983C135.064 26.8463 134.907 26.7232 134.674 26.6138C134.447 26.5045 134.109 26.4042 133.663 26.313C133.271 26.2265 132.911 26.1239 132.583 26.0054C132.259 25.8824 131.981 25.7343 131.749 25.5611C131.516 25.3879 131.336 25.1828 131.209 24.9459C131.081 24.7089 131.017 24.4354 131.017 24.1255C131.017 23.8248 131.083 23.5399 131.215 23.2711C131.348 23.0022 131.537 22.7652 131.783 22.5601C132.029 22.355 132.327 22.1933 132.678 22.0748C133.034 21.9563 133.43 21.897 133.868 21.897C134.488 21.897 135.018 22.0019 135.461 22.2115C135.907 22.4166 136.249 22.6968 136.486 23.0523C136.723 23.4032 136.841 23.7997 136.841 24.2418H135.194C135.194 24.0458 135.144 23.8635 135.044 23.6949C134.948 23.5217 134.802 23.3827 134.606 23.2779C134.41 23.1685 134.164 23.1138 133.868 23.1138C133.585 23.1138 133.351 23.1594 133.164 23.2505C132.981 23.3371 132.845 23.4511 132.754 23.5923C132.667 23.7336 132.624 23.8886 132.624 24.0572C132.624 24.1802 132.646 24.2919 132.692 24.3922C132.742 24.4879 132.824 24.5767 132.938 24.6588C133.052 24.7362 133.207 24.8091 133.403 24.8775C133.603 24.9459 133.854 25.0119 134.155 25.0757C134.72 25.1942 135.205 25.3469 135.611 25.5338C136.021 25.716 136.336 25.953 136.554 26.2447C136.773 26.5318 136.882 26.8964 136.882 27.3384C136.882 27.6666 136.812 27.9673 136.671 28.2408C136.534 28.5097 136.333 28.7444 136.069 28.9449C135.805 29.1408 135.488 29.2935 135.119 29.4029C134.754 29.5123 134.344 29.567 133.888 29.567C133.218 29.567 132.651 29.4485 132.186 29.2115C131.721 28.97 131.368 28.6623 131.127 28.2886C130.89 27.9104 130.771 27.5185 130.771 27.1129H132.364C132.382 27.4182 132.466 27.662 132.617 27.8443C132.772 28.022 132.963 28.1519 133.191 28.2339C133.423 28.3114 133.663 28.3502 133.909 28.3502C134.205 28.3502 134.453 28.3114 134.654 28.2339C134.854 28.1519 135.007 28.0425 135.112 27.9058C135.217 27.7645 135.269 27.605 135.269 27.4273ZM141.278 22.0338V29.4302H139.624V22.0338H141.278ZM139.515 20.0923C139.515 19.8417 139.597 19.6343 139.761 19.4703C139.93 19.3017 140.162 19.2173 140.458 19.2173C140.75 19.2173 140.98 19.3017 141.149 19.4703C141.317 19.6343 141.402 19.8417 141.402 20.0923C141.402 20.3384 141.317 20.5435 141.149 20.7076C140.98 20.8716 140.75 20.9537 140.458 20.9537C140.162 20.9537 139.93 20.8716 139.761 20.7076C139.597 20.5435 139.515 20.3384 139.515 20.0923ZM145.907 23.6129V29.4302H144.26V22.0338H145.811L145.907 23.6129ZM145.613 25.4586L145.08 25.4517C145.084 24.9276 145.157 24.4468 145.299 24.0093C145.444 23.5718 145.645 23.1959 145.9 22.8814C146.16 22.567 146.47 22.3254 146.83 22.1568C147.19 21.9836 147.591 21.897 148.033 21.897C148.388 21.897 148.71 21.9472 148.997 22.0474C149.288 22.1431 149.537 22.3004 149.742 22.5191C149.952 22.7379 150.111 23.0227 150.22 23.3736C150.33 23.72 150.385 24.1461 150.385 24.6519V29.4302H148.73V24.6451C148.73 24.2896 148.678 24.0093 148.573 23.8043C148.473 23.5946 148.325 23.4465 148.129 23.3599C147.937 23.2688 147.698 23.2232 147.411 23.2232C147.128 23.2232 146.875 23.2825 146.652 23.4009C146.429 23.5194 146.24 23.6812 146.085 23.8863C145.934 24.0914 145.818 24.3283 145.736 24.5972C145.654 24.8661 145.613 25.1532 145.613 25.4586ZM156.517 29.567C155.97 29.567 155.476 29.4781 155.033 29.3004C154.596 29.1181 154.222 28.8651 153.912 28.5416C153.607 28.218 153.372 27.8375 153.208 27.4C153.044 26.9625 152.962 26.4908 152.962 25.9849V25.7115C152.962 25.1327 153.047 24.6086 153.215 24.1392C153.384 23.6698 153.618 23.2688 153.919 22.9361C154.22 22.5989 154.575 22.3414 154.986 22.1636C155.396 21.9859 155.84 21.897 156.319 21.897C156.847 21.897 157.31 21.9859 157.706 22.1636C158.103 22.3414 158.431 22.592 158.691 22.9156C158.955 23.2346 159.151 23.6151 159.279 24.0572C159.411 24.4992 159.477 24.9869 159.477 25.5201V26.2242H153.762V25.0416H157.85V24.9117C157.841 24.6155 157.782 24.3375 157.672 24.0777C157.567 23.8179 157.406 23.6083 157.187 23.4488C156.968 23.2893 156.676 23.2095 156.312 23.2095C156.038 23.2095 155.795 23.2688 155.58 23.3873C155.371 23.5012 155.195 23.6675 155.054 23.8863C154.913 24.105 154.803 24.3694 154.726 24.6793C154.653 24.9846 154.616 25.3287 154.616 25.7115V25.9849C154.616 26.3085 154.66 26.6093 154.746 26.8873C154.838 27.1607 154.97 27.4 155.143 27.605C155.316 27.8101 155.526 27.9719 155.772 28.0904C156.018 28.2043 156.298 28.2613 156.613 28.2613C157.009 28.2613 157.362 28.1815 157.672 28.022C157.982 27.8625 158.251 27.6369 158.479 27.3453L159.347 28.1861C159.187 28.4185 158.98 28.6418 158.725 28.856C158.47 29.0657 158.158 29.2366 157.788 29.3687C157.424 29.5009 157 29.567 156.517 29.567ZM166.101 27.4273C166.101 27.2632 166.06 27.1151 165.978 26.983C165.896 26.8463 165.739 26.7232 165.507 26.6138C165.279 26.5045 164.942 26.4042 164.495 26.313C164.103 26.2265 163.743 26.1239 163.415 26.0054C163.091 25.8824 162.813 25.7343 162.581 25.5611C162.348 25.3879 162.168 25.1828 162.041 24.9459C161.913 24.7089 161.849 24.4354 161.849 24.1255C161.849 23.8248 161.916 23.5399 162.048 23.2711C162.18 23.0022 162.369 22.7652 162.615 22.5601C162.861 22.355 163.16 22.1933 163.511 22.0748C163.866 21.9563 164.263 21.897 164.7 21.897C165.32 21.897 165.851 22.0019 166.293 22.2115C166.739 22.4166 167.081 22.6968 167.318 23.0523C167.555 23.4032 167.674 23.7997 167.674 24.2418H166.026C166.026 24.0458 165.976 23.8635 165.876 23.6949C165.78 23.5217 165.634 23.3827 165.438 23.2779C165.242 23.1685 164.996 23.1138 164.7 23.1138C164.417 23.1138 164.183 23.1594 163.996 23.2505C163.814 23.3371 163.677 23.4511 163.586 23.5923C163.499 23.7336 163.456 23.8886 163.456 24.0572C163.456 24.1802 163.479 24.2919 163.524 24.3922C163.574 24.4879 163.656 24.5767 163.77 24.6588C163.884 24.7362 164.039 24.8091 164.235 24.8775C164.436 24.9459 164.686 25.0119 164.987 25.0757C165.552 25.1942 166.038 25.3469 166.443 25.5338C166.853 25.716 167.168 25.953 167.387 26.2447C167.605 26.5318 167.715 26.8964 167.715 27.3384C167.715 27.6666 167.644 27.9673 167.503 28.2408C167.366 28.5097 167.166 28.7444 166.901 28.9449C166.637 29.1408 166.32 29.2935 165.951 29.4029C165.586 29.5123 165.176 29.567 164.721 29.567C164.051 29.567 163.483 29.4485 163.018 29.2115C162.554 28.97 162.2 28.6623 161.959 28.2886C161.722 27.9104 161.603 27.5185 161.603 27.1129H163.196C163.214 27.4182 163.299 27.662 163.449 27.8443C163.604 28.022 163.795 28.1519 164.023 28.2339C164.256 28.3114 164.495 28.3502 164.741 28.3502C165.037 28.3502 165.286 28.3114 165.486 28.2339C165.687 28.1519 165.839 28.0425 165.944 27.9058C166.049 27.7645 166.101 27.605 166.101 27.4273ZM174.496 27.4273C174.496 27.2632 174.455 27.1151 174.373 26.983C174.291 26.8463 174.134 26.7232 173.902 26.6138C173.674 26.5045 173.337 26.4042 172.89 26.313C172.498 26.2265 172.138 26.1239 171.81 26.0054C171.486 25.8824 171.208 25.7343 170.976 25.5611C170.744 25.3879 170.564 25.1828 170.436 24.9459C170.308 24.7089 170.245 24.4354 170.245 24.1255C170.245 23.8248 170.311 23.5399 170.443 23.2711C170.575 23.0022 170.764 22.7652 171.01 22.5601C171.256 22.355 171.555 22.1933 171.906 22.0748C172.261 21.9563 172.658 21.897 173.095 21.897C173.715 21.897 174.246 22.0019 174.688 22.2115C175.135 22.4166 175.476 22.6968 175.713 23.0523C175.95 23.4032 176.069 23.7997 176.069 24.2418H174.421C174.421 24.0458 174.371 23.8635 174.271 23.6949C174.175 23.5217 174.029 23.3827 173.833 23.2779C173.637 23.1685 173.391 23.1138 173.095 23.1138C172.813 23.1138 172.578 23.1594 172.391 23.2505C172.209 23.3371 172.072 23.4511 171.981 23.5923C171.894 23.7336 171.851 23.8886 171.851 24.0572C171.851 24.1802 171.874 24.2919 171.919 24.3922C171.969 24.4879 172.052 24.5767 172.165 24.6588C172.279 24.7362 172.434 24.8091 172.63 24.8775C172.831 24.9459 173.081 25.0119 173.382 25.0757C173.947 25.1942 174.433 25.3469 174.838 25.5338C175.248 25.716 175.563 25.953 175.782 26.2447C176 26.5318 176.11 26.8964 176.11 27.3384C176.11 27.6666 176.039 27.9673 175.898 28.2408C175.761 28.5097 175.561 28.7444 175.296 28.9449C175.032 29.1408 174.715 29.2935 174.346 29.4029C173.982 29.5123 173.571 29.567 173.116 29.567C172.446 29.567 171.878 29.4485 171.413 29.2115C170.949 28.97 170.595 28.6623 170.354 28.2886C170.117 27.9104 169.998 27.5185 169.998 27.1129H171.591C171.609 27.4182 171.694 27.662 171.844 27.8443C171.999 28.022 172.191 28.1519 172.418 28.2339C172.651 28.3114 172.89 28.3502 173.136 28.3502C173.432 28.3502 173.681 28.3114 173.881 28.2339C174.082 28.1519 174.234 28.0425 174.339 27.9058C174.444 27.7645 174.496 27.605 174.496 27.4273ZM82.219 45.7183H79.6282V44.358H82.219C82.6702 44.358 83.0347 44.2851 83.3127 44.1392C83.5907 43.9934 83.7935 43.7929 83.9211 43.5377C84.0533 43.2779 84.1194 42.9817 84.1194 42.649C84.1194 42.3345 84.0533 42.0406 83.9211 41.7672C83.7935 41.4892 83.5907 41.2658 83.3127 41.0972C83.0347 40.9286 82.6702 40.8443 82.219 40.8443H80.1545V49.4302H78.4387V39.4771H82.219C82.9892 39.4771 83.6431 39.6138 84.1809 39.8873C84.7232 40.1561 85.1357 40.5298 85.4182 41.0084C85.7008 41.4823 85.842 42.0246 85.842 42.6353C85.842 43.2779 85.7008 43.8293 85.4182 44.2896C85.1357 44.7499 84.7232 45.1031 84.1809 45.3492C83.6431 45.5953 82.9892 45.7183 82.219 45.7183ZM90.0604 43.442V49.4302H88.4129V42.0338H89.9852L90.0604 43.442ZM92.3231 41.9859L92.3094 43.5172C92.2091 43.4989 92.0997 43.4852 91.9813 43.4761C91.8673 43.467 91.7534 43.4625 91.6395 43.4625C91.3569 43.4625 91.1085 43.5035 90.8943 43.5855C90.6802 43.663 90.5001 43.7769 90.3543 43.9273C90.213 44.0731 90.1037 44.2509 90.0262 44.4605C89.9487 44.6701 89.9031 44.9048 89.8895 45.1646L89.5135 45.192C89.5135 44.7271 89.5591 44.2964 89.6502 43.9C89.7414 43.5035 89.8781 43.1548 90.0604 42.8541C90.2472 42.5533 90.4796 42.3186 90.7576 42.15C91.0402 41.9813 91.366 41.897 91.7352 41.897C91.8354 41.897 91.9425 41.9061 92.0565 41.9244C92.1749 41.9426 92.2638 41.9631 92.3231 41.9859ZM94.0531 45.814V45.6568C94.0531 45.1236 94.1306 44.6291 94.2855 44.1734C94.4405 43.7131 94.6638 43.3144 94.9554 42.9771C95.2517 42.6353 95.6117 42.371 96.0355 42.1841C96.4639 41.9927 96.947 41.897 97.4847 41.897C98.0271 41.897 98.5101 41.9927 98.934 42.1841C99.3623 42.371 99.7246 42.6353 100.021 42.9771C100.317 43.3144 100.543 43.7131 100.698 44.1734C100.853 44.6291 100.93 45.1236 100.93 45.6568V45.814C100.93 46.3472 100.853 46.8417 100.698 47.2974C100.543 47.7532 100.317 48.1519 100.021 48.4937C99.7246 48.831 99.3646 49.0953 98.9408 49.2867C98.517 49.4735 98.0362 49.567 97.4984 49.567C96.9561 49.567 96.4707 49.4735 96.0424 49.2867C95.6185 49.0953 95.2585 48.831 94.9623 48.4937C94.6661 48.1519 94.4405 47.7532 94.2855 47.2974C94.1306 46.8417 94.0531 46.3472 94.0531 45.814ZM95.7006 45.6568V45.814C95.7006 46.1467 95.7347 46.4612 95.8031 46.7574C95.8715 47.0536 95.9786 47.3134 96.1244 47.5367C96.2702 47.76 96.4571 47.9354 96.6849 48.063C96.9128 48.1907 97.184 48.2545 97.4984 48.2545C97.8037 48.2545 98.0681 48.1907 98.2914 48.063C98.5192 47.9354 98.7061 47.76 98.8519 47.5367C98.9978 47.3134 99.1049 47.0536 99.1732 46.7574C99.2461 46.4612 99.2826 46.1467 99.2826 45.814V45.6568C99.2826 45.3287 99.2461 45.0188 99.1732 44.7271C99.1049 44.4309 98.9955 44.1688 98.8451 43.941C98.6993 43.7131 98.5124 43.5354 98.2845 43.4078C98.0612 43.2756 97.7946 43.2095 97.4847 43.2095C97.1748 43.2095 96.906 43.2756 96.6781 43.4078C96.4548 43.5354 96.2702 43.7131 96.1244 43.941C95.9786 44.1688 95.8715 44.4309 95.8031 44.7271C95.7347 45.0188 95.7006 45.3287 95.7006 45.6568ZM103.508 38.9302H105.155V47.8511L104.998 49.4302H103.508V38.9302ZM109.981 45.6636V45.8072C109.981 46.3541 109.92 46.8576 109.797 47.3179C109.678 47.7737 109.496 48.1701 109.25 48.5074C109.008 48.8446 108.708 49.1067 108.348 49.2935C107.992 49.4758 107.58 49.567 107.11 49.567C106.65 49.567 106.249 49.4804 105.907 49.3072C105.565 49.134 105.278 48.8879 105.046 48.5689C104.818 48.2499 104.633 47.8694 104.492 47.4273C104.351 46.9852 104.251 46.4976 104.191 45.9644V45.5064C104.251 44.9686 104.351 44.481 104.492 44.0435C104.633 43.6015 104.818 43.2209 105.046 42.9019C105.278 42.5783 105.563 42.33 105.9 42.1568C106.242 41.9836 106.641 41.897 107.097 41.897C107.571 41.897 107.988 41.9882 108.348 42.1705C108.712 42.3528 109.015 42.6125 109.257 42.9498C109.498 43.2825 109.678 43.6789 109.797 44.1392C109.92 44.5995 109.981 45.1076 109.981 45.6636ZM108.334 45.8072V45.6636C108.334 45.331 108.307 45.0188 108.252 44.7271C108.197 44.4309 108.106 44.1711 107.978 43.9478C107.855 43.7245 107.687 43.5491 107.473 43.4214C107.263 43.2893 107.001 43.2232 106.686 43.2232C106.395 43.2232 106.144 43.2733 105.935 43.3736C105.725 43.4739 105.549 43.6106 105.408 43.7838C105.267 43.9569 105.155 44.1575 105.073 44.3853C104.996 44.6132 104.943 44.8593 104.916 45.1236V46.3609C104.957 46.7027 105.044 47.0172 105.176 47.3043C105.312 47.5868 105.504 47.8147 105.75 47.9879C105.996 48.1565 106.313 48.2408 106.7 48.2408C107.005 48.2408 107.263 48.1793 107.473 48.0562C107.682 47.9332 107.849 47.7623 107.972 47.5435C108.099 47.3202 108.19 47.0604 108.245 46.7642C108.304 46.468 108.334 46.149 108.334 45.8072ZM114.33 38.9302V49.4302H112.675V38.9302H114.33ZM120.585 49.567C120.038 49.567 119.544 49.4781 119.102 49.3004C118.664 49.1181 118.29 48.8651 117.981 48.5416C117.675 48.218 117.44 47.8375 117.276 47.4C117.112 46.9625 117.03 46.4908 117.03 45.9849V45.7115C117.03 45.1327 117.115 44.6086 117.283 44.1392C117.452 43.6698 117.687 43.2688 117.987 42.9361C118.288 42.5989 118.644 42.3414 119.054 42.1636C119.464 41.9859 119.908 41.897 120.387 41.897C120.915 41.897 121.378 41.9859 121.774 42.1636C122.171 42.3414 122.499 42.592 122.759 42.9156C123.023 43.2346 123.219 43.6151 123.347 44.0572C123.479 44.4992 123.545 44.9869 123.545 45.5201V46.2242H117.83V45.0416H121.918V44.9117C121.909 44.6155 121.85 44.3375 121.74 44.0777C121.635 43.8179 121.474 43.6083 121.255 43.4488C121.036 43.2893 120.745 43.2095 120.38 43.2095C120.106 43.2095 119.863 43.2688 119.648 43.3873C119.439 43.5012 119.263 43.6675 119.122 43.8863C118.981 44.105 118.871 44.3694 118.794 44.6793C118.721 44.9846 118.685 45.3287 118.685 45.7115V45.9849C118.685 46.3085 118.728 46.6093 118.815 46.8873C118.906 47.1607 119.038 47.4 119.211 47.605C119.384 47.8101 119.594 47.9719 119.84 48.0904C120.086 48.2043 120.366 48.2613 120.681 48.2613C121.077 48.2613 121.43 48.1815 121.74 48.022C122.05 47.8625 122.319 47.6369 122.547 47.3453L123.415 48.1861C123.256 48.4185 123.048 48.6418 122.793 48.856C122.538 49.0657 122.226 49.2366 121.856 49.3687C121.492 49.5009 121.068 49.567 120.585 49.567ZM127.668 43.5377V49.4302H126.02V42.0338H127.572L127.668 43.5377ZM127.401 45.4586L126.84 45.4517C126.84 44.9413 126.904 44.4696 127.032 44.0367C127.159 43.6037 127.346 43.2278 127.592 42.9088C127.838 42.5852 128.144 42.3368 128.508 42.1636C128.878 41.9859 129.304 41.897 129.787 41.897C130.124 41.897 130.432 41.9472 130.71 42.0474C130.992 42.1431 131.236 42.2958 131.441 42.5054C131.651 42.7151 131.81 42.9839 131.92 43.3121C132.033 43.6402 132.09 44.0367 132.09 44.5015V49.4302H130.443V44.6451C130.443 44.2851 130.388 44.0025 130.279 43.7974C130.174 43.5923 130.021 43.4465 129.821 43.3599C129.625 43.2688 129.39 43.2232 129.117 43.2232C128.807 43.2232 128.543 43.2825 128.324 43.4009C128.11 43.5194 127.934 43.6812 127.797 43.8863C127.661 44.0914 127.56 44.3283 127.497 44.5972C127.433 44.8661 127.401 45.1532 127.401 45.4586ZM131.988 45.0211L131.215 45.192C131.215 44.7453 131.277 44.3238 131.4 43.9273C131.528 43.5263 131.712 43.1754 131.954 42.8746C132.2 42.5692 132.503 42.33 132.863 42.1568C133.223 41.9836 133.635 41.897 134.1 41.897C134.478 41.897 134.816 41.9494 135.112 42.0543C135.413 42.1545 135.668 42.314 135.878 42.5328C136.087 42.7515 136.247 43.0364 136.356 43.3873C136.465 43.7336 136.52 44.1529 136.52 44.6451V49.4302H134.866V44.6382C134.866 44.2645 134.811 43.9752 134.702 43.7701C134.597 43.565 134.447 43.4237 134.251 43.3463C134.055 43.2642 133.82 43.2232 133.546 43.2232C133.291 43.2232 133.066 43.2711 132.87 43.3668C132.678 43.4579 132.517 43.5878 132.384 43.7564C132.252 43.9205 132.152 44.1096 132.084 44.3238C132.02 44.538 131.988 44.7704 131.988 45.0211ZM143.555 47.4273C143.555 47.2632 143.514 47.1151 143.432 46.983C143.35 46.8463 143.193 46.7232 142.96 46.6138C142.732 46.5045 142.395 46.4042 141.948 46.313C141.556 46.2265 141.196 46.1239 140.868 46.0054C140.545 45.8824 140.267 45.7343 140.034 45.5611C139.802 45.3879 139.622 45.1828 139.494 44.9459C139.367 44.7089 139.303 44.4354 139.303 44.1255C139.303 43.8248 139.369 43.5399 139.501 43.2711C139.633 43.0022 139.822 42.7652 140.069 42.5601C140.315 42.355 140.613 42.1933 140.964 42.0748C141.32 41.9563 141.716 41.897 142.153 41.897C142.773 41.897 143.304 42.0019 143.746 42.2115C144.193 42.4166 144.535 42.6968 144.772 43.0523C145.009 43.4032 145.127 43.7997 145.127 44.2418H143.48C143.48 44.0458 143.43 43.8635 143.329 43.6949C143.234 43.5217 143.088 43.3827 142.892 43.2779C142.696 43.1685 142.45 43.1138 142.153 43.1138C141.871 43.1138 141.636 43.1594 141.449 43.2505C141.267 43.3371 141.13 43.4511 141.039 43.5923C140.953 43.7336 140.909 43.8886 140.909 44.0572C140.909 44.1802 140.932 44.2919 140.978 44.3922C141.028 44.4879 141.11 44.5767 141.224 44.6588C141.338 44.7362 141.493 44.8091 141.689 44.8775C141.889 44.9459 142.14 45.0119 142.441 45.0757C143.006 45.1942 143.491 45.3469 143.897 45.5338C144.307 45.716 144.621 45.953 144.84 46.2447C145.059 46.5318 145.168 46.8964 145.168 47.3384C145.168 47.6666 145.097 47.9673 144.956 48.2408C144.82 48.5097 144.619 48.7444 144.355 48.9449C144.09 49.1408 143.774 49.2935 143.404 49.4029C143.04 49.5123 142.63 49.567 142.174 49.567C141.504 49.567 140.937 49.4485 140.472 49.2115C140.007 48.97 139.654 48.6623 139.412 48.2886C139.175 47.9104 139.057 47.5185 139.057 47.1129H140.65C140.668 47.4182 140.752 47.662 140.903 47.8443C141.057 48.022 141.249 48.1519 141.477 48.2339C141.709 48.3114 141.948 48.3502 142.195 48.3502C142.491 48.3502 142.739 48.3114 142.94 48.2339C143.14 48.1519 143.293 48.0425 143.398 47.9058C143.502 47.7645 143.555 47.605 143.555 47.4273Z" fill="#6B6B6B"/>
<path d="M59.6602 5.0708H12.2738C7.70431 5.0708 4 8.77511 4 13.3446V53.9615C4 58.531 7.70431 62.2353 12.2738 62.2353H59.6602V5.0708Z" fill="#A95210"/>
<path d="M40.6386 40.4989C41.1455 40.4989 41.6411 40.3455 42.0626 40.0581C42.4841 39.7708 42.8126 39.3623 43.0066 38.8844C43.2006 38.4064 43.2514 37.8806 43.1525 37.3732C43.0536 36.8659 42.8095 36.3998 42.451 36.0341C42.0925 35.6683 41.6358 35.4192 41.1386 35.3183C40.6414 35.2173 40.1261 35.2691 39.6577 35.4671C39.1894 35.6651 38.7891 36.0003 38.5074 36.4304C38.2258 36.8605 38.0754 37.3662 38.0754 37.8835C38.0762 38.5769 38.3465 39.2417 38.827 39.732C39.3075 40.2223 39.959 40.4981 40.6386 40.4989ZM40.6386 36.4433C40.9177 36.4433 41.1906 36.5277 41.4227 36.686C41.6548 36.8442 41.8357 37.0692 41.9426 37.3323C42.0494 37.5955 42.0773 37.8851 42.0229 38.1644C41.9684 38.4438 41.834 38.7004 41.6366 38.9018C41.4392 39.1033 41.1877 39.2404 40.9139 39.296C40.6402 39.3516 40.3564 39.323 40.0985 39.214C39.8406 39.105 39.6201 38.9204 39.4651 38.6836C39.31 38.4468 39.2272 38.1683 39.2272 37.8835C39.2276 37.5016 39.3764 37.1355 39.641 36.8655C39.9056 36.5955 40.2644 36.4436 40.6386 36.4431V36.4433Z" fill="#FCFCFC"/>
<path d="M42.5606 40.4843C42.4694 40.4868 42.38 40.5109 42.2995 40.5546C42.219 40.5984 42.1495 40.6607 42.0966 40.7366C41.9883 40.8893 41.8579 41.0245 41.71 41.1375C41.3219 41.4254 40.8377 41.5445 40.3637 41.4688C39.8896 41.3931 39.4643 41.1286 39.181 40.7335C39.128 40.6579 39.0584 40.596 38.9777 40.5528C38.8971 40.5095 38.8077 40.4861 38.7167 40.4843C37.4133 40.4843 36.3651 41.5927 36.3651 42.9225V45.6969C36.3637 45.7736 36.3772 45.8498 36.4049 45.921C36.4325 45.9923 36.4738 46.0573 36.5262 46.1122C36.5787 46.1671 36.6413 46.2108 36.7104 46.2408C36.7795 46.2709 36.8538 46.2866 36.9289 46.2871H44.3482C44.5019 46.2868 44.6493 46.2247 44.7585 46.1142C44.8676 46.0037 44.9297 45.8538 44.9312 45.6969V42.9225C44.9312 41.5927 43.8638 40.4843 42.5606 40.4843ZM43.7795 45.1119H37.5168V42.9225C37.5159 42.6391 37.6106 42.3641 37.7849 42.1435C37.9592 41.923 38.2026 41.7704 38.4742 41.7114C38.7519 42.0151 39.0879 42.2573 39.4612 42.4229C39.8345 42.5885 40.2373 42.674 40.6443 42.674C41.0514 42.674 41.4542 42.5885 41.8275 42.4229C42.2008 42.2573 42.5368 42.0151 42.8145 41.7114C43.0868 41.7701 43.3312 41.9224 43.5069 42.1428C43.6825 42.3632 43.7787 42.6384 43.7795 42.9225V45.1119Z" fill="#FCFCFC"/>
<path d="M44.4994 34.003V31.5964H45.6531C45.7277 31.5984 45.8019 31.5852 45.8713 31.5575C45.9408 31.5297 46.0042 31.4881 46.0576 31.4351C46.1111 31.382 46.1537 31.3186 46.1827 31.2485C46.2118 31.1784 46.2269 31.1031 46.227 31.027V26.1406C46.227 24.0611 44.6596 22.3413 42.7305 22.3413H36.2932V21.3662C36.2932 19.2867 34.7438 17.5668 32.8147 17.5668H27.8312C25.9021 17.5668 24.3437 19.2867 24.3437 21.3662V22.3413H18.3396C16.4106 22.3413 14.8418 24.0611 14.8418 26.1406V31.027C14.8421 31.1032 14.8573 31.1785 14.8865 31.2486C14.9157 31.3187 14.9584 31.3822 15.012 31.4352C15.0656 31.4883 15.129 31.5298 15.1986 31.5575C15.2681 31.5852 15.3424 31.5984 15.417 31.5964H16.5694V40.742C16.5694 42.8216 18.1459 44.5242 20.0751 44.5242H33.0632C34.2839 47.5358 37.2194 49.7167 40.6386 49.7167C42.4627 49.7167 44.2345 49.0948 45.6727 47.9497C47.1109 46.8047 48.1329 45.2022 48.5765 43.3967C49.0201 41.5912 48.8598 39.6863 48.1212 37.9844C47.3825 36.2824 46.1078 34.8811 44.4994 34.003ZM25.4955 21.3662C25.4955 19.9347 26.5373 18.742 27.8312 18.742H32.8147C34.1086 18.742 35.1414 19.9347 35.1414 21.3662V22.3413H25.4955V21.3662ZM15.9935 26.1407C15.9935 24.7091 17.0456 23.5165 18.3396 23.5165H42.7305C44.0243 23.5165 45.0753 24.7091 45.0753 26.1406V30.4211H34.2776V28.3137C34.273 28.153 34.2083 28.0002 34.0967 27.8866C33.9852 27.7731 33.8352 27.7075 33.6777 27.7034H26.9294C26.775 27.7087 26.6289 27.7757 26.5223 27.8898C26.4157 28.0039 26.3572 28.1561 26.3593 28.3137V30.4211H15.9935V26.1407ZM33.1259 28.8786V33.1389H27.5111V28.8786H33.1259ZM20.0751 43.349C18.7809 43.349 17.7212 42.1737 17.7212 40.742V31.5964H26.3593V33.7402C26.3589 33.8164 26.3735 33.8918 26.4021 33.9621C26.4307 34.0324 26.4728 34.0962 26.5259 34.1497C26.579 34.2032 26.6421 34.2453 26.7114 34.2735C26.7807 34.3018 26.8548 34.3156 26.9294 34.3142H33.6777C33.9957 34.3142 34.2776 34.0644 34.2776 33.7402V31.5964H43.3477V33.4852C42.4777 33.1756 41.563 33.0172 40.6417 33.0164C36.1309 33.0164 32.4596 36.7664 32.4596 41.3692C32.4606 42.0361 32.5379 42.7005 32.69 43.349H20.0751ZM40.6389 48.5361C39.2487 48.5361 37.8898 48.1155 36.7339 47.3274C35.578 46.5393 34.6771 45.4191 34.1451 44.1086C33.6131 42.798 33.4739 41.3559 33.7451 39.9647C34.0164 38.5734 34.6858 37.2954 35.6688 36.2924C36.6518 35.2893 37.9042 34.6062 39.2676 34.3295C40.6311 34.0527 42.0443 34.1948 43.3287 34.7376C44.613 35.2805 45.7108 36.1997 46.4831 37.3792C47.2554 38.5587 47.6677 39.9454 47.6677 41.3639C47.6656 43.2655 46.9243 45.0886 45.6066 46.4332C44.2888 47.7778 42.5021 48.5341 40.6386 48.5361H40.6389Z" fill="#FCFCFC"/>
</g>
<defs>
<filter id="filter0_d_1_22592" x="0" y="0.718201" width="203.563" height="65.5171" filterUnits="userSpaceOnUse" color-interpolation-filters="sRGB">
<feFlood flood-opacity="0" result="BackgroundImageFix"/>
<feColorMatrix in="SourceAlpha" type="matrix" values="0 0 0 0 0 0 0 0 0 0 0 0 0 0 0 0 0 0 127 0" result="hardAlpha"/>
<feOffset/>
<feGaussianBlur stdDeviation="2"/>
<feComposite in2="hardAlpha" operator="out"/>
<feColorMatrix type="matrix" values="0 0 0 0 0.662745 0 0 0 0 0.321569 0 0 0 0 0.0627451 0 0 0 0.3 0"/>
<feBlend mode="normal" in2="BackgroundImageFix" result="effect1_dropShadow_1_22592"/>
<feBlend mode="normal" in="SourceGraphic" in2="effect1_dropShadow_1_22592" result="shape"/>
</filter>
<filter id="filter1_b_1_22592" x="0.991343" y="1.70954" width="201.58" height="63.1818" filterUnits="userSpaceOnUse" color-interpolation-filters="sRGB">
<feFlood flood-opacity="0" result="BackgroundImageFix"/>
<feGaussianBlur in="BackgroundImageFix" stdDeviation="1.50433"/>
<feComposite in2="SourceAlpha" operator="in" result="effect1_backgroundBlur_1_22592"/>
<feBlend mode="normal" in="SourceGraphic" in2="effect1_backgroundBlur_1_22592" result="shape"/>
</filter>
</defs>
</svg>
