<svg width="204" height="66" viewBox="0 0 204 66" fill="none" xmlns="http://www.w3.org/2000/svg">
<g filter="url(#filter0_d_1_22602)">
<g filter="url(#filter1_b_1_22602)">
<rect width="195.563" height="57.1645" rx="8.27381" transform="matrix(-1 0 0 1 199.563 4.23541)" fill="#FCFCFC"/>
<rect x="-0.5" y="0.5" width="194.563" height="56.1645" rx="7.77381" transform="matrix(-1 0 0 1 198.563 4.23541)" stroke="#A95210"/>
</g>
<path d="M59.6602 4.57623H12.2738C7.70431 4.57623 4 8.28054 4 12.85V53.4669C4 58.0364 7.70431 61.7407 12.2738 61.7407H59.6602V4.57623Z" fill="#A95210"/>
<path d="M79.136 16.9817H80.6672L83.5452 24.6584L86.4163 16.9817H87.9475L84.1467 26.9348H82.9299L79.136 16.9817ZM78.4387 16.9817H79.8948L80.1477 23.6262V26.9348H78.4387V16.9817ZM87.1887 16.9817H88.6516V26.9348H86.9358V23.6262L87.1887 16.9817ZM91.4002 23.3186V23.1614C91.4002 22.6282 91.4777 22.1337 91.6326 21.678C91.7876 21.2177 92.0109 20.8189 92.3025 20.4817C92.5988 20.1399 92.9588 19.8756 93.3826 19.6887C93.811 19.4973 94.2941 19.4016 94.8318 19.4016C95.3742 19.4016 95.8572 19.4973 96.2811 19.6887C96.7095 19.8756 97.0718 20.1399 97.368 20.4817C97.6642 20.8189 97.8898 21.2177 98.0447 21.678C98.1997 22.1337 98.2772 22.6282 98.2772 23.1614V23.3186C98.2772 23.8518 98.1997 24.3463 98.0447 24.802C97.8898 25.2577 97.6642 25.6565 97.368 25.9983C97.0718 26.3355 96.7117 26.5999 96.2879 26.7913C95.8641 26.9781 95.3833 27.0715 94.8455 27.0715C94.3032 27.0715 93.8178 26.9781 93.3895 26.7913C92.9656 26.5999 92.6056 26.3355 92.3094 25.9983C92.0132 25.6565 91.7876 25.2577 91.6326 24.802C91.4777 24.3463 91.4002 23.8518 91.4002 23.3186ZM93.0477 23.1614V23.3186C93.0477 23.6513 93.0818 23.9657 93.1502 24.262C93.2186 24.5582 93.3257 24.818 93.4715 25.0413C93.6173 25.2646 93.8042 25.44 94.032 25.5676C94.2599 25.6952 94.5311 25.759 94.8455 25.759C95.1509 25.759 95.4152 25.6952 95.6385 25.5676C95.8664 25.44 96.0532 25.2646 96.199 25.0413C96.3449 24.818 96.452 24.5582 96.5203 24.262C96.5932 23.9657 96.6297 23.6513 96.6297 23.3186V23.1614C96.6297 22.8333 96.5932 22.5234 96.5203 22.2317C96.452 21.9355 96.3426 21.6734 96.1922 21.4456C96.0464 21.2177 95.8595 21.04 95.6317 20.9124C95.4083 20.7802 95.1417 20.7141 94.8318 20.7141C94.522 20.7141 94.2531 20.7802 94.0252 20.9124C93.8019 21.04 93.6173 21.2177 93.4715 21.4456C93.3257 21.6734 93.2186 21.9355 93.1502 22.2317C93.0818 22.5234 93.0477 22.8333 93.0477 23.1614ZM102.482 21.1174V26.9348H100.834V19.5383H102.386L102.482 21.1174ZM102.188 22.9631L101.655 22.9563C101.659 22.4322 101.732 21.9514 101.873 21.5139C102.019 21.0764 102.22 20.7004 102.475 20.386C102.735 20.0715 103.045 19.83 103.405 19.6614C103.765 19.4882 104.166 19.4016 104.608 19.4016C104.963 19.4016 105.285 19.4517 105.572 19.552C105.863 19.6477 106.112 19.8049 106.317 20.0237C106.526 20.2424 106.686 20.5273 106.795 20.8782C106.905 21.2245 106.959 21.6506 106.959 22.1565V26.9348H105.305V22.1497C105.305 21.7942 105.253 21.5139 105.148 21.3088C105.048 21.0992 104.899 20.9511 104.703 20.8645C104.512 20.7734 104.273 20.7278 103.986 20.7278C103.703 20.7278 103.45 20.787 103.227 20.9055C103.004 21.024 102.814 21.1858 102.66 21.3909C102.509 21.5959 102.393 21.8329 102.311 22.1018C102.229 22.3707 102.188 22.6578 102.188 22.9631ZM113.092 27.0715C112.545 27.0715 112.05 26.9827 111.608 26.8049C111.171 26.6226 110.797 26.3697 110.487 26.0461C110.182 25.7226 109.947 25.342 109.783 24.9045C109.619 24.467 109.537 23.9954 109.537 23.4895V23.2161C109.537 22.6373 109.621 22.1132 109.79 21.6438C109.959 21.1744 110.193 20.7734 110.494 20.4407C110.795 20.1034 111.15 19.8459 111.56 19.6682C111.971 19.4905 112.415 19.4016 112.893 19.4016C113.422 19.4016 113.885 19.4905 114.281 19.6682C114.678 19.8459 115.006 20.0966 115.266 20.4202C115.53 20.7392 115.726 21.1197 115.853 21.5618C115.986 22.0038 116.052 22.4915 116.052 23.0247V23.7288H110.337V22.5461H114.425V22.4163C114.416 22.12 114.356 21.842 114.247 21.5823C114.142 21.3225 113.98 21.1129 113.762 20.9534C113.543 20.7939 113.251 20.7141 112.887 20.7141C112.613 20.7141 112.369 20.7734 112.155 20.8918C111.946 21.0058 111.77 21.1721 111.629 21.3909C111.488 21.6096 111.378 21.8739 111.301 22.1838C111.228 22.4892 111.191 22.8333 111.191 23.2161V23.4895C111.191 23.8131 111.235 24.1139 111.321 24.3918C111.412 24.6653 111.545 24.9045 111.718 25.1096C111.891 25.3147 112.101 25.4765 112.347 25.595C112.593 25.7089 112.873 25.7659 113.187 25.7659C113.584 25.7659 113.937 25.6861 114.247 25.5266C114.557 25.3671 114.826 25.1415 115.054 24.8499L115.922 25.6907C115.762 25.9231 115.555 26.1464 115.3 26.3606C115.045 26.5702 114.732 26.7411 114.363 26.8733C113.999 27.0055 113.575 27.0715 113.092 27.0715ZM120.578 26.1282L122.587 19.5383H124.351L121.384 28.0627C121.316 28.245 121.227 28.4433 121.118 28.6575C121.008 28.8717 120.865 29.0745 120.687 29.2659C120.514 29.4618 120.297 29.6191 120.038 29.7375C119.778 29.8606 119.463 29.9221 119.094 29.9221C118.948 29.9221 118.807 29.9084 118.67 29.8811C118.538 29.8583 118.413 29.8333 118.294 29.8059L118.288 28.5481C118.333 28.5527 118.388 28.5572 118.452 28.5618C118.52 28.5663 118.575 28.5686 118.616 28.5686C118.889 28.5686 119.117 28.5344 119.299 28.4661C119.482 28.4023 119.63 28.2974 119.744 28.1516C119.862 28.0058 119.962 27.8098 120.044 27.5637L120.578 26.1282ZM119.443 19.5383L121.2 25.0754L121.494 26.8118L120.352 27.1057L117.666 19.5383H119.443ZM82.219 43.2229H79.6282V41.8625H82.219C82.6702 41.8625 83.0347 41.7896 83.3127 41.6438C83.5907 41.498 83.7935 41.2974 83.9211 41.0422C84.0533 40.7825 84.1194 40.4862 84.1194 40.1536C84.1194 39.8391 84.0533 39.5452 83.9211 39.2717C83.7935 38.9937 83.5907 38.7704 83.3127 38.6018C83.0347 38.4332 82.6702 38.3489 82.219 38.3489H80.1545V46.9348H78.4387V36.9817H82.219C82.9892 36.9817 83.6431 37.1184 84.1809 37.3918C84.7232 37.6607 85.1357 38.0344 85.4182 38.5129C85.7008 38.9869 85.842 39.5292 85.842 40.1399C85.842 40.7825 85.7008 41.3339 85.4182 41.7942C85.1357 42.2545 84.7232 42.6077 84.1809 42.8538C83.6431 43.0999 82.9892 43.2229 82.219 43.2229ZM90.0604 40.9465V46.9348H88.4129V39.5383H89.9852L90.0604 40.9465ZM92.3231 39.4905L92.3094 41.0217C92.2091 41.0035 92.0997 40.9898 91.9813 40.9807C91.8673 40.9716 91.7534 40.967 91.6395 40.967C91.3569 40.967 91.1085 41.0081 90.8943 41.0901C90.6802 41.1676 90.5001 41.2815 90.3543 41.4319C90.213 41.5777 90.1037 41.7555 90.0262 41.9651C89.9487 42.1747 89.9031 42.4094 89.8895 42.6692L89.5135 42.6965C89.5135 42.2317 89.5591 41.801 89.6502 41.4045C89.7414 41.0081 89.8781 40.6594 90.0604 40.3586C90.2472 40.0579 90.4796 39.8232 90.7576 39.6545C91.0402 39.4859 91.366 39.4016 91.7352 39.4016C91.8354 39.4016 91.9425 39.4107 92.0565 39.429C92.1749 39.4472 92.2638 39.4677 92.3231 39.4905ZM94.0531 43.3186V43.1614C94.0531 42.6282 94.1306 42.1337 94.2855 41.678C94.4405 41.2177 94.6638 40.8189 94.9554 40.4817C95.2517 40.1399 95.6117 39.8756 96.0355 39.6887C96.4639 39.4973 96.947 39.4016 97.4847 39.4016C98.0271 39.4016 98.5101 39.4973 98.934 39.6887C99.3623 39.8756 99.7246 40.1399 100.021 40.4817C100.317 40.8189 100.543 41.2177 100.698 41.678C100.853 42.1337 100.93 42.6282 100.93 43.1614V43.3186C100.93 43.8518 100.853 44.3463 100.698 44.802C100.543 45.2577 100.317 45.6565 100.021 45.9983C99.7246 46.3355 99.3646 46.5999 98.9408 46.7913C98.517 46.9781 98.0362 47.0715 97.4984 47.0715C96.9561 47.0715 96.4707 46.9781 96.0424 46.7913C95.6185 46.5999 95.2585 46.3355 94.9623 45.9983C94.6661 45.6565 94.4405 45.2577 94.2855 44.802C94.1306 44.3463 94.0531 43.8518 94.0531 43.3186ZM95.7006 43.1614V43.3186C95.7006 43.6513 95.7347 43.9657 95.8031 44.262C95.8715 44.5582 95.9786 44.818 96.1244 45.0413C96.2702 45.2646 96.4571 45.44 96.6849 45.5676C96.9128 45.6952 97.184 45.759 97.4984 45.759C97.8037 45.759 98.0681 45.6952 98.2914 45.5676C98.5192 45.44 98.7061 45.2646 98.8519 45.0413C98.9978 44.818 99.1049 44.5582 99.1732 44.262C99.2461 43.9657 99.2826 43.6513 99.2826 43.3186V43.1614C99.2826 42.8333 99.2461 42.5234 99.1732 42.2317C99.1049 41.9355 98.9955 41.6734 98.8451 41.4456C98.6993 41.2177 98.5124 41.04 98.2845 40.9124C98.0612 40.7802 97.7946 40.7141 97.4847 40.7141C97.1748 40.7141 96.906 40.7802 96.6781 40.9124C96.4548 41.04 96.2702 41.2177 96.1244 41.4456C95.9786 41.6734 95.8715 41.9355 95.8031 42.2317C95.7347 42.5234 95.7006 42.8333 95.7006 43.1614ZM103.508 36.4348H105.155V45.3557L104.998 46.9348H103.508V36.4348ZM109.981 43.1682V43.3118C109.981 43.8586 109.92 44.3622 109.797 44.8225C109.678 45.2782 109.496 45.6747 109.25 46.012C109.008 46.3492 108.708 46.6112 108.348 46.7981C107.992 46.9804 107.58 47.0715 107.11 47.0715C106.65 47.0715 106.249 46.9849 105.907 46.8118C105.565 46.6386 105.278 46.3925 105.046 46.0735C104.818 45.7545 104.633 45.3739 104.492 44.9319C104.351 44.4898 104.251 44.0022 104.191 43.469V43.011C104.251 42.4732 104.351 41.9856 104.492 41.5481C104.633 41.106 104.818 40.7255 105.046 40.4065C105.278 40.0829 105.563 39.8346 105.9 39.6614C106.242 39.4882 106.641 39.4016 107.097 39.4016C107.571 39.4016 107.988 39.4928 108.348 39.675C108.712 39.8573 109.015 40.1171 109.257 40.4543C109.498 40.787 109.678 41.1835 109.797 41.6438C109.92 42.1041 109.981 42.6122 109.981 43.1682ZM108.334 43.3118V43.1682C108.334 42.8355 108.307 42.5234 108.252 42.2317C108.197 41.9355 108.106 41.6757 107.978 41.4524C107.855 41.2291 107.687 41.0536 107.473 40.926C107.263 40.7939 107.001 40.7278 106.686 40.7278C106.395 40.7278 106.144 40.7779 105.935 40.8782C105.725 40.9784 105.549 41.1152 105.408 41.2883C105.267 41.4615 105.155 41.662 105.073 41.8899C104.996 42.1178 104.943 42.3639 104.916 42.6282V43.8655C104.957 44.2073 105.044 44.5217 105.176 44.8088C105.312 45.0914 105.504 45.3193 105.75 45.4924C105.996 45.6611 106.313 45.7454 106.7 45.7454C107.005 45.7454 107.263 45.6838 107.473 45.5608C107.682 45.4377 107.849 45.2668 107.972 45.0481C108.099 44.8248 108.19 44.565 108.245 44.2688C108.304 43.9726 108.334 43.6536 108.334 43.3118ZM114.33 36.4348V46.9348H112.675V36.4348H114.33ZM120.585 47.0715C120.038 47.0715 119.544 46.9827 119.102 46.8049C118.664 46.6226 118.29 46.3697 117.981 46.0461C117.675 45.7226 117.44 45.342 117.276 44.9045C117.112 44.467 117.03 43.9954 117.03 43.4895V43.2161C117.03 42.6373 117.115 42.1132 117.283 41.6438C117.452 41.1744 117.687 40.7734 117.987 40.4407C118.288 40.1034 118.644 39.8459 119.054 39.6682C119.464 39.4905 119.908 39.4016 120.387 39.4016C120.915 39.4016 121.378 39.4905 121.774 39.6682C122.171 39.8459 122.499 40.0966 122.759 40.4202C123.023 40.7392 123.219 41.1197 123.347 41.5618C123.479 42.0038 123.545 42.4915 123.545 43.0247V43.7288H117.83V42.5461H121.918V42.4163C121.909 42.12 121.85 41.842 121.74 41.5823C121.635 41.3225 121.474 41.1129 121.255 40.9534C121.036 40.7939 120.745 40.7141 120.38 40.7141C120.106 40.7141 119.863 40.7734 119.648 40.8918C119.439 41.0058 119.263 41.1721 119.122 41.3909C118.981 41.6096 118.871 41.8739 118.794 42.1838C118.721 42.4892 118.685 42.8333 118.685 43.2161V43.4895C118.685 43.8131 118.728 44.1139 118.815 44.3918C118.906 44.6653 119.038 44.9045 119.211 45.1096C119.384 45.3147 119.594 45.4765 119.84 45.595C120.086 45.7089 120.366 45.7659 120.681 45.7659C121.077 45.7659 121.43 45.6861 121.74 45.5266C122.05 45.3671 122.319 45.1415 122.547 44.8499L123.415 45.6907C123.256 45.9231 123.048 46.1464 122.793 46.3606C122.538 46.5702 122.226 46.7411 121.856 46.8733C121.492 47.0055 121.068 47.0715 120.585 47.0715ZM127.668 41.0422V46.9348H126.02V39.5383H127.572L127.668 41.0422ZM127.401 42.9631L126.84 42.9563C126.84 42.4459 126.904 41.9742 127.032 41.5413C127.159 41.1083 127.346 40.7323 127.592 40.4133C127.838 40.0898 128.144 39.8414 128.508 39.6682C128.878 39.4905 129.304 39.4016 129.787 39.4016C130.124 39.4016 130.432 39.4517 130.71 39.552C130.992 39.6477 131.236 39.8004 131.441 40.01C131.651 40.2196 131.81 40.4885 131.92 40.8167C132.033 41.1448 132.09 41.5413 132.09 42.0061V46.9348H130.443V42.1497C130.443 41.7896 130.388 41.5071 130.279 41.302C130.174 41.0969 130.021 40.9511 129.821 40.8645C129.625 40.7734 129.39 40.7278 129.117 40.7278C128.807 40.7278 128.543 40.787 128.324 40.9055C128.11 41.024 127.934 41.1858 127.797 41.3909C127.661 41.5959 127.56 41.8329 127.497 42.1018C127.433 42.3707 127.401 42.6578 127.401 42.9631ZM131.988 42.5256L131.215 42.6965C131.215 42.2499 131.277 41.8284 131.4 41.4319C131.528 41.0308 131.712 40.6799 131.954 40.3792C132.2 40.0738 132.503 39.8346 132.863 39.6614C133.223 39.4882 133.635 39.4016 134.1 39.4016C134.478 39.4016 134.816 39.454 135.112 39.5588C135.413 39.6591 135.668 39.8186 135.878 40.0374C136.087 40.2561 136.247 40.5409 136.356 40.8918C136.465 41.2382 136.52 41.6575 136.52 42.1497V46.9348H134.866V42.1428C134.866 41.7691 134.811 41.4797 134.702 41.2747C134.597 41.0696 134.447 40.9283 134.251 40.8508C134.055 40.7688 133.82 40.7278 133.546 40.7278C133.291 40.7278 133.066 40.7756 132.87 40.8713C132.678 40.9625 132.517 41.0924 132.384 41.261C132.252 41.425 132.152 41.6142 132.084 41.8284C132.02 42.0426 131.988 42.275 131.988 42.5256Z" fill="#6B6B6B"/>
<path d="M37.7201 34.886C37.844 34.886 37.9628 34.8405 38.0505 34.7595C38.1381 34.6785 38.1873 34.5687 38.1873 34.4541C38.1873 34.3396 38.1381 34.2297 38.0505 34.1487C37.9628 34.0677 37.844 34.0222 37.7201 34.0222H33.3116C33.1877 34.0222 33.0689 34.0677 32.9813 34.1487C32.8937 34.2297 32.8445 34.3396 32.8445 34.4541C32.8445 34.5687 32.8937 34.6785 32.9813 34.7595C33.0689 34.8405 33.1877 34.886 33.3116 34.886H34.573C34.866 34.8843 35.1525 34.9664 35.3931 35.121C35.6337 35.2757 35.8167 35.4953 35.917 35.7498H33.3116C33.1877 35.7498 33.0689 35.7953 32.9813 35.8763C32.8937 35.9573 32.8445 36.0672 32.8445 36.1818C32.8445 36.2963 32.8937 36.4062 32.9813 36.4872C33.0689 36.5682 33.1877 36.6137 33.3116 36.6137H35.9171C35.8168 36.8682 35.6338 37.0879 35.3932 37.2425C35.1526 37.3972 34.8661 37.4792 34.5731 37.4775H33.3117C33.2178 37.479 33.1264 37.5063 33.0493 37.5559C32.9721 37.6055 32.9126 37.6751 32.8782 37.756C32.8439 37.8369 32.8362 37.9253 32.8563 38.0102C32.8763 38.0951 32.9232 38.1725 32.9909 38.2328L36.1434 40.9889C36.1879 41.028 36.2403 41.0587 36.2976 41.079C36.3549 41.0994 36.4159 41.1091 36.4773 41.1076C36.5386 41.1061 36.599 41.0934 36.6551 41.0703C36.7111 41.0472 36.7617 41.014 36.8039 40.9728C36.8891 40.8884 36.9349 40.7764 36.9314 40.6609C36.9279 40.5455 36.8754 40.436 36.7852 40.3561L34.4862 38.3413H34.5731C35.1157 38.3473 35.6437 38.178 36.0657 37.8626C36.4878 37.5472 36.7776 37.1055 36.8851 36.6137H37.7201C37.844 36.6137 37.9628 36.5682 38.0505 36.4872C38.1381 36.4062 38.1873 36.2963 38.1873 36.1818C38.1873 36.0672 38.1381 35.9573 38.0505 35.8763C37.9628 35.7953 37.844 35.7498 37.7201 35.7498H36.8851C36.8309 35.4301 36.6807 35.1308 36.4515 34.886H37.7201Z" fill="#FCFCFC"/>
<path d="M35.7121 28.9166C35.5689 28.3988 35.2337 27.9439 34.765 27.6311C35.0811 27.4208 35.3387 27.144 35.5164 26.8236C35.6941 26.5032 35.7869 26.1483 35.7871 25.7882C35.7873 25.4281 35.6949 25.0731 35.5175 24.7526C35.3401 24.432 35.0828 24.155 34.7668 23.9445C35.1888 23.6645 35.5035 23.2677 35.6655 22.8115C35.8276 22.3553 35.8285 21.8633 35.6682 21.4066C35.5079 20.9498 35.1947 20.5521 34.7739 20.2707C34.353 19.9893 33.8463 19.839 33.327 19.8413H21.2632C20.7437 19.8396 20.237 19.9904 19.8163 20.2722C19.3955 20.5539 19.0825 20.9519 18.9223 21.4088C18.7621 21.8657 18.763 22.3578 18.925 22.8142C19.0869 23.2706 19.4015 23.6676 19.8233 23.9479C19.5075 24.158 19.2502 24.4346 19.0727 24.7548C18.8953 25.075 18.8027 25.4296 18.8027 25.7894C18.8027 26.1492 18.8953 26.5038 19.0727 26.824C19.2502 27.1441 19.5075 27.4207 19.8233 27.6308C19.5074 27.8412 19.2502 28.118 19.0727 28.4383C18.8953 28.7587 18.8027 29.1134 18.8027 29.4734C18.8027 29.8333 18.8953 30.188 19.0727 30.5084C19.2502 30.8287 19.5074 31.1055 19.8233 31.3159C19.5074 31.5263 19.2501 31.8031 19.0727 32.1235C18.8952 32.4439 18.8026 32.7987 18.8026 33.1587C18.8026 33.5186 18.8952 33.8735 19.0727 34.1939C19.2501 34.5143 19.5074 34.7911 19.8233 35.0015C19.5075 35.2119 19.2502 35.4887 19.0728 35.8091C18.8953 36.1295 18.8028 36.4843 18.8028 36.8443C18.8028 37.2042 18.8953 37.559 19.0728 37.8794C19.2502 38.1998 19.5075 38.4767 19.8233 38.6871C19.5074 38.8975 19.2502 39.1743 19.0727 39.4947C18.8953 39.8151 18.8028 40.1699 18.8028 40.5299C18.8028 40.8899 18.8953 41.2447 19.0727 41.5651C19.2502 41.8855 19.5074 42.1623 19.8233 42.3727C19.4013 42.6526 19.0866 43.0494 18.9245 43.5056C18.7624 43.9618 18.7615 44.4539 18.9218 44.9106C19.082 45.3674 19.3953 45.7652 19.8162 46.0465C20.2371 46.3279 20.7438 46.4782 21.2632 46.4758H33.327C33.7852 46.4792 34.2352 46.363 34.6251 46.1404C34.9184 46.1662 35.2155 46.1836 35.516 46.1836C37.9769 46.185 40.3389 45.2883 42.0886 43.6885C43.8383 42.0886 44.8344 39.915 44.8602 37.64C44.886 35.365 43.9396 33.1724 42.2266 31.539C40.5136 29.9056 38.1725 28.9632 35.7121 28.9168V28.9166ZM42.5756 37.2616C42.5056 35.776 41.8873 34.3575 40.8237 33.2421L41.7729 32.3649C43.0864 33.7142 43.8452 35.4474 43.9167 37.2616H42.5756ZM29.9069 43.3351L30.8558 42.4579C31.9756 43.3704 33.3802 43.9302 34.8666 44.0563V45.3003C33.0242 45.1691 31.2804 44.4781 29.9069 43.3351ZM27.1319 38.1254H28.4767C28.6075 39.5031 29.2096 40.8064 30.1958 41.8463L29.247 42.7236C28.0117 41.4491 27.2679 39.8321 27.1319 38.1254ZM40.1623 32.632C38.9507 31.6498 37.4112 31.0817 35.801 31.0229V29.783C37.7666 29.8433 39.6465 30.5413 41.1111 31.7548L40.1623 32.632ZM34.8666 29.801V31.0449C33.3675 31.1722 31.952 31.7405 30.8279 32.6663L29.8748 31.7926C31.2529 30.634 33.0095 29.9332 34.8666 29.801ZM29.2185 32.4075L30.1716 33.2808C29.1301 34.3906 28.5255 35.7937 28.4564 37.2616H27.1153C27.186 35.467 27.9296 33.7509 29.2185 32.4075ZM35.801 44.0785C37.3957 44.0203 38.9216 43.4625 40.1283 42.4969L41.0774 43.3743C39.6174 44.571 37.7511 45.2586 35.801 45.3183V44.0785ZM35.516 43.2205C34.3031 43.2205 33.1174 42.888 32.1088 42.2651C31.1003 41.6421 30.3142 40.7566 29.85 39.7206C29.3858 38.6846 29.2643 37.5446 29.5009 36.4447C29.7375 35.3449 30.3215 34.3346 31.1792 33.5416C32.0368 32.7487 33.1295 32.2086 34.3192 31.9898C35.5088 31.7711 36.7419 31.8833 37.8625 32.3124C38.9831 32.7416 39.9409 33.4683 40.6148 34.4007C41.2886 35.3331 41.6483 36.4293 41.6483 37.5507C41.6465 39.0538 40.9998 40.4949 39.8502 41.5578C38.7006 42.6207 37.1418 43.2186 35.516 43.2204V43.2205ZM19.7371 22.1088C19.7374 21.924 19.7772 21.741 19.8541 21.5704C19.9311 21.3998 20.0436 21.2449 20.1853 21.1145C20.3271 20.9841 20.4952 20.8809 20.6802 20.8106C20.8651 20.7404 21.0632 20.7046 21.2631 20.7051H33.3269C33.7295 20.7051 34.1157 20.853 34.4005 21.1163C34.6852 21.3795 34.8452 21.7366 34.8452 22.1088C34.8452 22.4811 34.6852 22.8382 34.4005 23.1014C34.1157 23.3647 33.7295 23.5125 33.3269 23.5125H21.2632C21.0633 23.5132 20.8652 23.4773 20.6802 23.4071C20.4953 23.3368 20.3271 23.2336 20.1854 23.1032C20.0436 22.9728 19.9311 22.8179 19.8542 22.6473C19.7772 22.4767 19.7374 22.2937 19.7371 22.1088ZM19.7371 25.7801C19.7374 25.5952 19.7772 25.4123 19.8541 25.2416C19.9311 25.071 20.0436 24.9161 20.1853 24.7857C20.3271 24.6554 20.4952 24.5521 20.6802 24.4819C20.8651 24.4116 21.0632 24.3758 21.2631 24.3764H33.3269C33.7295 24.3764 34.1157 24.5242 34.4005 24.7875C34.6852 25.0507 34.8452 25.4078 34.8452 25.7801C34.8452 26.1523 34.6852 26.5094 34.4005 26.7726C34.1157 27.0359 33.7295 27.1838 33.3269 27.1838H21.2632C21.0633 27.1844 20.8652 27.1485 20.6802 27.0783C20.4953 27.008 20.3271 26.9048 20.1854 26.7744C20.0436 26.644 19.9311 26.4891 19.8542 26.3185C19.7772 26.1479 19.7374 25.9649 19.7371 25.7801ZM19.7371 29.4513C19.7374 29.2664 19.7772 29.0835 19.8541 28.9128C19.9311 28.7422 20.0436 28.5873 20.1853 28.4569C20.3271 28.3266 20.4952 28.2233 20.6802 28.1531C20.8651 28.0828 21.0632 28.047 21.2631 28.0476H33.3269C33.6298 28.0473 33.926 28.1303 34.1778 28.2862C34.4295 28.442 34.6253 28.6636 34.7404 28.9228C32.8494 29.0681 31.051 29.742 29.5843 30.855H21.2632C21.0633 30.8556 20.8652 30.8197 20.6802 30.7495C20.4953 30.6793 20.3271 30.576 20.1854 30.4456C20.0436 30.3153 19.9311 30.1603 19.8542 29.9897C19.7772 29.8191 19.7374 29.6361 19.7371 29.4513ZM19.7371 33.1585C19.7371 32.3805 20.4217 31.7188 21.2631 31.7188H28.6034C27.8027 32.5826 27.1679 33.5184 26.7483 34.5982H21.2632C20.4217 34.5982 19.7371 33.9365 19.7371 33.1585ZM19.7371 36.8657C19.7374 36.6808 19.7772 36.4979 19.8541 36.3272C19.9311 36.1566 20.0436 36.0017 20.1853 35.8713C20.3271 35.741 20.4952 35.6377 20.6802 35.5675C20.8651 35.4972 21.0632 35.4614 21.2631 35.462H26.4589C26.2676 36.1514 26.172 36.8605 26.1744 37.5722C26.1744 37.8097 26.1852 38.0534 26.2056 38.2694H21.2632C21.0633 38.27 20.8652 38.2341 20.6802 38.1639C20.4953 38.0937 20.3271 37.9904 20.1854 37.86C20.0436 37.7297 19.9311 37.5747 19.8542 37.4041C19.7772 37.2335 19.7374 37.0505 19.7371 36.8657ZM19.7371 40.5369C19.7374 40.352 19.7772 40.1691 19.8541 39.9985C19.9311 39.8278 20.0436 39.6729 20.1853 39.5425C20.3271 39.4122 20.4952 39.3089 20.6802 39.2387C20.8651 39.1684 21.0632 39.1326 21.2631 39.1332H26.3292C26.5302 40.1238 26.9179 41.074 27.4745 41.9406H21.2632C21.0633 41.9412 20.8652 41.9053 20.6802 41.8351C20.4953 41.7649 20.3271 41.6616 20.1854 41.5312C20.0436 41.4009 19.9311 41.2459 19.8542 41.0753C19.7772 40.9047 19.7374 40.7217 19.7371 40.5369ZM21.2631 45.6118C20.8605 45.6118 20.4743 45.4639 20.1895 45.2006C19.9048 44.9374 19.7448 44.5804 19.7448 44.2081C19.7448 43.8358 19.9048 43.4788 20.1895 43.2155C20.4743 42.9523 20.8605 42.8044 21.2631 42.8044H28.1071C29.1558 44.1001 30.5718 45.0359 32.206 45.6118H21.2631ZM41.7426 42.7676L40.7938 41.8902C41.8045 40.8436 42.4224 39.5231 42.5552 38.1254H43.9001C43.7626 39.8523 43.003 41.4868 41.7427 42.7676H41.7426Z" fill="#FCFCFC"/>
</g>
<defs>
<filter id="filter0_d_1_22602" x="0" y="0.235413" width="203.563" height="65.5053" filterUnits="userSpaceOnUse" color-interpolation-filters="sRGB">
<feFlood flood-opacity="0" result="BackgroundImageFix"/>
<feColorMatrix in="SourceAlpha" type="matrix" values="0 0 0 0 0 0 0 0 0 0 0 0 0 0 0 0 0 0 127 0" result="hardAlpha"/>
<feOffset/>
<feGaussianBlur stdDeviation="2"/>
<feComposite in2="hardAlpha" operator="out"/>
<feColorMatrix type="matrix" values="0 0 0 0 0.662745 0 0 0 0 0.321569 0 0 0 0 0.0627451 0 0 0 0.3 0"/>
<feBlend mode="normal" in2="BackgroundImageFix" result="effect1_dropShadow_1_22602"/>
<feBlend mode="normal" in="SourceGraphic" in2="effect1_dropShadow_1_22602" result="shape"/>
</filter>
<filter id="filter1_b_1_22602" x="0.991343" y="1.22676" width="201.58" height="63.1818" filterUnits="userSpaceOnUse" color-interpolation-filters="sRGB">
<feFlood flood-opacity="0" result="BackgroundImageFix"/>
<feGaussianBlur in="BackgroundImageFix" stdDeviation="1.50433"/>
<feComposite in2="SourceAlpha" operator="in" result="effect1_backgroundBlur_1_22602"/>
<feBlend mode="normal" in="SourceGraphic" in2="effect1_backgroundBlur_1_22602" result="shape"/>
</filter>
</defs>
</svg>
