<svg width="204" height="66" viewBox="0 0 204 66" fill="none" xmlns="http://www.w3.org/2000/svg">
<g filter="url(#filter0_d_1_22585)">
<g filter="url(#filter1_b_1_22585)">
<rect width="195.563" height="57.1645" rx="8.27381" transform="matrix(-1 0 0 1 199.563 4.16461)" fill="#FCFCFC"/>
<rect x="-0.5" y="0.5" width="194.563" height="56.1645" rx="7.77381" transform="matrix(-1 0 0 1 198.563 4.16461)" stroke="#A95210"/>
</g>
<path d="M79.136 18.6987H80.6672L83.5452 26.3755L86.4163 18.6987H87.9475L84.1467 28.6519H82.9299L79.136 18.6987ZM78.4387 18.6987H79.8948L80.1477 25.3433V28.6519H78.4387V18.6987ZM87.1887 18.6987H88.6516V28.6519H86.9358V25.3433L87.1887 18.6987ZM95.8846 27.1685V23.6411C95.8846 23.3768 95.8367 23.1489 95.741 22.9575C95.6453 22.7661 95.4995 22.618 95.3035 22.5132C95.1121 22.4084 94.8706 22.356 94.5789 22.356C94.31 22.356 94.0776 22.4015 93.8817 22.4927C93.6857 22.5838 93.533 22.7069 93.4236 22.8618C93.3143 23.0168 93.2596 23.1922 93.2596 23.3882H91.619C91.619 23.0965 91.6896 22.814 91.8309 22.5405C91.9721 22.2671 92.1772 22.0233 92.4461 21.8091C92.715 21.5949 93.0363 21.4263 93.41 21.3032C93.7837 21.1802 94.2029 21.1187 94.6678 21.1187C95.2238 21.1187 95.716 21.2121 96.1443 21.3989C96.5773 21.5858 96.9168 21.8683 97.1629 22.2466C97.4136 22.6203 97.5389 23.0897 97.5389 23.6548V26.9429C97.5389 27.2801 97.5617 27.5832 97.6072 27.8521C97.6574 28.1164 97.728 28.3465 97.8192 28.5425V28.6519H96.1307C96.0532 28.4741 95.9917 28.2485 95.9461 27.9751C95.9051 27.6971 95.8846 27.4282 95.8846 27.1685ZM96.1238 24.1538L96.1375 25.1724H94.9549C94.6496 25.1724 94.3807 25.202 94.1483 25.2612C93.9158 25.3159 93.7221 25.3979 93.5672 25.5073C93.4122 25.6167 93.296 25.7489 93.2186 25.9038C93.1411 26.0588 93.1024 26.2342 93.1024 26.4302C93.1024 26.6261 93.1479 26.8062 93.2391 26.9702C93.3302 27.1297 93.4624 27.255 93.6356 27.3462C93.8133 27.4373 94.0275 27.4829 94.2781 27.4829C94.6154 27.4829 94.9093 27.4146 95.16 27.2778C95.4152 27.1366 95.6157 26.9657 95.7615 26.7651C95.9074 26.5601 95.9848 26.3664 95.994 26.1841L96.5272 26.9155C96.4725 27.1024 96.379 27.3029 96.2469 27.5171C96.1147 27.7313 95.9415 27.9364 95.7274 28.1323C95.5177 28.3237 95.2648 28.481 94.9686 28.604C94.6769 28.7271 94.3397 28.7886 93.9568 28.7886C93.4738 28.7886 93.0431 28.6929 92.6649 28.5015C92.2866 28.3055 91.9904 28.0435 91.7762 27.7153C91.562 27.3826 91.4549 27.0067 91.4549 26.5874C91.4549 26.1955 91.5278 25.8491 91.6736 25.5483C91.824 25.243 92.0428 24.9878 92.3299 24.7827C92.6216 24.5776 92.977 24.4227 93.3963 24.3179C93.8156 24.2085 94.2941 24.1538 94.8318 24.1538H96.1238ZM102.106 22.6636V28.6519H100.458V21.2554H102.031L102.106 22.6636ZM104.369 21.2075L104.355 22.7388C104.255 22.7205 104.145 22.7069 104.027 22.6978C103.913 22.6886 103.799 22.6841 103.685 22.6841C103.402 22.6841 103.154 22.7251 102.94 22.8071C102.726 22.8846 102.546 22.9985 102.4 23.1489C102.259 23.2948 102.149 23.4725 102.072 23.6821C101.994 23.8918 101.949 24.1265 101.935 24.3862L101.559 24.4136C101.559 23.9487 101.605 23.5181 101.696 23.1216C101.787 22.7251 101.924 22.3765 102.106 22.0757C102.293 21.7749 102.525 21.5402 102.803 21.3716C103.086 21.203 103.411 21.1187 103.781 21.1187C103.881 21.1187 103.988 21.1278 104.102 21.146C104.22 21.1642 104.309 21.1847 104.369 21.2075ZM108.245 22.6636V28.6519H106.598V21.2554H108.17L108.245 22.6636ZM110.508 21.2075L110.494 22.7388C110.394 22.7205 110.284 22.7069 110.166 22.6978C110.052 22.6886 109.938 22.6841 109.824 22.6841C109.542 22.6841 109.293 22.7251 109.079 22.8071C108.865 22.8846 108.685 22.9985 108.539 23.1489C108.398 23.2948 108.288 23.4725 108.211 23.6821C108.133 23.8918 108.088 24.1265 108.074 24.3862L107.698 24.4136C107.698 23.9487 107.744 23.5181 107.835 23.1216C107.926 22.7251 108.063 22.3765 108.245 22.0757C108.432 21.7749 108.664 21.5402 108.942 21.3716C109.225 21.203 109.551 21.1187 109.92 21.1187C110.02 21.1187 110.127 21.1278 110.241 21.146C110.36 21.1642 110.448 21.1847 110.508 21.2075ZM114.494 21.2554V28.6519H112.839V21.2554H114.494ZM112.73 19.314C112.73 19.0633 112.812 18.856 112.976 18.6919C113.145 18.5233 113.377 18.439 113.673 18.439C113.965 18.439 114.195 18.5233 114.364 18.6919C114.532 18.856 114.617 19.0633 114.617 19.314C114.617 19.5601 114.532 19.7651 114.364 19.9292C114.195 20.0933 113.965 20.1753 113.673 20.1753C113.377 20.1753 113.145 20.0933 112.976 19.9292C112.812 19.7651 112.73 19.5601 112.73 19.314ZM121.658 27.1685V23.6411C121.658 23.3768 121.61 23.1489 121.515 22.9575C121.419 22.7661 121.273 22.618 121.077 22.5132C120.886 22.4084 120.644 22.356 120.353 22.356C120.084 22.356 119.851 22.4015 119.655 22.4927C119.459 22.5838 119.307 22.7069 119.197 22.8618C119.088 23.0168 119.033 23.1922 119.033 23.3882H117.393C117.393 23.0965 117.463 22.814 117.605 22.5405C117.746 22.2671 117.951 22.0233 118.22 21.8091C118.489 21.5949 118.81 21.4263 119.184 21.3032C119.557 21.1802 119.977 21.1187 120.441 21.1187C120.997 21.1187 121.49 21.2121 121.918 21.3989C122.351 21.5858 122.69 21.8683 122.937 22.2466C123.187 22.6203 123.313 23.0897 123.313 23.6548V26.9429C123.313 27.2801 123.335 27.5832 123.381 27.8521C123.431 28.1164 123.502 28.3465 123.593 28.5425V28.6519H121.904C121.827 28.4741 121.765 28.2485 121.72 27.9751C121.679 27.6971 121.658 27.4282 121.658 27.1685ZM121.898 24.1538L121.911 25.1724H120.729C120.423 25.1724 120.154 25.202 119.922 25.2612C119.69 25.3159 119.496 25.3979 119.341 25.5073C119.186 25.6167 119.07 25.7489 118.992 25.9038C118.915 26.0588 118.876 26.2342 118.876 26.4302C118.876 26.6261 118.922 26.8062 119.013 26.9702C119.104 27.1297 119.236 27.255 119.409 27.3462C119.587 27.4373 119.801 27.4829 120.052 27.4829C120.389 27.4829 120.683 27.4146 120.934 27.2778C121.189 27.1366 121.389 26.9657 121.535 26.7651C121.681 26.5601 121.759 26.3664 121.768 26.1841L122.301 26.9155C122.246 27.1024 122.153 27.3029 122.021 27.5171C121.888 27.7313 121.715 27.9364 121.501 28.1323C121.291 28.3237 121.038 28.481 120.742 28.604C120.451 28.7271 120.113 28.7886 119.731 28.7886C119.247 28.7886 118.817 28.6929 118.439 28.5015C118.06 28.3055 117.764 28.0435 117.55 27.7153C117.336 27.3826 117.229 27.0067 117.229 26.5874C117.229 26.1955 117.301 25.8491 117.447 25.5483C117.598 25.243 117.816 24.9878 118.104 24.7827C118.395 24.5776 118.751 24.4227 119.17 24.3179C119.589 24.2085 120.068 24.1538 120.606 24.1538H121.898ZM130.963 21.2554H132.46V28.4468C132.46 29.1121 132.318 29.6772 132.036 30.1421C131.753 30.6069 131.359 30.9601 130.853 31.2017C130.347 31.4478 129.762 31.5708 129.096 31.5708C128.814 31.5708 128.499 31.5298 128.153 31.4478C127.811 31.3657 127.478 31.2336 127.155 31.0513C126.836 30.8735 126.569 30.6388 126.355 30.3472L127.128 29.3765C127.392 29.6909 127.684 29.9211 128.003 30.0669C128.322 30.2127 128.657 30.2856 129.007 30.2856C129.386 30.2856 129.707 30.215 129.971 30.0737C130.24 29.937 130.448 29.7342 130.593 29.4653C130.739 29.1965 130.812 28.8683 130.812 28.481V22.9302L130.963 21.2554ZM125.938 25.0356V24.8921C125.938 24.3315 126.006 23.8211 126.143 23.3608C126.28 22.896 126.476 22.4972 126.731 22.1646C126.986 21.8273 127.296 21.5698 127.661 21.3921C128.025 21.2098 128.438 21.1187 128.898 21.1187C129.377 21.1187 129.784 21.2052 130.122 21.3784C130.463 21.5516 130.748 21.8 130.976 22.1235C131.204 22.4425 131.382 22.8254 131.509 23.272C131.642 23.714 131.74 24.2062 131.803 24.7485V25.2065C131.744 25.7352 131.644 26.2183 131.503 26.6558C131.361 27.0933 131.174 27.4715 130.942 27.7905C130.71 28.1095 130.422 28.3556 130.081 28.5288C129.743 28.702 129.345 28.7886 128.884 28.7886C128.433 28.7886 128.025 28.6951 127.661 28.5083C127.301 28.3215 126.991 28.0594 126.731 27.7222C126.476 27.3849 126.28 26.9884 126.143 26.5327C126.006 26.0724 125.938 25.5734 125.938 25.0356ZM127.586 24.8921V25.0356C127.586 25.3729 127.617 25.6873 127.681 25.979C127.75 26.2707 127.852 26.5282 127.989 26.7515C128.13 26.9702 128.308 27.1434 128.522 27.271C128.741 27.394 128.998 27.4556 129.295 27.4556C129.682 27.4556 129.999 27.3735 130.245 27.2095C130.495 27.0454 130.687 26.8244 130.819 26.5464C130.956 26.2638 131.051 25.9494 131.106 25.603V24.3657C131.079 24.0968 131.022 23.8462 130.935 23.6138C130.853 23.3813 130.741 23.1785 130.6 23.0054C130.459 22.8276 130.281 22.6909 130.067 22.5952C129.853 22.495 129.6 22.4448 129.308 22.4448C129.012 22.4448 128.755 22.5086 128.536 22.6362C128.317 22.7638 128.137 22.9393 127.996 23.1626C127.859 23.3859 127.756 23.6457 127.688 23.9419C127.62 24.2381 127.586 24.5549 127.586 24.8921ZM138.619 28.7886C138.072 28.7886 137.578 28.6997 137.136 28.522C136.698 28.3397 136.325 28.0868 136.015 27.7632C135.709 27.4396 135.475 27.0591 135.311 26.6216C135.147 26.1841 135.065 25.7124 135.065 25.2065V24.9331C135.065 24.3543 135.149 23.8302 135.318 23.3608C135.486 22.8914 135.721 22.4904 136.022 22.1577C136.322 21.8205 136.678 21.563 137.088 21.3853C137.498 21.2075 137.943 21.1187 138.421 21.1187C138.95 21.1187 139.412 21.2075 139.809 21.3853C140.205 21.563 140.533 21.8136 140.793 22.1372C141.057 22.4562 141.253 22.8368 141.381 23.2788C141.513 23.7209 141.579 24.2085 141.579 24.7417V25.4458H135.864V24.2632H139.952V24.1333C139.943 23.8371 139.884 23.5591 139.775 23.2993C139.67 23.0396 139.508 22.8299 139.289 22.6704C139.07 22.5109 138.779 22.4312 138.414 22.4312C138.141 22.4312 137.897 22.4904 137.683 22.6089C137.473 22.7228 137.298 22.8892 137.156 23.1079C137.015 23.3267 136.906 23.591 136.828 23.9009C136.755 24.2062 136.719 24.5503 136.719 24.9331V25.2065C136.719 25.5301 136.762 25.8309 136.849 26.1089C136.94 26.3823 137.072 26.6216 137.245 26.8267C137.418 27.0317 137.628 27.1935 137.874 27.312C138.12 27.4259 138.401 27.4829 138.715 27.4829C139.111 27.4829 139.465 27.4032 139.775 27.2437C140.084 27.0841 140.353 26.8586 140.581 26.5669L141.449 27.4077C141.29 27.6401 141.083 27.8634 140.827 28.0776C140.572 28.2873 140.26 28.4582 139.891 28.5903C139.526 28.7225 139.102 28.7886 138.619 28.7886ZM82.219 44.9399H79.6282V43.5796H82.219C82.6702 43.5796 83.0347 43.5067 83.3127 43.3608C83.5907 43.215 83.7935 43.0145 83.9211 42.7593C84.0533 42.4995 84.1194 42.2033 84.1194 41.8706C84.1194 41.5562 84.0533 41.2622 83.9211 40.9888C83.7935 40.7108 83.5907 40.4875 83.3127 40.3188C83.0347 40.1502 82.6702 40.0659 82.219 40.0659H80.1545V48.6519H78.4387V38.6987H82.219C82.9892 38.6987 83.6431 38.8354 84.1809 39.1089C84.7232 39.3778 85.1357 39.7515 85.4182 40.23C85.7008 40.7039 85.842 41.2463 85.842 41.8569C85.842 42.4995 85.7008 43.0509 85.4182 43.5112C85.1357 43.9715 84.7232 44.3247 84.1809 44.5708C83.6431 44.8169 82.9892 44.9399 82.219 44.9399ZM90.0604 42.6636V48.6519H88.4129V41.2554H89.9852L90.0604 42.6636ZM92.3231 41.2075L92.3094 42.7388C92.2091 42.7205 92.0997 42.7069 91.9813 42.6978C91.8673 42.6886 91.7534 42.6841 91.6395 42.6841C91.3569 42.6841 91.1085 42.7251 90.8943 42.8071C90.6802 42.8846 90.5001 42.9985 90.3543 43.1489C90.213 43.2948 90.1037 43.4725 90.0262 43.6821C89.9487 43.8918 89.9031 44.1265 89.8895 44.3862L89.5135 44.4136C89.5135 43.9487 89.5591 43.5181 89.6502 43.1216C89.7414 42.7251 89.8781 42.3765 90.0604 42.0757C90.2472 41.7749 90.4796 41.5402 90.7576 41.3716C91.0402 41.203 91.366 41.1187 91.7352 41.1187C91.8354 41.1187 91.9425 41.1278 92.0565 41.146C92.1749 41.1642 92.2638 41.1847 92.3231 41.2075ZM94.0531 45.0356V44.8784C94.0531 44.3452 94.1306 43.8507 94.2855 43.395C94.4405 42.9347 94.6638 42.536 94.9554 42.1987C95.2517 41.8569 95.6117 41.5926 96.0355 41.4058C96.4639 41.2144 96.947 41.1187 97.4847 41.1187C98.0271 41.1187 98.5101 41.2144 98.934 41.4058C99.3623 41.5926 99.7246 41.8569 100.021 42.1987C100.317 42.536 100.543 42.9347 100.698 43.395C100.853 43.8507 100.93 44.3452 100.93 44.8784V45.0356C100.93 45.5688 100.853 46.0633 100.698 46.519C100.543 46.9748 100.317 47.3735 100.021 47.7153C99.7246 48.0526 99.3646 48.3169 98.9408 48.5083C98.517 48.6951 98.0362 48.7886 97.4984 48.7886C96.9561 48.7886 96.4707 48.6951 96.0424 48.5083C95.6185 48.3169 95.2585 48.0526 94.9623 47.7153C94.6661 47.3735 94.4405 46.9748 94.2855 46.519C94.1306 46.0633 94.0531 45.5688 94.0531 45.0356ZM95.7006 44.8784V45.0356C95.7006 45.3683 95.7347 45.6828 95.8031 45.979C95.8715 46.2752 95.9786 46.535 96.1244 46.7583C96.2702 46.9816 96.4571 47.1571 96.6849 47.2847C96.9128 47.4123 97.184 47.4761 97.4984 47.4761C97.8037 47.4761 98.0681 47.4123 98.2914 47.2847C98.5192 47.1571 98.7061 46.9816 98.8519 46.7583C98.9978 46.535 99.1049 46.2752 99.1732 45.979C99.2461 45.6828 99.2826 45.3683 99.2826 45.0356V44.8784C99.2826 44.5503 99.2461 44.2404 99.1732 43.9487C99.1049 43.6525 98.9955 43.3905 98.8451 43.1626C98.6993 42.9347 98.5124 42.757 98.2845 42.6294C98.0612 42.4972 97.7946 42.4312 97.4847 42.4312C97.1748 42.4312 96.906 42.4972 96.6781 42.6294C96.4548 42.757 96.2702 42.9347 96.1244 43.1626C95.9786 43.3905 95.8715 43.6525 95.8031 43.9487C95.7347 44.2404 95.7006 44.5503 95.7006 44.8784ZM103.508 38.1519H105.155V47.0728L104.998 48.6519H103.508V38.1519ZM109.981 44.8853V45.0288C109.981 45.5757 109.92 46.0793 109.797 46.5396C109.678 46.9953 109.496 47.3918 109.25 47.729C109.008 48.0662 108.708 48.3283 108.348 48.5151C107.992 48.6974 107.58 48.7886 107.11 48.7886C106.65 48.7886 106.249 48.702 105.907 48.5288C105.565 48.3556 105.278 48.1095 105.046 47.7905C104.818 47.4715 104.633 47.091 104.492 46.6489C104.351 46.2069 104.251 45.7192 104.191 45.186V44.728C104.251 44.1903 104.351 43.7026 104.492 43.2651C104.633 42.8231 104.818 42.4425 105.046 42.1235C105.278 41.8 105.563 41.5516 105.9 41.3784C106.242 41.2052 106.641 41.1187 107.097 41.1187C107.571 41.1187 107.988 41.2098 108.348 41.3921C108.712 41.5744 109.015 41.8341 109.257 42.1714C109.498 42.5041 109.678 42.9006 109.797 43.3608C109.92 43.8211 109.981 44.3293 109.981 44.8853ZM108.334 45.0288V44.8853C108.334 44.5526 108.307 44.2404 108.252 43.9487C108.197 43.6525 108.106 43.3927 107.978 43.1694C107.855 42.9461 107.687 42.7707 107.473 42.6431C107.263 42.5109 107.001 42.4448 106.686 42.4448C106.395 42.4448 106.144 42.495 105.935 42.5952C105.725 42.6955 105.549 42.8322 105.408 43.0054C105.267 43.1785 105.155 43.3791 105.073 43.6069C104.996 43.8348 104.943 44.0809 104.916 44.3452V45.5825C104.957 45.9243 105.044 46.2388 105.176 46.5259C105.312 46.8084 105.504 47.0363 105.75 47.2095C105.996 47.3781 106.313 47.4624 106.7 47.4624C107.005 47.4624 107.263 47.4009 107.473 47.2778C107.682 47.1548 107.849 46.9839 107.972 46.7651C108.099 46.5418 108.19 46.2821 108.245 45.9858C108.304 45.6896 108.334 45.3706 108.334 45.0288ZM114.33 38.1519V48.6519H112.675V38.1519H114.33ZM120.585 48.7886C120.038 48.7886 119.544 48.6997 119.102 48.522C118.664 48.3397 118.29 48.0868 117.981 47.7632C117.675 47.4396 117.44 47.0591 117.276 46.6216C117.112 46.1841 117.03 45.7124 117.03 45.2065V44.9331C117.03 44.3543 117.115 43.8302 117.283 43.3608C117.452 42.8914 117.687 42.4904 117.987 42.1577C118.288 41.8205 118.644 41.563 119.054 41.3853C119.464 41.2075 119.908 41.1187 120.387 41.1187C120.915 41.1187 121.378 41.2075 121.774 41.3853C122.171 41.563 122.499 41.8136 122.759 42.1372C123.023 42.4562 123.219 42.8368 123.347 43.2788C123.479 43.7209 123.545 44.2085 123.545 44.7417V45.4458H117.83V44.2632H121.918V44.1333C121.909 43.8371 121.85 43.5591 121.74 43.2993C121.635 43.0396 121.474 42.8299 121.255 42.6704C121.036 42.5109 120.745 42.4312 120.38 42.4312C120.106 42.4312 119.863 42.4904 119.648 42.6089C119.439 42.7228 119.263 42.8892 119.122 43.1079C118.981 43.3267 118.871 43.591 118.794 43.9009C118.721 44.2062 118.685 44.5503 118.685 44.9331V45.2065C118.685 45.5301 118.728 45.8309 118.815 46.1089C118.906 46.3823 119.038 46.6216 119.211 46.8267C119.384 47.0317 119.594 47.1935 119.84 47.312C120.086 47.4259 120.366 47.4829 120.681 47.4829C121.077 47.4829 121.43 47.4032 121.74 47.2437C122.05 47.0841 122.319 46.8586 122.547 46.5669L123.415 47.4077C123.256 47.6401 123.048 47.8634 122.793 48.0776C122.538 48.2873 122.226 48.4582 121.856 48.5903C121.492 48.7225 121.068 48.7886 120.585 48.7886ZM127.668 42.7593V48.6519H126.02V41.2554H127.572L127.668 42.7593ZM127.401 44.6802L126.84 44.6733C126.84 44.1629 126.904 43.6912 127.032 43.2583C127.159 42.8254 127.346 42.4494 127.592 42.1304C127.838 41.8068 128.144 41.5584 128.508 41.3853C128.878 41.2075 129.304 41.1187 129.787 41.1187C130.124 41.1187 130.432 41.1688 130.71 41.269C130.992 41.3647 131.236 41.5174 131.441 41.7271C131.651 41.9367 131.81 42.2056 131.92 42.5337C132.033 42.8618 132.09 43.2583 132.09 43.7231V48.6519H130.443V43.8667C130.443 43.5067 130.388 43.2241 130.279 43.019C130.174 42.814 130.021 42.6681 129.821 42.5815C129.625 42.4904 129.39 42.4448 129.117 42.4448C128.807 42.4448 128.543 42.5041 128.324 42.6226C128.11 42.741 127.934 42.9028 127.797 43.1079C127.661 43.313 127.56 43.55 127.497 43.8188C127.433 44.0877 127.401 44.3748 127.401 44.6802ZM131.988 44.2427L131.215 44.4136C131.215 43.967 131.277 43.5454 131.4 43.1489C131.528 42.7479 131.712 42.397 131.954 42.0962C132.2 41.7909 132.503 41.5516 132.863 41.3784C133.223 41.2052 133.635 41.1187 134.1 41.1187C134.478 41.1187 134.816 41.1711 135.112 41.2759C135.413 41.3761 135.668 41.5356 135.878 41.7544C136.087 41.9731 136.247 42.258 136.356 42.6089C136.465 42.9552 136.52 43.3745 136.52 43.8667V48.6519H134.866V43.8599C134.866 43.4862 134.811 43.1968 134.702 42.9917C134.597 42.7866 134.447 42.6453 134.251 42.5679C134.055 42.4858 133.82 42.4448 133.546 42.4448C133.291 42.4448 133.066 42.4927 132.87 42.5884C132.678 42.6795 132.517 42.8094 132.384 42.978C132.252 43.1421 132.152 43.3312 132.084 43.5454C132.02 43.7596 131.988 43.992 131.988 44.2427Z" fill="#6B6B6B"/>
<path d="M59.6602 4.55389H12.2738C7.70431 4.55389 4 8.2582 4 12.8277V53.4446C4 58.0141 7.70431 61.7184 12.2738 61.7184H59.6602V4.55389Z" fill="#A95210"/>
<path d="M37.2245 25.9435C36.6042 25.9445 35.9849 25.9946 35.3724 26.0934C33.671 24.3635 31.5031 23.166 29.1329 22.6469L32.2736 19.1525C32.3493 19.0699 32.4002 18.9675 32.4203 18.8573C32.4405 18.747 32.4291 18.6333 32.3875 18.5292L31.1887 15.5323C31.1443 15.4207 31.0674 15.3251 30.9681 15.2578C30.8687 15.1905 30.7514 15.1545 30.6313 15.1547H22.24C22.1199 15.1545 22.0026 15.1905 21.9032 15.2578C21.8039 15.3251 21.727 15.4207 21.6826 15.5323L20.4838 18.5292C20.4422 18.6333 20.4308 18.747 20.451 18.8573C20.4711 18.9675 20.522 19.0699 20.5977 19.1525L23.7384 22.6469C20.707 23.3108 18.0279 25.0714 16.2157 27.5906C14.4036 30.1098 13.5862 33.2097 13.9208 36.2949C14.2553 39.38 15.7181 42.2328 18.0281 44.3049C20.3381 46.3771 23.3324 47.5226 26.4357 47.5212C27.056 47.5202 27.6753 47.4701 28.2877 47.3714C29.4503 48.5628 30.8405 49.5084 32.3757 50.1519C33.9109 50.7955 35.5599 51.1238 37.2245 51.1175C40.5628 51.1175 43.7643 49.7914 46.1249 47.4309C48.4854 45.0704 49.8115 41.8688 49.8115 38.5305C49.8115 35.1922 48.4854 31.9907 46.1249 29.6302C43.7643 27.2696 40.5628 25.9435 37.2245 25.9435ZM29.8401 16.3534H30.2237L30.943 18.1516H29.1209L29.8401 16.3534ZM30.4875 19.3503L27.7723 22.3652L28.6773 19.3503H30.4875ZM28.5455 16.3534L27.8262 18.1516H25.0451L24.3258 16.3534H28.5455ZM27.4306 19.3503L26.5256 22.3532H26.3457L25.4407 19.3503H27.4306ZM22.6476 16.3534H23.0312L23.7504 18.1516H21.9283L22.6476 16.3534ZM22.3838 19.3503H24.194L25.099 22.3652L22.3838 19.3503ZM26.4357 46.3225C23.5084 46.3307 20.6905 45.2115 18.5666 43.1971C16.4427 41.1827 15.1761 38.4279 15.0295 35.5043C14.883 32.5808 15.8679 29.7131 17.7797 27.4964C19.6915 25.2798 22.3835 23.8844 25.2968 23.5999C26.0543 23.528 26.817 23.528 27.5745 23.5999C30.3077 23.8736 32.8486 25.1302 34.7251 27.1363C36.7204 29.2416 37.8299 32.0336 37.8239 34.9342C37.8316 36.9905 37.2781 39.0099 36.2229 40.7748C35.1678 42.5397 33.651 43.9833 31.8361 44.9499C31.3555 44.5502 30.9212 44.0978 30.5414 43.6013C32.1772 42.8174 33.5592 41.5887 34.5291 40.0559C35.499 38.5231 36.0177 36.7481 36.0257 34.9342C36.0229 32.3917 35.0116 29.954 33.2137 28.1562C31.4158 26.3583 28.9782 25.347 26.4357 25.3441C23.9149 25.3406 21.4941 26.3301 19.6976 28.0985C17.9011 29.8668 16.8735 32.2716 16.8372 34.7922C16.801 37.3127 17.759 39.7461 19.5039 41.5654C21.2488 43.3846 23.6401 44.4434 26.1599 44.5123C26.4962 45.1345 26.8831 45.7279 27.3167 46.2865C27.029 46.3045 26.7353 46.3225 26.4357 46.3225ZM38.0876 30.1811C40.232 30.3963 42.2113 31.4282 43.6155 33.0631C45.0197 34.6979 45.7411 36.8104 45.6301 38.9626C45.5192 41.1149 44.5844 43.1419 43.0195 44.6237C41.4546 46.1055 39.3796 46.9284 37.2245 46.9219C35.705 46.9268 34.2137 46.512 32.915 45.7231C35.4919 44.1779 37.4304 41.761 38.3793 38.91C39.3281 36.059 39.2247 32.9624 38.0876 30.1811ZM29.8821 42.5823C29.1919 41.3436 28.8308 39.9486 28.8332 38.5305C28.8411 36.9166 29.311 35.3387 30.1873 33.9834C31.0636 32.6281 32.3096 31.552 33.7781 30.8824C34.4682 32.1212 34.8294 33.5162 34.827 34.9342C34.8191 36.5481 34.3492 38.126 33.4729 39.4814C32.5966 40.8367 31.3506 41.9127 29.8821 42.5823ZM25.5725 43.2836C23.4282 43.0685 21.4488 42.0365 20.0446 40.4017C18.6404 38.7668 17.9191 36.6544 18.03 34.5021C18.141 32.3499 19.0758 30.3228 20.6407 28.841C22.2055 27.3593 24.2805 26.5364 26.4357 26.5429C27.9552 26.538 29.4465 26.9528 30.7452 27.7417C28.1682 29.2869 26.2298 31.7038 25.2809 34.5548C24.332 37.4058 24.4355 40.5023 25.5725 43.2836ZM37.2245 49.9188C34.6894 49.9202 32.2264 49.0752 30.226 47.5177C28.2257 45.9603 26.8026 43.7796 26.1824 41.3216C25.5622 38.8635 25.7804 36.2687 26.8024 33.9487C27.8244 31.6287 29.5917 29.7163 31.8241 28.5149C32.3047 28.9146 32.739 29.367 33.1187 29.8635C31.483 30.6474 30.101 31.8761 29.1311 33.4089C28.1612 34.9417 27.6425 36.7166 27.6344 38.5305C27.6373 41.0731 28.6486 43.5107 30.4464 45.3086C32.2443 47.1065 34.6819 48.1178 37.2245 48.1206C39.7453 48.1242 42.166 47.1346 43.9625 45.3663C45.759 43.5979 46.7867 41.1931 46.8229 38.6726C46.8592 36.1521 45.9011 33.7187 44.1562 31.8994C42.4114 30.0801 40.0201 29.0214 37.5002 28.9524C37.164 28.3303 36.7771 27.7369 36.3434 27.1782C36.6311 27.1603 36.9248 27.1423 37.2245 27.1423C40.2449 27.1423 43.1415 28.3421 45.2772 30.4778C47.4129 32.6135 48.6127 35.5102 48.6127 38.5305C48.6127 41.5509 47.4129 44.4475 45.2772 46.5832C43.1415 48.7189 40.2449 49.9188 37.2245 49.9188Z" fill="#FCFCFC"/>
</g>
<defs>
<filter id="filter0_d_1_22585" x="0" y="0.164612" width="203.563" height="65.5538" filterUnits="userSpaceOnUse" color-interpolation-filters="sRGB">
<feFlood flood-opacity="0" result="BackgroundImageFix"/>
<feColorMatrix in="SourceAlpha" type="matrix" values="0 0 0 0 0 0 0 0 0 0 0 0 0 0 0 0 0 0 127 0" result="hardAlpha"/>
<feOffset/>
<feGaussianBlur stdDeviation="2"/>
<feComposite in2="hardAlpha" operator="out"/>
<feColorMatrix type="matrix" values="0 0 0 0 0.662745 0 0 0 0 0.321569 0 0 0 0 0.0627451 0 0 0 0.3 0"/>
<feBlend mode="normal" in2="BackgroundImageFix" result="effect1_dropShadow_1_22585"/>
<feBlend mode="normal" in="SourceGraphic" in2="effect1_dropShadow_1_22585" result="shape"/>
</filter>
<filter id="filter1_b_1_22585" x="0.991343" y="1.15595" width="201.58" height="63.1818" filterUnits="userSpaceOnUse" color-interpolation-filters="sRGB">
<feFlood flood-opacity="0" result="BackgroundImageFix"/>
<feGaussianBlur in="BackgroundImageFix" stdDeviation="1.50433"/>
<feComposite in2="SourceAlpha" operator="in" result="effect1_backgroundBlur_1_22585"/>
<feBlend mode="normal" in="SourceGraphic" in2="effect1_backgroundBlur_1_22585" result="shape"/>
</filter>
</defs>
</svg>
